%
M48
M72
T01C0.01200
T02C0.03200
T03C0.04921
T04C0.07874
%
T01
X62417Y44307
X40961Y48047
X34071Y68717
X56378Y99008
X55921Y113402
X77953Y95382
X83638Y94031
X80756Y98969
X90764Y94701
X97063Y87811
X103953Y98980
X87614Y112417
X121079Y134858
X125728Y134783
X126197Y129059
X106118Y140764
X100516Y145882
X100606Y154937
X101000Y160055
X92732Y154937
X91945Y160055
X121079Y160843
X125803Y160843
X101787Y185646
X86669Y198047
X79543Y216945
X77378Y221079
X76787Y226197
X81118Y233283
X82102Y239598
X152378Y194898
X155134Y201591
X201591Y206118
X204346Y215370
X209268Y221276
X233874Y205921
X226051Y200291
X240173Y220685
X259071Y214976
X262417Y217142
X271472Y224622
X275606Y224622
X281315Y211827
X284787Y207862
X291551Y202575
X279150Y200606
X268126Y201665
X262642Y202201
X263008Y191157
X271472Y191945
X265764Y178559
X287220Y174622
X290307Y153650
X295094Y151213
X282890Y152181
X303362Y136433
X320685Y144307
X329346Y136039
X325016Y126984
X294701Y117142
X288598Y117929
X283283Y117142
X274228Y116748
X269898Y111433
X289189Y88795
X274228Y56118
X291157Y43520
X274752Y39327
X237220Y76984
X229937Y76984
X204937Y82102
X180724Y71472
X180453Y81268
X166945Y86039
X157890Y91157
X151787Y96669
X149819Y101197
X147457Y105724
X145882Y111039
X168169Y116122
X174425Y115961
X169307Y126681
X163764Y126555
X162220Y136236
X215173Y107102
X166756Y66488
X153756Y70488
X145882Y72063
X144898Y66354
X146224Y61492
X146949Y56354
X155331Y51394
X146669Y47760
X141748Y48047
X138205Y77575
X134858Y80724
X136130Y86827
X131496Y90157
X103953Y71866
X103953Y67929
X100016Y67732
X97063Y70094
X103953Y57102
X184465Y21472
X204346Y51984
X193717Y56512
X214594Y57783
X343213Y85953
X349213Y89953
X354937Y83283
X355331Y100606
X360213Y104953
X380134Y103756
X385252Y101394
X383874Y81906
X379346Y61236
X384268Y60646
X351591Y59465
X350016Y49228
X233874Y170882
X220291Y170882
X213402Y172063
X321472Y190764
X351591Y203953
X358874Y203165
X360252Y207496
X370291Y208677
X380685Y223213
X375016Y228559
X370201Y229256
X357591Y223953
X353362Y228059
X347850Y241961
X343126Y244307
X337024Y247563
X329346Y252772
X373441Y256906
X321866Y218717
X321866Y210843
X252772Y255724
X242339Y250213
X237417Y250606
X183677Y254346
T02
X51315Y195921
X67220Y37260
X67220Y29425
X348047Y41354
X365213Y40961
T03
X254189Y131583
X222693Y131583
T04
X100409Y20685
X154051Y14346
X387811Y44307
X384858Y243126
X363205Y243126
X140764Y243126
X119110Y243126
M30
