G75*
%MOIN*%
%OFA0B0*%
%FSLAX25Y25*%
%IPPOS*%
%LPD*%
%AMOC8*
5,1,8,0,0,1.08239X$1,22.5*
%
%ADD10R,0.00984X0.04921*%
%ADD11R,0.07087X0.13780*%
%ADD12R,0.05906X0.05118*%
%ADD13R,0.05118X0.05906*%
%ADD14R,0.04921X0.00984*%
%ADD15R,0.13780X0.07087*%
%ADD16R,0.10000X0.05000*%
%ADD17R,0.11811X0.05354*%
D10*
X0119307Y0184268D03*
X0121276Y0184268D03*
X0123244Y0184268D03*
X0125213Y0184268D03*
X0127181Y0184268D03*
X0129150Y0184268D03*
X0131118Y0184268D03*
X0133087Y0184268D03*
X0135055Y0184268D03*
X0137024Y0184268D03*
X0138992Y0184268D03*
X0140961Y0184268D03*
X0142929Y0184268D03*
X0144898Y0184268D03*
X0146866Y0184268D03*
X0148835Y0184268D03*
X0150803Y0184268D03*
X0152772Y0184268D03*
X0154740Y0184268D03*
X0156709Y0184268D03*
X0158677Y0184268D03*
X0160646Y0184268D03*
X0162614Y0184268D03*
X0164583Y0184268D03*
X0166551Y0184268D03*
X0168520Y0184268D03*
X0170488Y0184268D03*
X0172457Y0184268D03*
X0174425Y0184268D03*
X0176394Y0184268D03*
X0178362Y0184268D03*
X0180331Y0184268D03*
X0182299Y0184268D03*
X0184268Y0184268D03*
X0186236Y0184268D03*
X0188205Y0184268D03*
X0190173Y0184268D03*
X0192142Y0184268D03*
X0194110Y0184268D03*
X0196079Y0184268D03*
X0087417Y0191748D03*
X0085449Y0191748D03*
X0083480Y0191748D03*
X0081512Y0191748D03*
X0338598Y0217535D03*
X0340567Y0217535D03*
X0342535Y0217535D03*
X0344504Y0217535D03*
X0346472Y0217535D03*
X0348441Y0217535D03*
X0350409Y0217535D03*
X0352378Y0217535D03*
X0354346Y0217535D03*
X0356315Y0217535D03*
X0358283Y0217535D03*
X0360252Y0217535D03*
X0362220Y0217535D03*
X0364189Y0217535D03*
X0366157Y0217535D03*
X0368126Y0217535D03*
X0370094Y0217535D03*
X0372063Y0217535D03*
X0374031Y0217535D03*
X0376000Y0217535D03*
X0377969Y0217535D03*
X0379937Y0217535D03*
X0381906Y0217535D03*
X0383874Y0217535D03*
D11*
X0391354Y0207496D03*
X0330921Y0207299D03*
X0203362Y0174031D03*
X0111630Y0174031D03*
X0094898Y0181512D03*
X0074031Y0181512D03*
D12*
X0226357Y0187823D03*
X0226357Y0195303D03*
D13*
X0186483Y0198050D03*
X0179003Y0198050D03*
X0179003Y0206165D03*
X0186483Y0206165D03*
D14*
X0049031Y0218126D03*
X0049031Y0220094D03*
X0049031Y0222063D03*
X0049031Y0224031D03*
X0049031Y0226000D03*
X0049031Y0227969D03*
X0049031Y0229937D03*
X0049031Y0231906D03*
X0049031Y0233874D03*
X0049031Y0235843D03*
D15*
X0059268Y0243323D03*
X0059268Y0210449D03*
D16*
X0313870Y0231039D03*
X0314484Y0244339D03*
X0377772Y0093520D03*
X0377378Y0076591D03*
D17*
X0021541Y0048244D03*
X0021541Y0056118D03*
X0021541Y0063992D03*
X0021541Y0071866D03*
M02*
