G75*
%MOIN*%
%OFA0B0*%
%FSLAX25Y25*%
%IPPOS*%
%LPD*%
%AMOC8*
5,1,8,0,0,1.08239X$1,22.5*
%
%ADD10C,0.08674*%
%ADD11R,0.05918X0.06706*%
%ADD12R,0.07099X0.07887*%
%ADD13R,0.05918X0.07099*%
%ADD14R,0.18517X0.04816*%
%ADD15R,0.03556X0.06312*%
%ADD16R,0.06312X0.08674*%
%ADD17R,0.05839X0.06312*%
%ADD18R,0.08477X0.06312*%
%ADD19C,0.05721*%
%ADD20R,0.03400X0.08800*%
%ADD21R,0.06706X0.05918*%
%ADD22R,0.08674X0.24422*%
%ADD23R,0.07493X0.07887*%
%ADD24R,0.05400X0.07100*%
%ADD25OC8,0.07100*%
%ADD26R,0.05600X0.03000*%
%ADD27R,0.02887X0.06824*%
%ADD28R,0.03556X0.02375*%
%ADD29R,0.04700X0.02000*%
%ADD30R,0.08800X0.03400*%
%ADD31R,0.09461X0.03162*%
%ADD32R,0.07099X0.05918*%
%ADD33C,0.03600*%
D10*
X0100409Y0020685D03*
X0154051Y0014346D03*
X0387811Y0044307D03*
X0384858Y0243126D03*
X0363205Y0243126D03*
X0140764Y0243126D03*
X0119110Y0243126D03*
D11*
X0071079Y0176780D03*
X0063598Y0176780D03*
X0066157Y0106059D03*
X0058677Y0106059D03*
X0057339Y0073146D03*
X0064819Y0073146D03*
X0088992Y0056118D03*
X0096472Y0056118D03*
X0285252Y0082299D03*
X0292732Y0082299D03*
X0358606Y0059618D03*
X0366087Y0059618D03*
X0365693Y0049685D03*
X0358213Y0049685D03*
X0367067Y0102626D03*
X0374547Y0102626D03*
X0274819Y0217142D03*
X0267339Y0217142D03*
D12*
X0072850Y0187732D03*
X0061827Y0187732D03*
X0067339Y0081791D03*
X0056315Y0081791D03*
D13*
X0083480Y0078559D03*
X0090961Y0078559D03*
X0090961Y0086827D03*
X0083480Y0086827D03*
X0131631Y0140759D03*
X0139111Y0140759D03*
X0267535Y0209071D03*
X0275016Y0209071D03*
D14*
X0308874Y0211165D03*
X0308874Y0221165D03*
X0332496Y0221165D03*
X0332496Y0211165D03*
X0332496Y0201165D03*
X0332496Y0191165D03*
X0332496Y0181165D03*
X0332496Y0171165D03*
X0332496Y0161165D03*
X0332496Y0151165D03*
X0332496Y0141165D03*
X0332496Y0131165D03*
X0332496Y0121165D03*
X0332496Y0111165D03*
X0332496Y0101165D03*
X0332496Y0091165D03*
X0332496Y0081165D03*
X0332496Y0071165D03*
X0332496Y0061165D03*
X0332496Y0051165D03*
X0332496Y0041165D03*
X0332496Y0031165D03*
X0308874Y0031165D03*
X0308874Y0041165D03*
X0308874Y0051165D03*
X0308874Y0061165D03*
X0308874Y0071165D03*
X0308874Y0081165D03*
X0308874Y0091165D03*
X0308874Y0101165D03*
X0308874Y0111165D03*
X0308874Y0121165D03*
X0308874Y0131165D03*
X0308874Y0141165D03*
X0308874Y0151165D03*
X0308874Y0161165D03*
X0308874Y0171165D03*
X0308874Y0181165D03*
X0308874Y0191165D03*
X0308874Y0201165D03*
X0192496Y0201165D03*
X0192496Y0191165D03*
X0192496Y0181165D03*
X0192496Y0171165D03*
X0192496Y0161165D03*
X0192496Y0151165D03*
X0192496Y0141165D03*
X0192496Y0131165D03*
X0192496Y0121165D03*
X0192496Y0111165D03*
X0192496Y0101165D03*
X0192496Y0091165D03*
X0192496Y0081165D03*
X0192496Y0071165D03*
X0192496Y0061165D03*
X0192496Y0051165D03*
X0192496Y0041165D03*
X0192496Y0031165D03*
X0168874Y0031165D03*
X0168874Y0041165D03*
X0168874Y0051165D03*
X0168874Y0061165D03*
X0168874Y0071165D03*
X0168874Y0081165D03*
X0168874Y0091165D03*
X0168874Y0101165D03*
X0168874Y0111165D03*
X0168874Y0121165D03*
X0168874Y0131165D03*
X0168874Y0141165D03*
X0168874Y0151165D03*
X0168874Y0161165D03*
X0168874Y0171165D03*
X0168874Y0181165D03*
X0168874Y0191165D03*
X0168874Y0201165D03*
X0168874Y0211165D03*
X0168874Y0221165D03*
X0192496Y0221165D03*
X0192496Y0211165D03*
D15*
X0216000Y0088787D03*
X0220331Y0088787D03*
X0224661Y0088787D03*
X0228992Y0088787D03*
X0233323Y0088787D03*
X0237654Y0088787D03*
X0241984Y0088787D03*
X0246315Y0088787D03*
X0250646Y0088787D03*
D16*
X0273087Y0130008D03*
X0210882Y0130008D03*
D17*
X0210646Y0092213D03*
D18*
X0269642Y0092213D03*
D19*
X0254189Y0131583D03*
X0222693Y0131583D03*
D20*
X0354862Y0093557D03*
X0359862Y0093557D03*
X0364862Y0093557D03*
X0369862Y0093557D03*
X0374862Y0093557D03*
X0379862Y0093557D03*
X0384862Y0093557D03*
X0389862Y0093557D03*
X0389862Y0069357D03*
X0384862Y0069357D03*
X0379862Y0069357D03*
X0374862Y0069357D03*
X0369862Y0069357D03*
X0364862Y0069357D03*
X0359862Y0069357D03*
X0354862Y0069357D03*
D21*
X0346756Y0072661D03*
X0346756Y0080142D03*
X0294638Y0122220D03*
X0294638Y0129701D03*
X0294539Y0138638D03*
X0294539Y0146118D03*
X0282953Y0146315D03*
X0282953Y0138835D03*
X0282854Y0130094D03*
X0282854Y0122614D03*
X0126142Y0124354D03*
X0126142Y0116874D03*
D22*
X0074421Y0128094D03*
X0061429Y0128094D03*
D23*
X0074524Y0150193D03*
X0074524Y0166335D03*
D24*
X0281122Y0181315D03*
X0287122Y0181315D03*
X0293122Y0181315D03*
D25*
X0348047Y0041354D03*
X0365213Y0040961D03*
X0067220Y0037260D03*
X0067220Y0029425D03*
X0051315Y0195921D03*
D26*
X0061473Y0099000D03*
X0061555Y0095260D03*
X0061473Y0091460D03*
X0071792Y0091460D03*
X0071792Y0095260D03*
X0071792Y0099000D03*
D27*
X0133410Y0117649D03*
X0138410Y0117649D03*
X0143410Y0117649D03*
X0143410Y0131036D03*
X0138410Y0131036D03*
X0133410Y0131036D03*
D28*
X0090213Y0069465D03*
X0090213Y0066906D03*
X0090213Y0064346D03*
X0083520Y0064346D03*
X0083520Y0069465D03*
D29*
X0259001Y0222949D03*
X0259001Y0225508D03*
X0259001Y0228067D03*
X0259001Y0230626D03*
X0259001Y0233185D03*
X0259001Y0235744D03*
X0259001Y0238303D03*
X0259001Y0240862D03*
X0259001Y0243421D03*
X0259001Y0245980D03*
X0259001Y0248539D03*
X0259001Y0251098D03*
X0281976Y0251098D03*
X0281976Y0248539D03*
X0281976Y0245980D03*
X0281976Y0243421D03*
X0281976Y0240862D03*
X0281976Y0238303D03*
X0281976Y0235744D03*
X0281976Y0233185D03*
X0281976Y0230626D03*
X0281976Y0228067D03*
X0281976Y0225508D03*
X0281976Y0222949D03*
D30*
X0134320Y0071551D03*
X0134320Y0066551D03*
X0134320Y0061551D03*
X0134320Y0056551D03*
X0134320Y0051551D03*
X0134320Y0046551D03*
X0134320Y0041551D03*
X0110120Y0041551D03*
X0110120Y0046551D03*
X0110120Y0051551D03*
X0110120Y0056551D03*
X0110120Y0061551D03*
X0110120Y0066551D03*
X0110120Y0071551D03*
D31*
X0114091Y0104563D03*
X0114091Y0109563D03*
X0114091Y0114563D03*
X0114091Y0119563D03*
X0114091Y0124563D03*
X0114091Y0129563D03*
X0114091Y0134563D03*
X0093618Y0134563D03*
X0093618Y0129563D03*
X0093618Y0124563D03*
X0093618Y0119563D03*
X0093618Y0114563D03*
X0093618Y0109563D03*
X0093618Y0104563D03*
D32*
X0095488Y0172850D03*
X0095488Y0180331D03*
X0107299Y0180331D03*
X0107299Y0172850D03*
X0119110Y0172850D03*
X0119110Y0180331D03*
X0130921Y0180331D03*
X0130921Y0172850D03*
D33*
X0062417Y0044307D03*
X0040961Y0048047D03*
X0034071Y0068717D03*
X0056378Y0099008D03*
X0055921Y0113402D03*
X0077953Y0095382D03*
X0083638Y0094031D03*
X0080756Y0098969D03*
X0090764Y0094701D03*
X0097063Y0087811D03*
X0103953Y0098980D03*
X0087614Y0112417D03*
X0121079Y0134858D03*
X0125728Y0134783D03*
X0126197Y0129059D03*
X0106118Y0140764D03*
X0100516Y0145882D03*
X0100606Y0154937D03*
X0101000Y0160055D03*
X0092732Y0154937D03*
X0091945Y0160055D03*
X0121079Y0160843D03*
X0125803Y0160843D03*
X0101787Y0185646D03*
X0086669Y0198047D03*
X0079543Y0216945D03*
X0077378Y0221079D03*
X0076787Y0226197D03*
X0081118Y0233283D03*
X0082102Y0239598D03*
X0152378Y0194898D03*
X0155134Y0201591D03*
X0201591Y0206118D03*
X0204346Y0215370D03*
X0209268Y0221276D03*
X0233874Y0205921D03*
X0226051Y0200291D03*
X0240173Y0220685D03*
X0259071Y0214976D03*
X0262417Y0217142D03*
X0271472Y0224622D03*
X0275606Y0224622D03*
X0281315Y0211827D03*
X0284787Y0207862D03*
X0291551Y0202575D03*
X0279150Y0200606D03*
X0268126Y0201665D03*
X0262642Y0202201D03*
X0263008Y0191157D03*
X0271472Y0191945D03*
X0265764Y0178559D03*
X0287220Y0174622D03*
X0290307Y0153650D03*
X0295094Y0151213D03*
X0282890Y0152181D03*
X0303362Y0136433D03*
X0320685Y0144307D03*
X0329346Y0136039D03*
X0325016Y0126984D03*
X0294701Y0117142D03*
X0288598Y0117929D03*
X0283283Y0117142D03*
X0274228Y0116748D03*
X0269898Y0111433D03*
X0289189Y0088795D03*
X0274228Y0056118D03*
X0291157Y0043520D03*
X0274752Y0039327D03*
X0237220Y0076984D03*
X0229937Y0076984D03*
X0204937Y0082102D03*
X0180724Y0071472D03*
X0180453Y0081268D03*
X0166945Y0086039D03*
X0157890Y0091157D03*
X0151787Y0096669D03*
X0149819Y0101197D03*
X0147457Y0105724D03*
X0145882Y0111039D03*
X0168169Y0116122D03*
X0174425Y0115961D03*
X0169307Y0126681D03*
X0163764Y0126555D03*
X0162220Y0136236D03*
X0215173Y0107102D03*
X0166756Y0066488D03*
X0153756Y0070488D03*
X0145882Y0072063D03*
X0144898Y0066354D03*
X0146224Y0061492D03*
X0146949Y0056354D03*
X0155331Y0051394D03*
X0146669Y0047760D03*
X0141748Y0048047D03*
X0138205Y0077575D03*
X0134858Y0080724D03*
X0136130Y0086827D03*
X0131496Y0090157D03*
X0103953Y0071866D03*
X0103953Y0067929D03*
X0100016Y0067732D03*
X0097063Y0070094D03*
X0103953Y0057102D03*
X0184465Y0021472D03*
X0204346Y0051984D03*
X0193717Y0056512D03*
X0214594Y0057783D03*
X0343213Y0085953D03*
X0349213Y0089953D03*
X0354937Y0083283D03*
X0355331Y0100606D03*
X0360213Y0104953D03*
X0380134Y0103756D03*
X0385252Y0101394D03*
X0383874Y0081906D03*
X0379346Y0061236D03*
X0384268Y0060646D03*
X0351591Y0059465D03*
X0350016Y0049228D03*
X0233874Y0170882D03*
X0220291Y0170882D03*
X0213402Y0172063D03*
X0321472Y0190764D03*
X0351591Y0203953D03*
X0358874Y0203165D03*
X0360252Y0207496D03*
X0370291Y0208677D03*
X0380685Y0223213D03*
X0375016Y0228559D03*
X0370201Y0229256D03*
X0357591Y0223953D03*
X0353362Y0228059D03*
X0347850Y0241961D03*
X0343126Y0244307D03*
X0337024Y0247563D03*
X0329346Y0252772D03*
X0373441Y0256906D03*
X0321866Y0218717D03*
X0321866Y0210843D03*
X0252772Y0255724D03*
X0242339Y0250213D03*
X0237417Y0250606D03*
X0183677Y0254346D03*
M02*
