G75*
%MOIN*%
%OFA0B0*%
%FSLAX25Y25*%
%IPPOS*%
%LPD*%
%AMOC8*
5,1,8,0,0,1.08239X$1,22.5*
%
%ADD10C,0.00400*%
%ADD11C,0.01000*%
%ADD12C,0.00600*%
%ADD13C,0.00800*%
%ADD14C,0.00300*%
%ADD15R,0.04035X0.00098*%
%ADD16R,0.05610X0.00098*%
%ADD17R,0.06890X0.00098*%
%ADD18R,0.07972X0.00098*%
%ADD19R,0.08858X0.00098*%
%ADD20R,0.09744X0.00098*%
%ADD21R,0.10531X0.00098*%
%ADD22R,0.11122X0.00098*%
%ADD23R,0.11909X0.00098*%
%ADD24R,0.12500X0.00098*%
%ADD25R,0.13091X0.00098*%
%ADD26R,0.13681X0.00098*%
%ADD27R,0.14075X0.00098*%
%ADD28R,0.14665X0.00098*%
%ADD29R,0.15059X0.00098*%
%ADD30R,0.15650X0.00098*%
%ADD31R,0.16043X0.00098*%
%ADD32R,0.16437X0.00098*%
%ADD33R,0.16831X0.00098*%
%ADD34R,0.06791X0.00098*%
%ADD35R,0.07087X0.00098*%
%ADD36R,0.06299X0.00098*%
%ADD37R,0.00689X0.00098*%
%ADD38R,0.05906X0.00098*%
%ADD39R,0.05807X0.00098*%
%ADD40R,0.05512X0.00098*%
%ADD41R,0.05217X0.00098*%
%ADD42R,0.05315X0.00098*%
%ADD43R,0.05020X0.00098*%
%ADD44R,0.05118X0.00098*%
%ADD45R,0.04921X0.00098*%
%ADD46R,0.04724X0.00098*%
%ADD47R,0.04626X0.00098*%
%ADD48R,0.04528X0.00098*%
%ADD49R,0.04331X0.00098*%
%ADD50R,0.04232X0.00098*%
%ADD51R,0.00984X0.00098*%
%ADD52R,0.04134X0.00098*%
%ADD53R,0.03937X0.00098*%
%ADD54R,0.00492X0.00098*%
%ADD55R,0.03839X0.00098*%
%ADD56R,0.01083X0.00098*%
%ADD57R,0.01378X0.00098*%
%ADD58R,0.01575X0.00098*%
%ADD59R,0.03740X0.00098*%
%ADD60R,0.01772X0.00098*%
%ADD61R,0.03642X0.00098*%
%ADD62R,0.01870X0.00098*%
%ADD63R,0.01969X0.00098*%
%ADD64R,0.03543X0.00098*%
%ADD65R,0.00886X0.00098*%
%ADD66R,0.03445X0.00098*%
%ADD67R,0.00787X0.00098*%
%ADD68R,0.03346X0.00098*%
%ADD69R,0.03248X0.00098*%
%ADD70R,0.03150X0.00098*%
%ADD71R,0.02067X0.00098*%
%ADD72R,0.03051X0.00098*%
%ADD73R,0.01673X0.00098*%
%ADD74R,0.01476X0.00098*%
%ADD75R,0.02953X0.00098*%
%ADD76R,0.01280X0.00098*%
%ADD77R,0.02854X0.00098*%
%ADD78R,0.02756X0.00098*%
%ADD79R,0.01181X0.00098*%
%ADD80R,0.02657X0.00098*%
%ADD81R,0.02559X0.00098*%
%ADD82R,0.02461X0.00098*%
%ADD83R,0.02362X0.00098*%
%ADD84R,0.02264X0.00098*%
%ADD85R,0.02165X0.00098*%
%ADD86R,0.12795X0.00098*%
%ADD87R,0.13287X0.00098*%
%ADD88R,0.13484X0.00098*%
%ADD89R,0.13976X0.00098*%
%ADD90R,0.14173X0.00098*%
%ADD91R,0.14370X0.00098*%
%ADD92R,0.14567X0.00098*%
%ADD93R,0.14862X0.00098*%
%ADD94R,0.15256X0.00098*%
%ADD95R,0.15354X0.00098*%
%ADD96R,0.15453X0.00098*%
%ADD97R,0.15748X0.00098*%
%ADD98R,0.15846X0.00098*%
%ADD99R,0.06004X0.00098*%
%ADD100R,0.06496X0.00098*%
%ADD101R,0.06102X0.00098*%
%ADD102R,0.05413X0.00098*%
%ADD103R,0.05709X0.00098*%
%ADD104R,0.06988X0.00098*%
%ADD105R,0.06398X0.00098*%
%ADD106R,0.09646X0.00098*%
%ADD107R,0.10630X0.00098*%
%ADD108R,0.09449X0.00098*%
%ADD109R,0.10433X0.00098*%
%ADD110R,0.09350X0.00098*%
%ADD111R,0.10335X0.00098*%
%ADD112R,0.09154X0.00098*%
%ADD113R,0.10138X0.00098*%
%ADD114R,0.09055X0.00098*%
%ADD115R,0.10039X0.00098*%
%ADD116R,0.09941X0.00098*%
%ADD117R,0.08760X0.00098*%
%ADD118R,0.04429X0.00098*%
%ADD119R,0.04823X0.00098*%
%ADD120R,0.10728X0.00098*%
%ADD121R,0.10236X0.00098*%
%ADD122R,0.29035X0.00098*%
%ADD123R,0.18996X0.00098*%
%ADD124R,0.07579X0.00098*%
%ADD125R,0.07677X0.00098*%
%ADD126R,0.07776X0.00098*%
%ADD127R,0.08465X0.00098*%
%ADD128R,0.18012X0.00098*%
%ADD129R,0.13386X0.00098*%
%ADD130R,0.18898X0.00098*%
%ADD131R,0.00394X0.00098*%
%ADD132R,0.19291X0.00098*%
%ADD133R,0.34055X0.00098*%
%ADD134R,0.34154X0.00098*%
%ADD135R,0.08169X0.00098*%
%ADD136R,0.08071X0.00098*%
%ADD137R,0.07480X0.00098*%
%ADD138R,0.07874X0.00098*%
%ADD139R,0.00591X0.00098*%
%ADD140R,0.07382X0.00098*%
%ADD141R,0.07283X0.00098*%
%ADD142R,0.08661X0.00098*%
%ADD143R,0.08563X0.00098*%
%ADD144R,0.19193X0.00098*%
%ADD145R,0.13878X0.00098*%
%ADD146R,0.19094X0.00098*%
%ADD147R,0.18701X0.00098*%
%ADD148R,0.08366X0.00098*%
%ADD149R,0.08268X0.00098*%
%ADD150R,0.06693X0.00098*%
%ADD151R,0.06201X0.00098*%
%ADD152R,0.06594X0.00098*%
%ADD153R,0.07185X0.00098*%
%ADD154R,0.11417X0.00098*%
%ADD155R,0.13189X0.00098*%
%ADD156R,0.11516X0.00098*%
%ADD157R,0.15551X0.00098*%
%ADD158R,0.14469X0.00098*%
%ADD159R,0.14272X0.00098*%
%ADD160R,0.12992X0.00098*%
%ADD161R,0.12598X0.00098*%
%ADD162R,0.12303X0.00098*%
%ADD163R,0.11713X0.00098*%
%ADD164R,0.00320X0.00040*%
%ADD165R,0.00320X0.00040*%
%ADD166R,0.00960X0.00040*%
%ADD167R,0.01000X0.00040*%
%ADD168R,0.00920X0.00040*%
%ADD169R,0.01640X0.00040*%
%ADD170R,0.01600X0.00040*%
%ADD171R,0.01840X0.00040*%
%ADD172R,0.01800X0.00040*%
%ADD173R,0.01920X0.00040*%
%ADD174R,0.01920X0.00040*%
%ADD175R,0.02000X0.00040*%
%ADD176R,0.02040X0.00040*%
%ADD177R,0.02120X0.00040*%
%ADD178R,0.02080X0.00040*%
%ADD179R,0.02080X0.00040*%
%ADD180R,0.02120X0.00040*%
%ADD181R,0.02120X0.00040*%
%ADD182R,0.02200X0.00040*%
%ADD183R,0.02160X0.00040*%
%ADD184R,0.02320X0.00040*%
%ADD185R,0.02280X0.00040*%
%ADD186R,0.02360X0.00040*%
%ADD187R,0.02480X0.00040*%
%ADD188R,0.02440X0.00040*%
%ADD189R,0.02480X0.00040*%
%ADD190R,0.02600X0.00040*%
%ADD191R,0.02680X0.00040*%
%ADD192R,0.02680X0.00040*%
%ADD193R,0.02760X0.00040*%
%ADD194R,0.02800X0.00040*%
%ADD195R,0.02840X0.00040*%
%ADD196R,0.02880X0.00040*%
%ADD197R,0.02920X0.00040*%
%ADD198R,0.02880X0.00040*%
%ADD199R,0.02920X0.00040*%
%ADD200R,0.02920X0.00040*%
%ADD201R,0.02960X0.00040*%
%ADD202R,0.03000X0.00040*%
%ADD203R,0.02960X0.00040*%
%ADD204R,0.03120X0.00040*%
%ADD205R,0.03080X0.00040*%
%ADD206R,0.03120X0.00040*%
%ADD207R,0.03200X0.00040*%
%ADD208R,0.03240X0.00040*%
%ADD209R,0.03320X0.00040*%
%ADD210R,0.03320X0.00040*%
%ADD211R,0.03280X0.00040*%
%ADD212R,0.03440X0.00040*%
%ADD213R,0.03360X0.00040*%
%ADD214R,0.03480X0.00040*%
%ADD215R,0.03480X0.00040*%
%ADD216R,0.03520X0.00040*%
%ADD217R,0.03560X0.00040*%
%ADD218R,0.03520X0.00040*%
%ADD219R,0.03600X0.00040*%
%ADD220R,0.03560X0.00040*%
%ADD221R,0.03600X0.00040*%
%ADD222R,0.03640X0.00040*%
%ADD223R,0.03640X0.00040*%
%ADD224R,0.03680X0.00040*%
%ADD225R,0.03680X0.00040*%
%ADD226R,0.03680X0.00040*%
%ADD227R,0.03720X0.00040*%
%ADD228R,0.03720X0.00040*%
%ADD229R,0.03720X0.00040*%
%ADD230R,0.03720X0.00040*%
%ADD231R,0.03760X0.00040*%
%ADD232R,0.03760X0.00040*%
%ADD233R,0.03800X0.00040*%
%ADD234R,0.03760X0.00040*%
%ADD235R,0.03760X0.00040*%
%ADD236R,0.03800X0.00040*%
%ADD237R,0.03840X0.00040*%
%ADD238R,0.03840X0.00040*%
%ADD239R,0.03840X0.00040*%
%ADD240R,0.03880X0.00040*%
%ADD241R,0.03920X0.00040*%
%ADD242R,0.03960X0.00040*%
%ADD243R,0.03920X0.00040*%
%ADD244R,0.04000X0.00040*%
%ADD245R,0.04200X0.00040*%
%ADD246R,0.04160X0.00040*%
%ADD247R,0.04560X0.00040*%
%ADD248R,0.04560X0.00040*%
%ADD249R,0.04480X0.00040*%
%ADD250R,0.43440X0.00040*%
%ADD251R,0.43840X0.00040*%
%ADD252R,0.44120X0.00040*%
%ADD253R,0.44200X0.00040*%
%ADD254R,0.44240X0.00040*%
%ADD255R,0.44280X0.00040*%
%ADD256R,0.44320X0.00040*%
%ADD257R,0.44400X0.00040*%
%ADD258R,0.44560X0.00040*%
%ADD259R,0.44680X0.00040*%
%ADD260R,0.44880X0.00040*%
%ADD261R,0.45040X0.00040*%
%ADD262R,0.45120X0.00040*%
%ADD263R,0.45200X0.00040*%
%ADD264R,0.45240X0.00040*%
%ADD265R,0.45280X0.00040*%
%ADD266R,0.45320X0.00040*%
%ADD267R,0.45360X0.00040*%
%ADD268R,0.45480X0.00040*%
%ADD269R,0.45640X0.00040*%
%ADD270R,0.45720X0.00040*%
%ADD271R,0.45840X0.00040*%
%ADD272R,0.45920X0.00040*%
%ADD273R,0.45960X0.00040*%
%ADD274R,0.46000X0.00040*%
%ADD275R,0.46000X0.00040*%
%ADD276R,0.46040X0.00040*%
%ADD277R,0.46080X0.00040*%
%ADD278R,0.46080X0.00040*%
%ADD279R,0.46120X0.00040*%
%ADD280R,0.46120X0.00040*%
%ADD281R,0.46160X0.00040*%
%ADD282R,0.46200X0.00040*%
%ADD283R,0.46240X0.00040*%
%ADD284R,0.46280X0.00040*%
%ADD285R,0.46320X0.00040*%
%ADD286R,0.46360X0.00040*%
%ADD287R,0.46400X0.00040*%
%ADD288R,0.46400X0.00040*%
%ADD289R,0.46440X0.00040*%
%ADD290R,0.46440X0.00040*%
%ADD291R,0.46480X0.00040*%
%ADD292R,0.46480X0.00040*%
%ADD293R,0.04240X0.00040*%
%ADD294R,0.03920X0.00040*%
%ADD295R,0.03880X0.00040*%
%ADD296R,0.03920X0.00040*%
%ADD297R,0.03880X0.00040*%
%ADD298R,0.03840X0.00040*%
%ADD299R,0.03880X0.00040*%
%ADD300R,0.04080X0.00040*%
%ADD301R,0.04080X0.00040*%
%ADD302R,0.04160X0.00040*%
%ADD303R,0.10120X0.00040*%
%ADD304R,0.10120X0.00040*%
%ADD305R,0.10400X0.00040*%
%ADD306R,0.10480X0.00040*%
%ADD307R,0.10520X0.00040*%
%ADD308R,0.10560X0.00040*%
%ADD309R,0.10560X0.00040*%
%ADD310R,0.10600X0.00040*%
%ADD311R,0.10640X0.00040*%
%ADD312R,0.10680X0.00040*%
%ADD313R,0.10680X0.00040*%
%ADD314R,0.10720X0.00040*%
%ADD315R,0.10760X0.00040*%
%ADD316R,0.10840X0.00040*%
%ADD317R,0.10920X0.00040*%
%ADD318R,0.10960X0.00040*%
%ADD319R,0.11040X0.00040*%
%ADD320R,0.11080X0.00040*%
%ADD321R,0.11120X0.00040*%
%ADD322R,0.11160X0.00040*%
%ADD323R,0.11160X0.00040*%
%ADD324R,0.11200X0.00040*%
%ADD325R,0.11240X0.00040*%
%ADD326R,0.11280X0.00040*%
%ADD327R,0.11280X0.00040*%
%ADD328R,0.11280X0.00040*%
%ADD329R,0.11320X0.00040*%
%ADD330R,0.11320X0.00040*%
%ADD331R,0.11320X0.00040*%
%ADD332R,0.11400X0.00040*%
%ADD333R,0.11480X0.00040*%
%ADD334R,0.11480X0.00040*%
%ADD335R,0.11520X0.00040*%
%ADD336R,0.11520X0.00040*%
%ADD337R,0.11560X0.00040*%
%ADD338R,0.11560X0.00040*%
%ADD339R,0.11600X0.00040*%
%ADD340R,0.11640X0.00040*%
%ADD341R,0.11600X0.00040*%
%ADD342R,0.11640X0.00040*%
%ADD343R,0.11680X0.00040*%
%ADD344R,0.11680X0.00040*%
%ADD345R,0.11720X0.00040*%
%ADD346R,0.11720X0.00040*%
%ADD347R,0.11720X0.00040*%
%ADD348R,0.11800X0.00040*%
%ADD349R,0.11760X0.00040*%
%ADD350R,0.11840X0.00040*%
%ADD351R,0.11880X0.00040*%
%ADD352R,0.11880X0.00040*%
%ADD353R,0.11880X0.00040*%
%ADD354R,0.11880X0.00040*%
%ADD355R,0.11920X0.00040*%
%ADD356R,0.11920X0.00040*%
%ADD357R,0.11960X0.00040*%
%ADD358R,0.11960X0.00040*%
%ADD359R,0.11960X0.00040*%
%ADD360R,0.11960X0.00040*%
%ADD361R,0.12000X0.00040*%
%ADD362R,0.12000X0.00040*%
%ADD363R,0.11920X0.00040*%
%ADD364R,0.11840X0.00040*%
%ADD365R,0.11720X0.00040*%
%ADD366R,0.11680X0.00040*%
%ADD367R,0.11680X0.00040*%
%ADD368R,0.11560X0.00040*%
%ADD369R,0.11520X0.00040*%
%ADD370R,0.11440X0.00040*%
%ADD371R,0.11360X0.00040*%
%ADD372R,0.11360X0.00040*%
%ADD373R,0.11240X0.00040*%
%ADD374R,0.11280X0.00040*%
%ADD375R,0.11120X0.00040*%
%ADD376R,0.11160X0.00040*%
%ADD377R,0.11080X0.00040*%
%ADD378R,0.10960X0.00040*%
%ADD379R,0.10880X0.00040*%
%ADD380R,0.10880X0.00040*%
%ADD381R,0.10800X0.00040*%
%ADD382R,0.10680X0.00040*%
%ADD383R,0.10720X0.00040*%
%ADD384R,0.10640X0.00040*%
%ADD385R,0.10520X0.00040*%
%ADD386R,0.10360X0.00040*%
%ADD387R,0.10360X0.00040*%
%ADD388R,0.10040X0.00040*%
%ADD389R,0.10080X0.00040*%
%ADD390R,0.04120X0.00040*%
%ADD391R,0.04120X0.00040*%
%ADD392R,0.04040X0.00040*%
%ADD393R,0.03960X0.00040*%
%ADD394R,0.04040X0.00040*%
%ADD395R,0.04280X0.00040*%
%ADD396R,0.17000X0.00040*%
%ADD397R,0.10360X0.00040*%
%ADD398R,0.19120X0.00040*%
%ADD399R,0.20480X0.00040*%
%ADD400R,0.20840X0.00040*%
%ADD401R,0.21080X0.00040*%
%ADD402R,0.21280X0.00040*%
%ADD403R,0.10720X0.00040*%
%ADD404R,0.21480X0.00040*%
%ADD405R,0.21760X0.00040*%
%ADD406R,0.10880X0.00040*%
%ADD407R,0.22360X0.00040*%
%ADD408R,0.23000X0.00040*%
%ADD409R,0.24200X0.00040*%
%ADD410R,0.24600X0.00040*%
%ADD411R,0.24840X0.00040*%
%ADD412R,0.25040X0.00040*%
%ADD413R,0.25120X0.00040*%
%ADD414R,0.25240X0.00040*%
%ADD415R,0.11320X0.00040*%
%ADD416R,0.25320X0.00040*%
%ADD417R,0.25480X0.00040*%
%ADD418R,0.11440X0.00040*%
%ADD419R,0.25760X0.00040*%
%ADD420R,0.26200X0.00040*%
%ADD421R,0.26800X0.00040*%
%ADD422R,0.11560X0.00040*%
%ADD423R,0.27120X0.00040*%
%ADD424R,0.27400X0.00040*%
%ADD425R,0.27520X0.00040*%
%ADD426R,0.27640X0.00040*%
%ADD427R,0.27680X0.00040*%
%ADD428R,0.27800X0.00040*%
%ADD429R,0.27960X0.00040*%
%ADD430R,0.28160X0.00040*%
%ADD431R,0.28480X0.00040*%
%ADD432R,0.29200X0.00040*%
%ADD433R,0.11760X0.00040*%
%ADD434R,0.29480X0.00040*%
%ADD435R,0.29680X0.00040*%
%ADD436R,0.29800X0.00040*%
%ADD437R,0.29840X0.00040*%
%ADD438R,0.29920X0.00040*%
%ADD439R,0.30000X0.00040*%
%ADD440R,0.30080X0.00040*%
%ADD441R,0.30280X0.00040*%
%ADD442R,0.30400X0.00040*%
%ADD443R,0.30640X0.00040*%
%ADD444R,0.30880X0.00040*%
%ADD445R,0.31040X0.00040*%
%ADD446R,0.31120X0.00040*%
%ADD447R,0.31160X0.00040*%
%ADD448R,0.31200X0.00040*%
%ADD449R,0.31240X0.00040*%
%ADD450R,0.31320X0.00040*%
%ADD451R,0.31480X0.00040*%
%ADD452R,0.31640X0.00040*%
%ADD453R,0.31880X0.00040*%
%ADD454R,0.32040X0.00040*%
%ADD455R,0.32240X0.00040*%
%ADD456R,0.32280X0.00040*%
%ADD457R,0.32320X0.00040*%
%ADD458R,0.32320X0.00040*%
%ADD459R,0.32360X0.00040*%
%ADD460R,0.32400X0.00040*%
%ADD461R,0.32600X0.00040*%
%ADD462R,0.32800X0.00040*%
%ADD463R,0.33000X0.00040*%
%ADD464R,0.33160X0.00040*%
%ADD465R,0.33280X0.00040*%
%ADD466R,0.33320X0.00040*%
%ADD467R,0.33320X0.00040*%
%ADD468R,0.11760X0.00040*%
%ADD469R,0.33320X0.00040*%
%ADD470R,0.33360X0.00040*%
%ADD471R,0.33480X0.00040*%
%ADD472R,0.33640X0.00040*%
%ADD473R,0.33720X0.00040*%
%ADD474R,0.33840X0.00040*%
%ADD475R,0.33880X0.00040*%
%ADD476R,0.33920X0.00040*%
%ADD477R,0.33920X0.00040*%
%ADD478R,0.33960X0.00040*%
%ADD479R,0.34000X0.00040*%
%ADD480R,0.34040X0.00040*%
%ADD481R,0.34120X0.00040*%
%ADD482R,0.11400X0.00040*%
%ADD483R,0.34160X0.00040*%
%ADD484R,0.34160X0.00040*%
%ADD485R,0.34200X0.00040*%
%ADD486R,0.34240X0.00040*%
%ADD487R,0.34280X0.00040*%
%ADD488R,0.34280X0.00040*%
%ADD489R,0.34280X0.00040*%
%ADD490R,0.34360X0.00040*%
%ADD491R,0.34360X0.00040*%
%ADD492R,0.34400X0.00040*%
%ADD493R,0.10840X0.00040*%
%ADD494R,0.02640X0.00040*%
%ADD495R,0.34360X0.00040*%
%ADD496R,0.03040X0.00040*%
%ADD497R,0.34320X0.00040*%
%ADD498R,0.10480X0.00040*%
%ADD499R,0.03320X0.00040*%
%ADD500R,0.34240X0.00040*%
%ADD501R,0.03440X0.00040*%
%ADD502R,0.10120X0.00040*%
%ADD503R,0.17440X0.00040*%
%ADD504R,0.04400X0.00040*%
%ADD505R,0.19360X0.00040*%
%ADD506R,0.04000X0.00040*%
%ADD507R,0.18520X0.00040*%
%ADD508R,0.04040X0.00040*%
%ADD509R,0.17760X0.00040*%
%ADD510R,0.17400X0.00040*%
%ADD511R,0.17240X0.00040*%
%ADD512R,0.17160X0.00040*%
%ADD513R,0.17080X0.00040*%
%ADD514R,0.16960X0.00040*%
%ADD515R,0.16800X0.00040*%
%ADD516R,0.16560X0.00040*%
%ADD517R,0.15920X0.00040*%
%ADD518R,0.15640X0.00040*%
%ADD519R,0.15520X0.00040*%
%ADD520R,0.15400X0.00040*%
%ADD521R,0.15360X0.00040*%
%ADD522R,0.15280X0.00040*%
%ADD523R,0.15240X0.00040*%
%ADD524R,0.15160X0.00040*%
%ADD525R,0.15000X0.00040*%
%ADD526R,0.14720X0.00040*%
%ADD527R,0.14080X0.00040*%
%ADD528R,0.13800X0.00040*%
%ADD529R,0.13800X0.00040*%
%ADD530R,0.13760X0.00040*%
%ADD531R,0.13720X0.00040*%
%ADD532R,0.13680X0.00040*%
%ADD533R,0.13600X0.00040*%
%ADD534R,0.13480X0.00040*%
%ADD535R,0.13080X0.00040*%
%ADD536R,0.12960X0.00040*%
%ADD537R,0.12960X0.00040*%
%ADD538R,0.12920X0.00040*%
%ADD539R,0.12880X0.00040*%
%ADD540R,0.12840X0.00040*%
%ADD541R,0.12800X0.00040*%
%ADD542R,0.12800X0.00040*%
%ADD543R,0.12720X0.00040*%
%ADD544R,0.12440X0.00040*%
%ADD545R,0.12160X0.00040*%
%ADD546R,0.11120X0.00040*%
%ADD547R,0.11040X0.00040*%
%ADD548R,0.10760X0.00040*%
%ADD549R,0.10440X0.00040*%
%ADD550R,0.10320X0.00040*%
%ADD551R,0.10280X0.00040*%
%ADD552R,0.10320X0.00040*%
%ADD553R,0.10440X0.00040*%
%ADD554R,0.10600X0.00040*%
%ADD555R,0.10800X0.00040*%
%ADD556R,0.10880X0.00040*%
%ADD557R,0.10920X0.00040*%
%ADD558R,0.10920X0.00040*%
%ADD559R,0.10960X0.00040*%
%ADD560R,0.11000X0.00040*%
%ADD561R,0.11040X0.00040*%
%ADD562R,0.11080X0.00040*%
%ADD563R,0.11000X0.00040*%
%ADD564R,0.10440X0.00040*%
%ADD565R,0.10400X0.00040*%
%ADD566R,0.10240X0.00040*%
%ADD567R,0.10200X0.00040*%
%ADD568R,0.10120X0.00040*%
%ADD569R,0.10000X0.00040*%
%ADD570R,0.10000X0.00040*%
%ADD571R,0.09960X0.00040*%
%ADD572R,0.09920X0.00040*%
%ADD573R,0.09880X0.00040*%
%ADD574R,0.09800X0.00040*%
%ADD575R,0.09680X0.00040*%
%ADD576R,0.09640X0.00040*%
%ADD577R,0.09600X0.00040*%
%ADD578R,0.09600X0.00040*%
%ADD579R,0.09520X0.00040*%
%ADD580R,0.09440X0.00040*%
%ADD581R,0.09400X0.00040*%
%ADD582R,0.09320X0.00040*%
%ADD583R,0.09280X0.00040*%
%ADD584R,0.09240X0.00040*%
%ADD585R,0.09200X0.00040*%
%ADD586R,0.09160X0.00040*%
%ADD587R,0.09160X0.00040*%
%ADD588R,0.09120X0.00040*%
%ADD589R,0.09040X0.00040*%
%ADD590R,0.08920X0.00040*%
%ADD591R,0.08840X0.00040*%
%ADD592R,0.08720X0.00040*%
%ADD593R,0.08640X0.00040*%
%ADD594R,0.08560X0.00040*%
%ADD595R,0.08520X0.00040*%
%ADD596R,0.08480X0.00040*%
%ADD597R,0.08440X0.00040*%
%ADD598R,0.08400X0.00040*%
%ADD599R,0.08320X0.00040*%
%ADD600R,0.08280X0.00040*%
%ADD601R,0.08160X0.00040*%
%ADD602R,0.08040X0.00040*%
%ADD603R,0.08000X0.00040*%
%ADD604R,0.07920X0.00040*%
%ADD605R,0.07880X0.00040*%
%ADD606R,0.07800X0.00040*%
%ADD607R,0.07760X0.00040*%
%ADD608R,0.07680X0.00040*%
%ADD609R,0.07560X0.00040*%
%ADD610R,0.07440X0.00040*%
%ADD611R,0.10320X0.00040*%
%ADD612R,0.07320X0.00040*%
%ADD613R,0.10520X0.00040*%
%ADD614R,0.07160X0.00040*%
%ADD615R,0.10560X0.00040*%
%ADD616R,0.07040X0.00040*%
%ADD617R,0.06960X0.00040*%
%ADD618R,0.06920X0.00040*%
%ADD619R,0.06880X0.00040*%
%ADD620R,0.06840X0.00040*%
%ADD621R,0.06760X0.00040*%
%ADD622R,0.06640X0.00040*%
%ADD623R,0.06520X0.00040*%
%ADD624R,0.06360X0.00040*%
%ADD625R,0.11200X0.00040*%
%ADD626R,0.06160X0.00040*%
%ADD627R,0.06040X0.00040*%
%ADD628R,0.05960X0.00040*%
%ADD629R,0.05880X0.00040*%
%ADD630R,0.05840X0.00040*%
%ADD631R,0.05760X0.00040*%
%ADD632R,0.11360X0.00040*%
%ADD633R,0.05640X0.00040*%
%ADD634R,0.05520X0.00040*%
%ADD635R,0.05200X0.00040*%
%ADD636R,0.04920X0.00040*%
%ADD637R,0.04680X0.00040*%
%ADD638R,0.04480X0.00040*%
%ADD639R,0.04360X0.00040*%
%ADD640R,0.04280X0.00040*%
%ADD641R,0.04200X0.00040*%
%ADD642R,0.02360X0.00040*%
%ADD643R,0.11760X0.00040*%
%ADD644R,0.01480X0.00040*%
%ADD645R,0.01200X0.00040*%
%ADD646R,0.00880X0.00040*%
%ADD647R,0.00600X0.00040*%
%ADD648R,0.11920X0.00040*%
%ADD649R,0.11800X0.00040*%
%ADD650R,0.10760X0.00040*%
%ADD651R,0.10320X0.00040*%
%ADD652R,0.10160X0.00040*%
%ADD653R,0.03960X0.00040*%
%ADD654R,0.03960X0.00040*%
%ADD655R,0.04120X0.00040*%
%ADD656R,0.04160X0.00040*%
%ADD657R,0.46280X0.00040*%
%ADD658R,0.46160X0.00040*%
%ADD659R,0.45920X0.00040*%
%ADD660R,0.45840X0.00040*%
%ADD661R,0.45800X0.00040*%
%ADD662R,0.45520X0.00040*%
%ADD663R,0.45400X0.00040*%
%ADD664R,0.45320X0.00040*%
%ADD665R,0.45160X0.00040*%
%ADD666R,0.45040X0.00040*%
%ADD667R,0.44640X0.00040*%
%ADD668R,0.44480X0.00040*%
%ADD669R,0.44320X0.00040*%
%ADD670R,0.44040X0.00040*%
%ADD671R,0.43840X0.00040*%
%ADD672R,0.43560X0.00040*%
%ADD673R,0.43000X0.00040*%
%ADD674R,0.04440X0.00040*%
%ADD675R,0.04520X0.00040*%
%ADD676R,0.04080X0.00040*%
%ADD677R,0.04080X0.00040*%
%ADD678R,0.03680X0.00040*%
%ADD679R,0.03480X0.00040*%
%ADD680R,0.03520X0.00040*%
%ADD681R,0.03480X0.00040*%
%ADD682R,0.03440X0.00040*%
%ADD683R,0.03400X0.00040*%
%ADD684R,0.03280X0.00040*%
%ADD685R,0.03240X0.00040*%
%ADD686R,0.03160X0.00040*%
%ADD687R,0.03160X0.00040*%
%ADD688R,0.03000X0.00040*%
%ADD689R,0.03040X0.00040*%
%ADD690R,0.02920X0.00040*%
%ADD691R,0.02760X0.00040*%
%ADD692R,0.02800X0.00040*%
%ADD693R,0.02720X0.00040*%
%ADD694R,0.02640X0.00040*%
%ADD695R,0.02680X0.00040*%
%ADD696R,0.02520X0.00040*%
%ADD697R,0.02520X0.00040*%
%ADD698R,0.02360X0.00040*%
%ADD699R,0.02400X0.00040*%
%ADD700R,0.02200X0.00040*%
%ADD701R,0.02240X0.00040*%
%ADD702R,0.02120X0.00040*%
%ADD703R,0.01960X0.00040*%
%ADD704R,0.01920X0.00040*%
%ADD705R,0.01920X0.00040*%
%ADD706R,0.01880X0.00040*%
%ADD707R,0.01840X0.00040*%
%ADD708R,0.01720X0.00040*%
%ADD709R,0.01720X0.00040*%
%ADD710R,0.01400X0.00040*%
%ADD711R,0.00480X0.00040*%
%ADD712C,0.00591*%
D10*
X0030095Y0047213D02*
X0031029Y0047213D01*
X0031496Y0047680D01*
X0031496Y0050015D01*
X0032574Y0050015D02*
X0032574Y0047213D01*
X0033976Y0047213D01*
X0034443Y0047680D01*
X0034443Y0049548D01*
X0033976Y0050015D01*
X0032574Y0050015D01*
X0029628Y0050015D02*
X0029628Y0047680D01*
X0030095Y0047213D01*
X0031994Y0054226D02*
X0033862Y0054226D01*
X0034941Y0054693D02*
X0035875Y0054693D01*
X0035408Y0054693D02*
X0035408Y0057495D01*
X0034941Y0057495D02*
X0035875Y0057495D01*
X0036905Y0057495D02*
X0038773Y0054693D01*
X0038773Y0057495D01*
X0036905Y0057495D02*
X0036905Y0054693D01*
X0030916Y0055160D02*
X0030916Y0056094D01*
X0029982Y0056094D01*
X0030916Y0055160D02*
X0030449Y0054693D01*
X0029515Y0054693D01*
X0029048Y0055160D01*
X0029048Y0057028D01*
X0029515Y0057495D01*
X0030449Y0057495D01*
X0030916Y0057028D01*
X0031102Y0061780D02*
X0029234Y0061780D01*
X0029234Y0064582D01*
X0032181Y0064582D02*
X0032181Y0061780D01*
X0032181Y0062714D02*
X0033582Y0062714D01*
X0034049Y0063181D01*
X0034049Y0064115D01*
X0033582Y0064582D01*
X0032181Y0064582D01*
X0033115Y0062714D02*
X0034049Y0061780D01*
X0033862Y0069580D02*
X0031994Y0069580D01*
X0030449Y0070981D02*
X0029048Y0070981D01*
X0029048Y0070047D02*
X0029048Y0072850D01*
X0030449Y0072850D01*
X0030916Y0072383D01*
X0030916Y0071448D01*
X0030449Y0070981D01*
X0034941Y0070047D02*
X0035875Y0070047D01*
X0035408Y0070047D02*
X0035408Y0072850D01*
X0034941Y0072850D02*
X0035875Y0072850D01*
X0036905Y0072850D02*
X0038773Y0070047D01*
X0038773Y0072850D01*
X0036905Y0072850D02*
X0036905Y0070047D01*
X0137824Y0153543D02*
X0140126Y0153543D01*
X0140893Y0154310D01*
X0140893Y0157379D01*
X0140126Y0158146D01*
X0137824Y0158146D01*
X0137824Y0153543D01*
X0142428Y0153543D02*
X0143962Y0153543D01*
X0143195Y0153543D02*
X0143195Y0158146D01*
X0142428Y0158146D02*
X0143962Y0158146D01*
X0145497Y0157379D02*
X0145497Y0156612D01*
X0146264Y0155844D01*
X0147799Y0155844D01*
X0148566Y0155077D01*
X0148566Y0154310D01*
X0147799Y0153543D01*
X0146264Y0153543D01*
X0145497Y0154310D01*
X0150101Y0155077D02*
X0152403Y0155077D01*
X0153170Y0155844D01*
X0153170Y0157379D01*
X0152403Y0158146D01*
X0150101Y0158146D01*
X0150101Y0153543D01*
X0154705Y0152775D02*
X0157774Y0152775D01*
X0159309Y0153543D02*
X0161611Y0153543D01*
X0162378Y0154310D01*
X0162378Y0157379D01*
X0161611Y0158146D01*
X0159309Y0158146D01*
X0159309Y0153543D01*
X0163913Y0153543D02*
X0163913Y0156612D01*
X0165447Y0158146D01*
X0166982Y0156612D01*
X0166982Y0153543D01*
X0166982Y0155844D02*
X0163913Y0155844D01*
X0168516Y0158146D02*
X0171586Y0158146D01*
X0170051Y0158146D02*
X0170051Y0153543D01*
X0173120Y0153543D02*
X0173120Y0156612D01*
X0174655Y0158146D01*
X0176190Y0156612D01*
X0176190Y0153543D01*
X0176190Y0155844D02*
X0173120Y0155844D01*
X0148566Y0157379D02*
X0147799Y0158146D01*
X0146264Y0158146D01*
X0145497Y0157379D01*
X0112663Y0183680D02*
X0109594Y0183680D01*
X0111128Y0183680D02*
X0111128Y0188284D01*
X0109594Y0186750D01*
X0101704Y0164643D02*
X0101704Y0160039D01*
X0100169Y0161573D01*
X0098635Y0160039D01*
X0098635Y0164643D01*
X0097100Y0163875D02*
X0096333Y0164643D01*
X0094798Y0164643D01*
X0094031Y0163875D01*
X0094031Y0160806D01*
X0094798Y0160039D01*
X0096333Y0160039D01*
X0097100Y0160806D01*
X0097100Y0163875D01*
X0092496Y0163875D02*
X0092496Y0162341D01*
X0091729Y0161573D01*
X0089427Y0161573D01*
X0089427Y0160039D02*
X0089427Y0164643D01*
X0091729Y0164643D01*
X0092496Y0163875D01*
X0087892Y0159271D02*
X0084823Y0159271D01*
X0082521Y0161573D02*
X0080219Y0161573D01*
X0080219Y0160039D02*
X0080219Y0164643D01*
X0082521Y0164643D01*
X0083288Y0163875D01*
X0083288Y0162341D01*
X0082521Y0161573D01*
X0078684Y0161573D02*
X0078684Y0160806D01*
X0077917Y0160039D01*
X0076382Y0160039D01*
X0075615Y0160806D01*
X0076382Y0162341D02*
X0075615Y0163108D01*
X0075615Y0163875D01*
X0076382Y0164643D01*
X0077917Y0164643D01*
X0078684Y0163875D01*
X0077917Y0162341D02*
X0078684Y0161573D01*
X0077917Y0162341D02*
X0076382Y0162341D01*
X0074080Y0164643D02*
X0072546Y0164643D01*
X0073313Y0164643D02*
X0073313Y0160039D01*
X0072546Y0160039D02*
X0074080Y0160039D01*
X0071011Y0160806D02*
X0071011Y0163875D01*
X0070244Y0164643D01*
X0067942Y0164643D01*
X0067942Y0160039D01*
X0070244Y0160039D01*
X0071011Y0160806D01*
X0063804Y0199626D02*
X0060735Y0199626D01*
X0059200Y0200393D02*
X0056131Y0200393D01*
X0056131Y0204997D01*
X0065339Y0204997D02*
X0065339Y0200393D01*
X0067641Y0200393D01*
X0068408Y0201160D01*
X0068408Y0201928D01*
X0067641Y0202695D01*
X0065339Y0202695D01*
X0067641Y0202695D02*
X0068408Y0203462D01*
X0068408Y0204230D01*
X0067641Y0204997D01*
X0065339Y0204997D01*
X0165779Y0198733D02*
X0165779Y0196864D01*
X0166246Y0196397D01*
X0167180Y0196397D01*
X0167647Y0196864D01*
X0168726Y0196397D02*
X0170594Y0196397D01*
X0169660Y0196397D02*
X0169660Y0199200D01*
X0168726Y0198266D01*
X0167647Y0198733D02*
X0167180Y0199200D01*
X0166246Y0199200D01*
X0165779Y0198733D01*
X0171672Y0198733D02*
X0172139Y0199200D01*
X0173073Y0199200D01*
X0173540Y0198733D01*
X0171672Y0196864D01*
X0172139Y0196397D01*
X0173073Y0196397D01*
X0173540Y0196864D01*
X0173540Y0198733D01*
X0171672Y0198733D02*
X0171672Y0196864D01*
X0172135Y0204029D02*
X0172135Y0204496D01*
X0174004Y0206364D01*
X0174004Y0206831D01*
X0172135Y0206831D01*
X0171057Y0206364D02*
X0170590Y0206831D01*
X0169656Y0206831D01*
X0169189Y0206364D01*
X0169189Y0204496D01*
X0169656Y0204029D01*
X0170590Y0204029D01*
X0171057Y0204496D01*
X0205609Y0184801D02*
X0208679Y0184801D01*
X0210213Y0183267D02*
X0210981Y0182499D01*
X0212515Y0182499D01*
X0213283Y0183267D01*
X0213283Y0186336D01*
X0210213Y0183267D01*
X0210213Y0186336D01*
X0210981Y0187103D01*
X0212515Y0187103D01*
X0213283Y0186336D01*
X0207911Y0187103D02*
X0207911Y0182499D01*
X0205609Y0184801D02*
X0207911Y0187103D01*
X0225122Y0181096D02*
X0225122Y0180162D01*
X0225589Y0179695D01*
X0226056Y0179695D01*
X0226523Y0180162D01*
X0226523Y0181563D01*
X0225589Y0181563D02*
X0225122Y0181096D01*
X0225589Y0181563D02*
X0227457Y0181563D01*
X0227924Y0181096D01*
X0227924Y0180162D01*
X0227457Y0179695D01*
X0227457Y0178617D02*
X0227924Y0178150D01*
X0227924Y0177216D01*
X0227457Y0176749D01*
X0225589Y0176749D01*
X0225122Y0177216D01*
X0225122Y0178150D01*
X0225589Y0178617D01*
X0309707Y0223090D02*
X0312009Y0223090D01*
X0312776Y0223857D01*
X0312776Y0224624D01*
X0312009Y0225392D01*
X0309707Y0225392D01*
X0309707Y0223090D02*
X0309707Y0227694D01*
X0312009Y0227694D01*
X0312776Y0226926D01*
X0312776Y0226159D01*
X0312009Y0225392D01*
X0314311Y0225392D02*
X0317380Y0225392D01*
X0317380Y0226159D02*
X0317380Y0223090D01*
X0314311Y0223090D02*
X0314311Y0226159D01*
X0315846Y0227694D01*
X0317380Y0226159D01*
X0318915Y0227694D02*
X0321984Y0227694D01*
X0320450Y0227694D02*
X0320450Y0223090D01*
X0333690Y0223228D02*
X0333690Y0227831D01*
X0335992Y0227831D01*
X0336759Y0227064D01*
X0336759Y0225530D01*
X0335992Y0224762D01*
X0333690Y0224762D01*
X0335224Y0224762D02*
X0336759Y0223228D01*
X0338294Y0222460D02*
X0341363Y0222460D01*
X0342898Y0223228D02*
X0345200Y0223228D01*
X0345967Y0223995D01*
X0345967Y0224762D01*
X0345200Y0225530D01*
X0342898Y0225530D01*
X0342898Y0227831D02*
X0342898Y0223228D01*
X0345200Y0225530D02*
X0345967Y0226297D01*
X0345967Y0227064D01*
X0345200Y0227831D01*
X0342898Y0227831D01*
X0321831Y0236389D02*
X0321831Y0240993D01*
X0319529Y0238691D01*
X0322598Y0238691D01*
X0317994Y0240226D02*
X0317227Y0240993D01*
X0314925Y0240993D01*
X0314925Y0236389D01*
X0317227Y0236389D01*
X0317994Y0237156D01*
X0317994Y0240226D01*
X0313391Y0240993D02*
X0313391Y0236389D01*
X0310321Y0240993D01*
X0310321Y0236389D01*
X0308787Y0237156D02*
X0308787Y0238691D01*
X0307252Y0238691D01*
X0308787Y0240226D02*
X0308019Y0240993D01*
X0306485Y0240993D01*
X0305717Y0240226D01*
X0305717Y0237156D01*
X0306485Y0236389D01*
X0308019Y0236389D01*
X0308787Y0237156D01*
X0353040Y0095489D02*
X0352272Y0094722D01*
X0352272Y0091652D01*
X0353040Y0090885D01*
X0354574Y0090885D01*
X0355342Y0091652D01*
X0355342Y0093187D01*
X0353807Y0093187D01*
X0355342Y0094722D02*
X0354574Y0095489D01*
X0353040Y0095489D01*
X0356876Y0095489D02*
X0356876Y0090885D01*
X0359946Y0090885D02*
X0356876Y0095489D01*
X0359946Y0095489D02*
X0359946Y0090885D01*
X0361480Y0090885D02*
X0361480Y0095489D01*
X0363782Y0095489D01*
X0364550Y0094722D01*
X0364550Y0091652D01*
X0363782Y0090885D01*
X0361480Y0090885D01*
X0366084Y0091652D02*
X0366852Y0090885D01*
X0368386Y0090885D01*
X0369154Y0091652D01*
X0369154Y0092420D01*
X0368386Y0093187D01*
X0367619Y0093187D01*
X0368386Y0093187D02*
X0369154Y0093954D01*
X0369154Y0094722D01*
X0368386Y0095489D01*
X0366852Y0095489D01*
X0366084Y0094722D01*
X0365691Y0078560D02*
X0368760Y0073956D01*
X0368760Y0078560D01*
X0365691Y0078560D02*
X0365691Y0073956D01*
X0364156Y0073956D02*
X0362621Y0073956D01*
X0363389Y0073956D02*
X0363389Y0078560D01*
X0364156Y0078560D02*
X0362621Y0078560D01*
X0361087Y0077793D02*
X0361087Y0076258D01*
X0360319Y0075491D01*
X0358017Y0075491D01*
X0359552Y0075491D02*
X0361087Y0073956D01*
X0358017Y0073956D02*
X0358017Y0078560D01*
X0360319Y0078560D01*
X0361087Y0077793D01*
X0356483Y0078560D02*
X0353413Y0078560D01*
X0353413Y0073956D01*
X0356483Y0073956D01*
X0354948Y0076258D02*
X0353413Y0076258D01*
X0351879Y0073956D02*
X0351879Y0078560D01*
X0348809Y0078560D02*
X0348809Y0073956D01*
X0350344Y0075491D01*
X0351879Y0073956D01*
X0347275Y0074723D02*
X0347275Y0077793D01*
X0346507Y0078560D01*
X0344973Y0078560D01*
X0344206Y0077793D01*
X0344206Y0074723D01*
X0344973Y0073956D01*
X0346507Y0073956D01*
X0347275Y0074723D01*
X0342671Y0076258D02*
X0341904Y0075491D01*
X0339602Y0075491D01*
X0339602Y0073956D02*
X0339602Y0078560D01*
X0341904Y0078560D01*
X0342671Y0077793D01*
X0342671Y0076258D01*
D11*
X0236000Y0232000D02*
X0236000Y0238000D01*
X0264000Y0238000D01*
X0264000Y0247000D01*
X0236000Y0247000D01*
X0233000Y0247000D02*
X0215000Y0247000D01*
X0215000Y0232000D01*
X0200000Y0232000D01*
X0197500Y0232000D02*
X0164500Y0232000D01*
X0164500Y0247500D01*
X0197500Y0247500D01*
D12*
X0054315Y0198921D02*
X0053315Y0198921D01*
X0054315Y0198921D02*
X0054315Y0197921D01*
X0054315Y0193921D02*
X0054315Y0192921D01*
X0053315Y0192921D01*
X0049315Y0192921D02*
X0048315Y0192921D01*
X0048315Y0193921D01*
X0048315Y0197921D02*
X0048315Y0198921D01*
X0049315Y0198921D01*
X0221300Y0057705D02*
X0224503Y0057705D01*
X0225570Y0056638D01*
X0225570Y0052368D01*
X0224503Y0051300D01*
X0221300Y0051300D01*
X0221300Y0057705D01*
X0227745Y0057705D02*
X0227745Y0051300D01*
X0232016Y0051300D01*
X0234191Y0052368D02*
X0235259Y0051300D01*
X0237394Y0051300D01*
X0238461Y0052368D01*
X0238461Y0053435D01*
X0237394Y0054503D01*
X0235259Y0054503D01*
X0234191Y0055570D01*
X0234191Y0056638D01*
X0235259Y0057705D01*
X0237394Y0057705D01*
X0238461Y0056638D01*
X0240636Y0057705D02*
X0242772Y0057705D01*
X0241704Y0057705D02*
X0241704Y0051300D01*
X0240636Y0051300D02*
X0242772Y0051300D01*
X0244933Y0052368D02*
X0246001Y0051300D01*
X0248136Y0051300D01*
X0249204Y0052368D01*
X0249204Y0054503D01*
X0247069Y0054503D01*
X0249204Y0056638D02*
X0248136Y0057705D01*
X0246001Y0057705D01*
X0244933Y0056638D01*
X0244933Y0052368D01*
X0251379Y0051300D02*
X0251379Y0057705D01*
X0255649Y0051300D01*
X0255649Y0057705D01*
X0257824Y0057705D02*
X0257824Y0051300D01*
X0262095Y0051300D01*
X0264270Y0051300D02*
X0267473Y0051300D01*
X0268540Y0052368D01*
X0268540Y0056638D01*
X0267473Y0057705D01*
X0264270Y0057705D01*
X0264270Y0051300D01*
X0259960Y0054503D02*
X0257824Y0054503D01*
X0257824Y0057705D02*
X0262095Y0057705D01*
X0259973Y0047705D02*
X0259973Y0041300D01*
X0264243Y0041300D01*
X0266418Y0041300D02*
X0269621Y0041300D01*
X0270689Y0042368D01*
X0270689Y0046638D01*
X0269621Y0047705D01*
X0266418Y0047705D01*
X0266418Y0041300D01*
X0268554Y0037205D02*
X0270689Y0035070D01*
X0270689Y0030800D01*
X0272864Y0031868D02*
X0273932Y0030800D01*
X0276067Y0030800D01*
X0277134Y0031868D01*
X0279309Y0030800D02*
X0279309Y0037205D01*
X0277134Y0036138D02*
X0276067Y0037205D01*
X0273932Y0037205D01*
X0272864Y0036138D01*
X0272864Y0031868D01*
X0270689Y0034003D02*
X0266418Y0034003D01*
X0266418Y0035070D02*
X0268554Y0037205D01*
X0266418Y0035070D02*
X0266418Y0030800D01*
X0264243Y0030800D02*
X0259973Y0030800D01*
X0259973Y0037205D01*
X0264243Y0037205D01*
X0262108Y0034003D02*
X0259973Y0034003D01*
X0257798Y0035070D02*
X0256730Y0034003D01*
X0253527Y0034003D01*
X0251352Y0036138D02*
X0251352Y0037205D01*
X0251352Y0036138D02*
X0249217Y0034003D01*
X0249217Y0030800D01*
X0244907Y0030800D02*
X0240636Y0030800D01*
X0240636Y0037205D01*
X0244907Y0037205D01*
X0247082Y0037205D02*
X0247082Y0036138D01*
X0249217Y0034003D01*
X0253527Y0037205D02*
X0256730Y0037205D01*
X0257798Y0036138D01*
X0257798Y0035070D01*
X0256730Y0034003D02*
X0257798Y0032935D01*
X0257798Y0031868D01*
X0256730Y0030800D01*
X0253527Y0030800D01*
X0253527Y0037205D01*
X0254595Y0041300D02*
X0256730Y0041300D01*
X0257798Y0042368D01*
X0259973Y0044503D02*
X0262108Y0044503D01*
X0264243Y0047705D02*
X0259973Y0047705D01*
X0257798Y0046638D02*
X0256730Y0047705D01*
X0254595Y0047705D01*
X0253527Y0046638D01*
X0253527Y0042368D01*
X0254595Y0041300D01*
X0251352Y0041300D02*
X0251352Y0047705D01*
X0247082Y0047705D02*
X0251352Y0041300D01*
X0247082Y0041300D02*
X0247082Y0047705D01*
X0244907Y0045570D02*
X0244907Y0041300D01*
X0244907Y0044503D02*
X0240636Y0044503D01*
X0240636Y0045570D02*
X0240636Y0041300D01*
X0238461Y0041300D02*
X0238461Y0047705D01*
X0240636Y0045570D02*
X0242772Y0047705D01*
X0244907Y0045570D01*
X0238461Y0044503D02*
X0234191Y0044503D01*
X0234191Y0047705D02*
X0234191Y0041300D01*
X0232016Y0041300D02*
X0232016Y0047705D01*
X0227745Y0047705D02*
X0232016Y0041300D01*
X0227745Y0041300D02*
X0227745Y0047705D01*
X0225570Y0047705D02*
X0221300Y0047705D01*
X0221300Y0041300D01*
X0225570Y0041300D01*
X0223435Y0044503D02*
X0221300Y0044503D01*
X0223435Y0037205D02*
X0225570Y0035070D01*
X0225570Y0030800D01*
X0227745Y0030800D02*
X0232016Y0030800D01*
X0234191Y0030800D02*
X0238461Y0030800D01*
X0234191Y0030800D02*
X0234191Y0037205D01*
X0240636Y0034003D02*
X0242772Y0034003D01*
X0227745Y0037205D02*
X0227745Y0030800D01*
X0221300Y0030800D02*
X0221300Y0035070D01*
X0223435Y0037205D01*
X0221300Y0034003D02*
X0225570Y0034003D01*
X0227745Y0054503D02*
X0229881Y0054503D01*
X0232016Y0057705D02*
X0227745Y0057705D01*
X0277161Y0057705D02*
X0277161Y0051300D01*
X0280364Y0051300D01*
X0281431Y0052368D01*
X0281431Y0053435D01*
X0280364Y0054503D01*
X0277161Y0054503D01*
X0277161Y0057705D02*
X0280364Y0057705D01*
X0281431Y0056638D01*
X0281431Y0055570D01*
X0280364Y0054503D01*
X0283606Y0056638D02*
X0285742Y0054503D01*
X0285742Y0051300D01*
X0285742Y0054503D02*
X0287877Y0056638D01*
X0287877Y0057705D01*
X0283606Y0057705D02*
X0283606Y0056638D01*
X0296497Y0052368D02*
X0297565Y0051300D01*
X0298633Y0051300D01*
X0299700Y0052368D01*
X0299700Y0057705D01*
X0298633Y0057705D02*
X0300768Y0057705D01*
X0302943Y0057705D02*
X0302943Y0051300D01*
X0302943Y0053435D02*
X0307213Y0057705D01*
X0309388Y0057705D02*
X0309388Y0051300D01*
X0311524Y0053435D01*
X0313659Y0051300D01*
X0313659Y0057705D01*
X0307213Y0051300D02*
X0304011Y0054503D01*
X0290025Y0047705D02*
X0290025Y0046638D01*
X0287890Y0044503D01*
X0287890Y0041300D01*
X0287890Y0044503D02*
X0285755Y0046638D01*
X0285755Y0047705D01*
X0283580Y0046638D02*
X0283580Y0045570D01*
X0282512Y0044503D01*
X0279309Y0044503D01*
X0279309Y0047705D02*
X0279309Y0041300D01*
X0282512Y0041300D01*
X0283580Y0042368D01*
X0283580Y0043435D01*
X0282512Y0044503D01*
X0283580Y0046638D02*
X0282512Y0047705D01*
X0279309Y0047705D01*
X0283580Y0037205D02*
X0283580Y0030800D01*
X0285755Y0030800D02*
X0290025Y0030800D01*
X0292200Y0030800D02*
X0296471Y0030800D01*
X0298646Y0030800D02*
X0302916Y0030800D01*
X0305091Y0031868D02*
X0306159Y0030800D01*
X0308294Y0030800D01*
X0309362Y0031868D01*
X0309362Y0036138D02*
X0308294Y0037205D01*
X0306159Y0037205D01*
X0305091Y0036138D01*
X0305091Y0031868D01*
X0300781Y0034003D02*
X0298646Y0034003D01*
X0298646Y0037205D02*
X0298646Y0030800D01*
X0292200Y0030800D02*
X0292200Y0037205D01*
X0290025Y0037205D02*
X0285755Y0037205D01*
X0285755Y0030800D01*
X0285755Y0034003D02*
X0287890Y0034003D01*
X0283580Y0034003D02*
X0279309Y0034003D01*
X0298646Y0037205D02*
X0302916Y0037205D01*
X0311537Y0037205D02*
X0315807Y0037205D01*
X0313672Y0037205D02*
X0313672Y0030800D01*
X0317982Y0030800D02*
X0317982Y0037205D01*
X0321185Y0037205D01*
X0322253Y0036138D01*
X0322253Y0034003D01*
X0321185Y0032935D01*
X0317982Y0032935D01*
X0320118Y0032935D02*
X0322253Y0030800D01*
X0324428Y0030800D02*
X0326563Y0030800D01*
X0325496Y0030800D02*
X0325496Y0037205D01*
X0326563Y0037205D02*
X0324428Y0037205D01*
X0328725Y0036138D02*
X0328725Y0031868D01*
X0329793Y0030800D01*
X0331928Y0030800D01*
X0332995Y0031868D01*
X0332995Y0036138D02*
X0331928Y0037205D01*
X0329793Y0037205D01*
X0328725Y0036138D01*
X0070220Y0035260D02*
X0070220Y0034260D01*
X0069220Y0034260D01*
X0069220Y0032425D02*
X0070220Y0032425D01*
X0070220Y0031425D01*
X0065220Y0032425D02*
X0064220Y0032425D01*
X0064220Y0031425D01*
X0064220Y0034260D02*
X0064220Y0035260D01*
X0064220Y0034260D02*
X0065220Y0034260D01*
X0064220Y0039260D02*
X0064220Y0040260D01*
X0065220Y0040260D01*
X0069220Y0040260D02*
X0070220Y0040260D01*
X0070220Y0039260D01*
X0070220Y0027425D02*
X0070220Y0026425D01*
X0069220Y0026425D01*
X0065220Y0026425D02*
X0064220Y0026425D01*
X0064220Y0027425D01*
D13*
X0112614Y0160055D02*
X0202772Y0160055D01*
X0202772Y0162811D01*
X0201591Y0162811D01*
X0201591Y0163992D01*
X0113795Y0163992D01*
X0113795Y0162811D01*
X0112614Y0162811D01*
X0112614Y0160055D01*
X0118520Y0162811D02*
X0120094Y0162811D01*
X0119307Y0161236D01*
X0118520Y0162811D01*
X0118776Y0162299D02*
X0119839Y0162299D01*
X0119439Y0161501D02*
X0119175Y0161501D01*
X0113795Y0163992D02*
X0112614Y0163992D01*
X0112614Y0165567D01*
X0112614Y0177378D02*
X0112614Y0181315D01*
X0117339Y0181315D01*
X0094110Y0184858D02*
X0094110Y0188795D01*
X0089386Y0188795D01*
X0079543Y0188795D02*
X0074819Y0188795D01*
X0074819Y0184858D01*
X0074819Y0173047D02*
X0074819Y0171472D01*
X0076000Y0171472D01*
X0092929Y0171472D01*
X0094110Y0171472D01*
X0094110Y0173047D01*
X0092929Y0171472D02*
X0092929Y0170291D01*
X0094110Y0170291D01*
X0094110Y0167535D01*
X0074819Y0167535D01*
X0074819Y0170291D01*
X0076000Y0170291D01*
X0076000Y0171472D01*
X0080724Y0170291D02*
X0082299Y0170291D01*
X0081512Y0168717D01*
X0080724Y0170291D01*
X0080728Y0170284D02*
X0082296Y0170284D01*
X0081896Y0169486D02*
X0081127Y0169486D01*
X0073244Y0211433D02*
X0070488Y0211433D01*
X0070488Y0212614D01*
X0069307Y0212614D01*
X0069307Y0241354D01*
X0069307Y0242535D01*
X0067732Y0242535D01*
X0069307Y0241354D02*
X0070488Y0241354D01*
X0070488Y0242535D01*
X0073244Y0242535D01*
X0073244Y0211433D01*
X0069307Y0211433D02*
X0067732Y0211433D01*
X0069307Y0211433D02*
X0069307Y0212614D01*
X0070488Y0217339D02*
X0070488Y0218913D01*
X0072063Y0218126D01*
X0070488Y0217339D01*
X0070488Y0217397D02*
X0070604Y0217397D01*
X0070488Y0218195D02*
X0071925Y0218195D01*
X0055921Y0211433D02*
X0051984Y0211433D01*
X0051984Y0216157D01*
X0051984Y0237811D02*
X0051984Y0242535D01*
X0055921Y0242535D01*
X0112400Y0223200D02*
X0115100Y0220700D01*
X0114800Y0220200D01*
X0112500Y0222500D01*
X0112500Y0221600D01*
X0114800Y0219400D01*
X0114700Y0218800D01*
X0112500Y0220800D01*
X0112800Y0219900D01*
X0118100Y0215300D01*
X0116700Y0215800D01*
X0113100Y0219100D01*
X0115600Y0216100D01*
X0116700Y0217100D02*
X0118800Y0215400D01*
X0119500Y0215400D02*
X0117600Y0217200D01*
X0117800Y0217700D02*
X0120300Y0215600D01*
X0121100Y0215700D02*
X0118300Y0218300D01*
X0118700Y0218600D02*
X0121500Y0216200D01*
X0122400Y0216000D02*
X0119000Y0219300D01*
X0117100Y0217500D01*
X0116500Y0217500D01*
X0115100Y0218900D01*
X0115100Y0220000D01*
X0116700Y0221600D01*
X0113000Y0225300D01*
X0112900Y0224600D02*
X0115800Y0221600D01*
X0115700Y0221000D02*
X0112800Y0223800D01*
X0115300Y0227500D02*
X0118900Y0223900D01*
X0121600Y0226600D01*
X0122500Y0226500D01*
X0123800Y0225200D01*
X0123900Y0224100D01*
X0123200Y0223400D01*
X0125200Y0223100D01*
X0125300Y0222500D02*
X0123100Y0222800D01*
X0123200Y0223400D02*
X0121300Y0221500D01*
X0124500Y0218200D01*
X0124400Y0218800D02*
X0124100Y0219300D01*
X0124600Y0219500D02*
X0123400Y0219900D01*
X0122700Y0220600D02*
X0125100Y0220000D01*
X0125200Y0220600D02*
X0122100Y0221200D01*
X0121700Y0221700D02*
X0125200Y0221200D01*
X0125600Y0221800D02*
X0122400Y0222200D01*
X0124100Y0223800D02*
X0124800Y0223700D01*
X0124900Y0224400D02*
X0124200Y0224500D01*
X0124100Y0225100D02*
X0124700Y0225000D01*
X0123800Y0225900D02*
X0122900Y0226700D01*
X0122700Y0226900D02*
X0116100Y0227000D01*
X0115900Y0227600D02*
X0122000Y0227400D01*
X0121000Y0227900D02*
X0117000Y0228000D01*
X0116900Y0226400D02*
X0120900Y0226400D01*
X0120400Y0225900D02*
X0117400Y0225900D01*
X0117800Y0225300D02*
X0119600Y0225300D01*
X0119200Y0224800D02*
X0118600Y0224700D01*
X0113000Y0225300D02*
X0112915Y0225158D01*
X0112834Y0225014D01*
X0112756Y0224867D01*
X0112682Y0224719D01*
X0112611Y0224570D01*
X0112544Y0224418D01*
X0112481Y0224265D01*
X0112422Y0224111D01*
X0112366Y0223955D01*
X0112314Y0223798D01*
X0112266Y0223639D01*
X0112222Y0223480D01*
X0112182Y0223319D01*
X0112146Y0223158D01*
X0112113Y0222995D01*
X0112085Y0222832D01*
X0112060Y0222669D01*
X0112040Y0222504D01*
X0112024Y0222340D01*
X0112011Y0222174D01*
X0112003Y0222009D01*
X0111999Y0221844D01*
X0111998Y0221678D01*
X0112002Y0221513D01*
X0112010Y0221347D01*
X0112022Y0221182D01*
X0112038Y0221017D01*
X0112058Y0220853D01*
X0112081Y0220689D01*
X0112109Y0220526D01*
X0112141Y0220364D01*
X0112177Y0220202D01*
X0112217Y0220041D01*
X0112260Y0219882D01*
X0112308Y0219723D01*
X0112359Y0219566D01*
X0112414Y0219410D01*
X0112473Y0219255D01*
X0112536Y0219102D01*
X0112602Y0218950D01*
X0112672Y0218800D01*
X0112746Y0218652D01*
X0112823Y0218506D01*
X0112904Y0218361D01*
X0112989Y0218219D01*
X0113076Y0218078D01*
X0113168Y0217940D01*
X0113262Y0217804D01*
X0113360Y0217671D01*
X0113461Y0217540D01*
X0113565Y0217411D01*
X0113673Y0217285D01*
X0113783Y0217162D01*
X0113896Y0217041D01*
X0114012Y0216923D01*
X0114132Y0216808D01*
X0114253Y0216696D01*
X0114378Y0216587D01*
X0114505Y0216481D01*
X0114635Y0216378D01*
X0114767Y0216279D01*
X0114902Y0216182D01*
X0115038Y0216089D01*
X0115178Y0215999D01*
X0115319Y0215913D01*
X0115462Y0215830D01*
X0115607Y0215751D01*
X0115755Y0215675D01*
X0115904Y0215603D01*
X0116054Y0215535D01*
X0116207Y0215470D01*
X0116361Y0215409D01*
X0116516Y0215351D01*
X0116673Y0215298D01*
X0116830Y0215248D01*
X0116990Y0215203D01*
X0117150Y0215161D01*
X0117311Y0215123D01*
X0117473Y0215089D01*
X0117636Y0215059D01*
X0117799Y0215032D01*
X0117963Y0215010D01*
X0118128Y0214992D01*
X0118293Y0214978D01*
X0118458Y0214968D01*
X0118623Y0214962D01*
X0118789Y0214960D01*
X0118954Y0214962D01*
X0119120Y0214968D01*
X0119285Y0214978D01*
X0119450Y0214992D01*
X0119614Y0215010D01*
X0119778Y0215033D01*
X0119942Y0215059D01*
X0120105Y0215089D01*
X0120267Y0215123D01*
X0120428Y0215161D01*
X0120588Y0215203D01*
X0120747Y0215249D01*
X0120905Y0215298D01*
X0121061Y0215352D01*
X0121217Y0215409D01*
X0121371Y0215470D01*
X0121523Y0215535D01*
X0121674Y0215604D01*
X0121823Y0215676D01*
X0121970Y0215752D01*
X0122115Y0215831D01*
X0122258Y0215914D01*
X0122400Y0216000D01*
X0121500Y0217200D02*
X0121617Y0217269D01*
X0121731Y0217341D01*
X0121844Y0217417D01*
X0121954Y0217496D01*
X0122062Y0217578D01*
X0122168Y0217662D01*
X0122271Y0217750D01*
X0122372Y0217840D01*
X0122471Y0217933D01*
X0122567Y0218029D01*
X0122660Y0218128D01*
X0122750Y0218229D01*
X0122838Y0218332D01*
X0122922Y0218438D01*
X0123004Y0218546D01*
X0123083Y0218656D01*
X0123159Y0218769D01*
X0123231Y0218883D01*
X0123300Y0219000D01*
X0116400Y0225900D02*
X0116283Y0225831D01*
X0116169Y0225759D01*
X0116056Y0225683D01*
X0115946Y0225604D01*
X0115838Y0225522D01*
X0115732Y0225438D01*
X0115629Y0225350D01*
X0115528Y0225260D01*
X0115429Y0225167D01*
X0115333Y0225071D01*
X0115240Y0224972D01*
X0115150Y0224871D01*
X0115062Y0224768D01*
X0114978Y0224662D01*
X0114896Y0224554D01*
X0114817Y0224444D01*
X0114741Y0224331D01*
X0114669Y0224217D01*
X0114600Y0224100D01*
X0115300Y0227500D02*
X0115441Y0227585D01*
X0115584Y0227666D01*
X0115729Y0227744D01*
X0115875Y0227818D01*
X0116024Y0227889D01*
X0116174Y0227956D01*
X0116326Y0228019D01*
X0116479Y0228079D01*
X0116634Y0228134D01*
X0116790Y0228186D01*
X0116947Y0228235D01*
X0117106Y0228279D01*
X0117265Y0228320D01*
X0117425Y0228356D01*
X0117587Y0228389D01*
X0117748Y0228418D01*
X0117911Y0228442D01*
X0118074Y0228463D01*
X0118238Y0228480D01*
X0118402Y0228493D01*
X0118566Y0228502D01*
X0118730Y0228507D01*
X0118895Y0228508D01*
X0119059Y0228505D01*
X0119224Y0228498D01*
X0119388Y0228487D01*
X0119551Y0228472D01*
X0119715Y0228452D01*
X0119878Y0228429D01*
X0120040Y0228402D01*
X0120201Y0228372D01*
X0120362Y0228337D01*
X0120522Y0228298D01*
X0120681Y0228255D01*
X0120839Y0228209D01*
X0120995Y0228159D01*
X0121150Y0228104D01*
X0121304Y0228047D01*
X0121457Y0227985D01*
X0121608Y0227920D01*
X0121757Y0227851D01*
X0121905Y0227778D01*
X0122051Y0227702D01*
X0122194Y0227622D01*
X0122336Y0227539D01*
X0122476Y0227453D01*
X0122614Y0227363D01*
X0122749Y0227270D01*
X0122882Y0227173D01*
X0123013Y0227073D01*
X0123142Y0226970D01*
X0123267Y0226864D01*
X0123390Y0226755D01*
X0123511Y0226643D01*
X0123629Y0226529D01*
X0123743Y0226411D01*
X0123855Y0226290D01*
X0123964Y0226167D01*
X0124070Y0226042D01*
X0124173Y0225913D01*
X0124273Y0225782D01*
X0124370Y0225649D01*
X0124463Y0225514D01*
X0124553Y0225376D01*
X0124639Y0225236D01*
X0124722Y0225094D01*
X0124802Y0224951D01*
X0124878Y0224805D01*
X0124951Y0224657D01*
X0125020Y0224508D01*
X0125085Y0224357D01*
X0125147Y0224204D01*
X0125204Y0224050D01*
X0125259Y0223895D01*
X0125309Y0223739D01*
X0125355Y0223581D01*
X0125398Y0223422D01*
X0125437Y0223262D01*
X0125472Y0223101D01*
X0125502Y0222940D01*
X0125529Y0222778D01*
X0125552Y0222615D01*
X0125572Y0222451D01*
X0125587Y0222288D01*
X0125598Y0222124D01*
X0125605Y0221959D01*
X0125608Y0221795D01*
X0125607Y0221630D01*
X0125602Y0221466D01*
X0125593Y0221302D01*
X0125580Y0221138D01*
X0125563Y0220974D01*
X0125542Y0220811D01*
X0125518Y0220648D01*
X0125489Y0220487D01*
X0125456Y0220325D01*
X0125420Y0220165D01*
X0125379Y0220006D01*
X0125335Y0219847D01*
X0125286Y0219690D01*
X0125234Y0219534D01*
X0125179Y0219379D01*
X0125119Y0219226D01*
X0125056Y0219074D01*
X0124989Y0218924D01*
X0124918Y0218775D01*
X0124844Y0218629D01*
X0124766Y0218484D01*
X0124685Y0218341D01*
X0124600Y0218200D01*
X0198047Y0181315D02*
X0202772Y0181315D01*
X0202772Y0177378D01*
X0202772Y0165567D02*
X0202772Y0163992D01*
X0201591Y0163992D01*
X0331906Y0193323D02*
X0390567Y0193323D01*
X0390567Y0196079D01*
X0389386Y0196079D01*
X0389386Y0197260D01*
X0333087Y0197260D01*
X0333087Y0196079D01*
X0331906Y0196079D01*
X0331906Y0193323D01*
X0331906Y0197260D02*
X0331906Y0198835D01*
X0331906Y0197260D02*
X0333087Y0197260D01*
X0337811Y0196079D02*
X0339386Y0196079D01*
X0338598Y0194504D01*
X0337811Y0196079D01*
X0337932Y0195837D02*
X0339265Y0195837D01*
X0338866Y0195038D02*
X0338331Y0195038D01*
X0331906Y0210646D02*
X0331906Y0214583D01*
X0336630Y0214583D01*
X0385843Y0214583D02*
X0390567Y0214583D01*
X0390567Y0210646D01*
X0390567Y0198835D02*
X0390567Y0197260D01*
X0389386Y0197260D01*
D14*
X0056944Y0030405D02*
X0056944Y0027503D01*
X0056944Y0028470D02*
X0058395Y0028470D01*
X0058879Y0028954D01*
X0058879Y0029921D01*
X0058395Y0030405D01*
X0056944Y0030405D01*
X0057911Y0028470D02*
X0058879Y0027503D01*
X0059890Y0028954D02*
X0061825Y0028954D01*
X0060858Y0036215D02*
X0060858Y0038150D01*
X0059890Y0037182D02*
X0061825Y0037182D01*
X0058879Y0037182D02*
X0058395Y0036699D01*
X0056944Y0036699D01*
X0057911Y0036699D02*
X0058879Y0035731D01*
X0058879Y0037182D02*
X0058879Y0038150D01*
X0058395Y0038634D01*
X0056944Y0038634D01*
X0056944Y0035731D01*
X0051443Y0189471D02*
X0051927Y0189955D01*
X0051927Y0190922D01*
X0050959Y0190922D01*
X0049992Y0189955D02*
X0050475Y0189471D01*
X0051443Y0189471D01*
X0049992Y0189955D02*
X0049992Y0191890D01*
X0050475Y0192374D01*
X0051443Y0192374D01*
X0051927Y0191890D01*
D15*
X0234508Y0157350D03*
X0235689Y0153512D03*
X0235787Y0153413D03*
X0243366Y0160500D03*
X0252421Y0124181D03*
X0252224Y0124083D03*
X0243366Y0120933D03*
X0234508Y0124083D03*
D16*
X0243366Y0121031D03*
X0238150Y0135205D03*
X0248583Y0135500D03*
X0250059Y0137665D03*
X0243366Y0160402D03*
D17*
X0238199Y0158630D03*
X0248533Y0158630D03*
X0237313Y0144260D03*
X0249419Y0135697D03*
X0243317Y0121130D03*
D18*
X0243366Y0121228D03*
X0247402Y0141406D03*
X0243366Y0160205D03*
D19*
X0243317Y0160106D03*
X0235443Y0136484D03*
X0243317Y0121327D03*
D20*
X0243366Y0121425D03*
X0251339Y0136583D03*
X0243366Y0160008D03*
D21*
X0243366Y0159909D03*
X0243366Y0121524D03*
D22*
X0243366Y0121622D03*
X0243366Y0132449D03*
X0243366Y0159811D03*
D23*
X0243366Y0159713D03*
X0243366Y0132547D03*
X0243366Y0121720D03*
D24*
X0243366Y0121819D03*
X0243366Y0132646D03*
X0243366Y0159614D03*
D25*
X0243366Y0159516D03*
X0243366Y0121917D03*
D26*
X0243366Y0122016D03*
X0243366Y0133039D03*
X0243366Y0147803D03*
X0243366Y0159417D03*
D27*
X0243366Y0159319D03*
X0243366Y0147606D03*
X0234803Y0142882D03*
X0243366Y0122114D03*
D28*
X0243366Y0122213D03*
X0243366Y0133531D03*
X0243366Y0147311D03*
X0243366Y0159220D03*
D29*
X0243366Y0159122D03*
X0243366Y0147016D03*
X0243366Y0133827D03*
X0243366Y0133728D03*
X0243366Y0122311D03*
D30*
X0243366Y0122409D03*
X0243366Y0134319D03*
X0243366Y0134417D03*
X0243366Y0146425D03*
D31*
X0243366Y0135008D03*
X0243366Y0122508D03*
X0243366Y0158925D03*
D32*
X0243366Y0158827D03*
X0243366Y0122606D03*
D33*
X0243366Y0122705D03*
X0243366Y0158728D03*
D34*
X0249469Y0135894D03*
X0249469Y0135795D03*
X0238150Y0122803D03*
D35*
X0248435Y0122803D03*
X0237411Y0144063D03*
X0247746Y0146228D03*
D36*
X0248238Y0143669D03*
X0249715Y0138846D03*
X0238494Y0143177D03*
X0237018Y0145146D03*
X0237018Y0135894D03*
X0237608Y0122902D03*
X0249026Y0122902D03*
X0237608Y0158531D03*
D37*
X0240413Y0156760D03*
X0240315Y0156563D03*
X0240315Y0156465D03*
X0240413Y0156268D03*
X0241102Y0155480D03*
X0241102Y0155382D03*
X0241102Y0155283D03*
X0241102Y0155185D03*
X0241102Y0155087D03*
X0241102Y0154988D03*
X0241102Y0154890D03*
X0241102Y0154791D03*
X0241102Y0154693D03*
X0241102Y0154594D03*
X0241102Y0154496D03*
X0241102Y0154398D03*
X0241102Y0154299D03*
X0241102Y0154201D03*
X0241102Y0154102D03*
X0241102Y0154004D03*
X0241102Y0153906D03*
X0241102Y0153807D03*
X0241102Y0153709D03*
X0241102Y0153610D03*
X0241102Y0153512D03*
X0241102Y0153413D03*
X0241102Y0153315D03*
X0241102Y0153217D03*
X0241102Y0153118D03*
X0241102Y0153020D03*
X0241102Y0152921D03*
X0241102Y0152823D03*
X0241102Y0152724D03*
X0241102Y0152626D03*
X0241102Y0152528D03*
X0241102Y0152429D03*
X0241102Y0152331D03*
X0241102Y0152232D03*
X0241102Y0152134D03*
X0241102Y0152035D03*
X0241102Y0151937D03*
X0241102Y0151839D03*
X0241102Y0151740D03*
X0241102Y0151642D03*
X0241102Y0151543D03*
X0241102Y0151445D03*
X0241102Y0151346D03*
X0241102Y0151248D03*
X0241102Y0151150D03*
X0241102Y0151051D03*
X0241102Y0150953D03*
X0241102Y0150854D03*
X0241102Y0150756D03*
X0241102Y0150657D03*
X0241102Y0150559D03*
X0241102Y0150461D03*
X0241102Y0150362D03*
X0241102Y0150264D03*
X0243169Y0150264D03*
X0243169Y0150362D03*
X0243169Y0150461D03*
X0243169Y0150559D03*
X0243169Y0150657D03*
X0243169Y0150756D03*
X0243169Y0150854D03*
X0243169Y0150953D03*
X0243169Y0151051D03*
X0243169Y0151150D03*
X0243169Y0151248D03*
X0243169Y0151346D03*
X0243169Y0151445D03*
X0243169Y0151543D03*
X0243169Y0151642D03*
X0243169Y0151740D03*
X0243169Y0151839D03*
X0243169Y0151937D03*
X0243169Y0152035D03*
X0243169Y0152134D03*
X0243169Y0152232D03*
X0243169Y0152331D03*
X0243169Y0152429D03*
X0243169Y0152528D03*
X0243169Y0152626D03*
X0243169Y0152724D03*
X0243169Y0152823D03*
X0243169Y0152921D03*
X0243169Y0153020D03*
X0243169Y0153118D03*
X0243169Y0153217D03*
X0243169Y0153315D03*
X0243169Y0153413D03*
X0243169Y0153512D03*
X0243169Y0153610D03*
X0243169Y0153709D03*
X0243169Y0153807D03*
X0243169Y0153906D03*
X0243169Y0154004D03*
X0243169Y0154102D03*
X0243169Y0154201D03*
X0243169Y0154299D03*
X0243169Y0154398D03*
X0243169Y0154496D03*
X0243169Y0154594D03*
X0243169Y0154693D03*
X0243169Y0154791D03*
X0243169Y0154890D03*
X0243169Y0154988D03*
X0243169Y0155087D03*
X0243169Y0155185D03*
X0243169Y0155283D03*
X0243169Y0155382D03*
X0243169Y0155480D03*
X0243169Y0155579D03*
X0243169Y0155677D03*
X0243169Y0155776D03*
X0243169Y0155874D03*
X0243169Y0155972D03*
X0243169Y0156071D03*
X0243169Y0156169D03*
X0243169Y0156268D03*
X0243169Y0156366D03*
X0243169Y0156465D03*
X0243169Y0156563D03*
X0243169Y0156661D03*
X0243169Y0156760D03*
X0243169Y0156858D03*
X0243169Y0156957D03*
X0243169Y0157055D03*
X0243169Y0157154D03*
X0243169Y0157252D03*
X0243169Y0157350D03*
X0243169Y0157449D03*
X0243169Y0157547D03*
X0243169Y0157646D03*
X0243169Y0157744D03*
X0243169Y0157843D03*
X0243169Y0157941D03*
X0243169Y0158039D03*
X0243169Y0158138D03*
X0243169Y0158236D03*
X0243169Y0158335D03*
X0243169Y0158433D03*
X0243169Y0158531D03*
X0243169Y0158630D03*
X0241791Y0156661D03*
X0241791Y0156563D03*
X0241791Y0156465D03*
X0241791Y0156366D03*
X0245236Y0155480D03*
X0245236Y0155382D03*
X0245236Y0155283D03*
X0245236Y0155185D03*
X0245236Y0155087D03*
X0245236Y0154988D03*
X0245236Y0154890D03*
X0245236Y0154791D03*
X0245236Y0154693D03*
X0245236Y0154594D03*
X0245236Y0154496D03*
X0245236Y0154398D03*
X0245236Y0154299D03*
X0245236Y0154201D03*
X0245236Y0154102D03*
X0245236Y0154004D03*
X0245236Y0153906D03*
X0245236Y0153807D03*
X0245236Y0153709D03*
X0245236Y0153610D03*
X0245236Y0153512D03*
X0245236Y0153413D03*
X0245236Y0153315D03*
X0245236Y0153217D03*
X0245236Y0153118D03*
X0245236Y0153020D03*
X0245236Y0152921D03*
X0245236Y0152823D03*
X0245236Y0152724D03*
X0245236Y0152626D03*
X0245236Y0152528D03*
X0245236Y0152429D03*
X0245236Y0152331D03*
X0245236Y0152232D03*
X0245236Y0152134D03*
X0245236Y0152035D03*
X0245236Y0151937D03*
X0245236Y0151839D03*
X0245236Y0151740D03*
X0245236Y0151642D03*
X0245236Y0151543D03*
X0245236Y0151445D03*
X0245236Y0151346D03*
X0245236Y0151248D03*
X0245236Y0151150D03*
X0245236Y0151051D03*
X0245236Y0150953D03*
X0245236Y0150854D03*
X0245236Y0150756D03*
X0245236Y0150657D03*
X0245236Y0150559D03*
X0245236Y0150461D03*
X0245236Y0150362D03*
X0245236Y0150264D03*
X0247402Y0150264D03*
X0247402Y0150362D03*
X0247402Y0150461D03*
X0247402Y0150559D03*
X0247402Y0150657D03*
X0247402Y0150756D03*
X0247402Y0150854D03*
X0247402Y0150953D03*
X0247402Y0151051D03*
X0247402Y0151150D03*
X0247402Y0151248D03*
X0247402Y0151346D03*
X0247402Y0151445D03*
X0247402Y0151543D03*
X0247402Y0151642D03*
X0247402Y0151740D03*
X0247402Y0151839D03*
X0247402Y0151937D03*
X0247402Y0152035D03*
X0247402Y0152134D03*
X0247402Y0152232D03*
X0247402Y0152331D03*
X0247402Y0152429D03*
X0247402Y0152528D03*
X0247402Y0152626D03*
X0247402Y0152724D03*
X0247402Y0152823D03*
X0247402Y0152921D03*
X0247402Y0153020D03*
X0247402Y0153118D03*
X0247402Y0153217D03*
X0247402Y0153315D03*
X0247402Y0153413D03*
X0247402Y0153512D03*
X0247402Y0153610D03*
X0247402Y0153709D03*
X0247402Y0153807D03*
X0247402Y0153906D03*
X0247402Y0154004D03*
X0247402Y0154102D03*
X0247402Y0154201D03*
X0238937Y0151543D03*
X0238937Y0151445D03*
X0238937Y0151346D03*
X0238937Y0151248D03*
X0238937Y0151150D03*
X0238937Y0151051D03*
X0238937Y0150953D03*
X0238937Y0150854D03*
X0238937Y0150756D03*
X0238937Y0150657D03*
X0238937Y0150559D03*
X0238937Y0150461D03*
X0238937Y0150362D03*
X0238937Y0150264D03*
X0233425Y0152134D03*
X0232736Y0153020D03*
X0232736Y0153118D03*
X0232736Y0153217D03*
X0232736Y0153315D03*
X0227224Y0138256D03*
X0227224Y0138157D03*
X0228012Y0137173D03*
X0238937Y0131169D03*
X0238937Y0131071D03*
X0238937Y0130972D03*
X0238937Y0130874D03*
X0238937Y0130776D03*
X0238937Y0130677D03*
X0238937Y0130579D03*
X0238937Y0130480D03*
X0238937Y0130382D03*
X0238937Y0130283D03*
X0238937Y0130185D03*
X0238937Y0130087D03*
X0238937Y0129988D03*
X0238937Y0129890D03*
X0238937Y0129791D03*
X0238937Y0129693D03*
X0238937Y0129594D03*
X0238937Y0129496D03*
X0238937Y0129398D03*
X0238937Y0129299D03*
X0238937Y0129201D03*
X0238937Y0129102D03*
X0238937Y0129004D03*
X0238937Y0128906D03*
X0238937Y0128807D03*
X0238937Y0128709D03*
X0238937Y0128610D03*
X0238937Y0128512D03*
X0238937Y0128413D03*
X0238937Y0128315D03*
X0241102Y0128315D03*
X0241102Y0128413D03*
X0241102Y0128512D03*
X0241102Y0128610D03*
X0241102Y0128709D03*
X0241102Y0128807D03*
X0241102Y0128906D03*
X0241102Y0129004D03*
X0241102Y0129102D03*
X0241102Y0129201D03*
X0241102Y0129299D03*
X0241102Y0129398D03*
X0241102Y0129496D03*
X0241102Y0129594D03*
X0241102Y0129693D03*
X0241102Y0129791D03*
X0241102Y0129890D03*
X0241102Y0129988D03*
X0241102Y0130087D03*
X0241102Y0130185D03*
X0241102Y0130283D03*
X0241102Y0130382D03*
X0241102Y0130480D03*
X0241102Y0130579D03*
X0241102Y0130677D03*
X0241102Y0130776D03*
X0241102Y0130874D03*
X0241102Y0130972D03*
X0241102Y0131071D03*
X0241102Y0131169D03*
X0243169Y0131169D03*
X0243169Y0131071D03*
X0243169Y0130972D03*
X0243169Y0130874D03*
X0243169Y0130776D03*
X0243169Y0130677D03*
X0243169Y0130579D03*
X0243169Y0130480D03*
X0243169Y0130382D03*
X0243169Y0130283D03*
X0243169Y0130185D03*
X0243169Y0130087D03*
X0243169Y0129988D03*
X0243169Y0129890D03*
X0243169Y0129791D03*
X0243169Y0129693D03*
X0243169Y0129594D03*
X0243169Y0129496D03*
X0243169Y0129398D03*
X0243169Y0129299D03*
X0243169Y0129201D03*
X0243169Y0129102D03*
X0243169Y0129004D03*
X0243169Y0128906D03*
X0243169Y0128807D03*
X0243169Y0128709D03*
X0243169Y0128610D03*
X0243169Y0128512D03*
X0243169Y0128413D03*
X0243169Y0128315D03*
X0243169Y0128217D03*
X0243169Y0128118D03*
X0243169Y0128020D03*
X0243169Y0127921D03*
X0243169Y0127823D03*
X0243169Y0127724D03*
X0243169Y0127626D03*
X0243169Y0127528D03*
X0243169Y0127429D03*
X0243169Y0127331D03*
X0243169Y0127232D03*
X0243169Y0127134D03*
X0243169Y0127035D03*
X0243169Y0126937D03*
X0243169Y0126839D03*
X0243169Y0126740D03*
X0243169Y0126642D03*
X0243169Y0126543D03*
X0243169Y0126445D03*
X0243169Y0126346D03*
X0243858Y0125362D03*
X0243858Y0125264D03*
X0243858Y0125165D03*
X0243858Y0125067D03*
X0245236Y0125067D03*
X0245236Y0125165D03*
X0245236Y0125264D03*
X0245236Y0125362D03*
X0245236Y0125461D03*
X0245236Y0125559D03*
X0245236Y0125657D03*
X0245236Y0125756D03*
X0245236Y0125854D03*
X0245236Y0125953D03*
X0245236Y0126051D03*
X0245236Y0126150D03*
X0245236Y0126248D03*
X0245236Y0126346D03*
X0245236Y0126445D03*
X0245236Y0126543D03*
X0245236Y0126642D03*
X0245236Y0126740D03*
X0245236Y0126839D03*
X0245236Y0126937D03*
X0245236Y0127035D03*
X0245236Y0127134D03*
X0245236Y0127232D03*
X0245236Y0127331D03*
X0245236Y0127429D03*
X0245236Y0127528D03*
X0245236Y0127626D03*
X0245236Y0127724D03*
X0245236Y0127823D03*
X0245236Y0127921D03*
X0245236Y0128020D03*
X0245236Y0128118D03*
X0245236Y0128217D03*
X0245236Y0128315D03*
X0245236Y0128413D03*
X0245236Y0128512D03*
X0245236Y0128610D03*
X0245236Y0128709D03*
X0245236Y0128807D03*
X0245236Y0128906D03*
X0245236Y0129004D03*
X0245236Y0129102D03*
X0245236Y0129201D03*
X0245236Y0129299D03*
X0245236Y0129398D03*
X0245236Y0129496D03*
X0245236Y0129594D03*
X0245236Y0129693D03*
X0245236Y0129791D03*
X0245236Y0129890D03*
X0245236Y0129988D03*
X0245236Y0130087D03*
X0245236Y0130185D03*
X0245236Y0130283D03*
X0245236Y0130382D03*
X0245236Y0130480D03*
X0245236Y0130579D03*
X0245236Y0130677D03*
X0245236Y0130776D03*
X0245236Y0130874D03*
X0245236Y0130972D03*
X0245236Y0131071D03*
X0245236Y0131169D03*
X0247402Y0131169D03*
X0247402Y0131071D03*
X0247402Y0130972D03*
X0247402Y0130874D03*
X0247402Y0130776D03*
X0247402Y0130677D03*
X0247402Y0130579D03*
X0247402Y0130480D03*
X0247402Y0130382D03*
X0247402Y0130283D03*
X0247402Y0130185D03*
X0247402Y0130087D03*
X0247402Y0129988D03*
X0247402Y0129890D03*
X0247402Y0129791D03*
X0247402Y0129693D03*
X0247402Y0129594D03*
X0247402Y0129496D03*
X0252815Y0128020D03*
X0252815Y0127921D03*
X0252815Y0127823D03*
X0252815Y0127724D03*
X0245236Y0124969D03*
X0245236Y0124870D03*
X0245236Y0124772D03*
X0245236Y0124673D03*
X0245236Y0124575D03*
X0245236Y0124476D03*
X0245236Y0124378D03*
X0245236Y0124280D03*
X0245236Y0124181D03*
X0245236Y0124083D03*
X0245236Y0123984D03*
X0245236Y0123886D03*
X0245236Y0123787D03*
X0245236Y0123689D03*
X0245236Y0123591D03*
X0245236Y0123492D03*
X0245236Y0123394D03*
X0245236Y0123295D03*
X0245236Y0123197D03*
X0245236Y0123098D03*
X0245236Y0123000D03*
X0245236Y0122902D03*
X0242382Y0125165D03*
X0242382Y0125264D03*
X0241102Y0127331D03*
X0241102Y0127429D03*
X0241102Y0127528D03*
X0241102Y0127626D03*
X0241102Y0127724D03*
X0241102Y0127823D03*
X0241102Y0127921D03*
X0241102Y0128020D03*
X0241102Y0128118D03*
X0241102Y0128217D03*
X0258720Y0140323D03*
X0258720Y0140421D03*
X0258720Y0140520D03*
X0258720Y0140618D03*
D38*
X0248435Y0135303D03*
X0236821Y0136780D03*
X0236821Y0138846D03*
X0238297Y0143669D03*
X0238396Y0146031D03*
X0237215Y0158433D03*
X0237215Y0123000D03*
D39*
X0249469Y0123000D03*
X0248386Y0145835D03*
X0238248Y0143768D03*
X0249469Y0158433D03*
D40*
X0249813Y0158335D03*
X0236919Y0158335D03*
X0238100Y0145835D03*
X0248632Y0145638D03*
X0250108Y0137862D03*
X0250108Y0137764D03*
X0249813Y0123098D03*
X0236919Y0123098D03*
D41*
X0236575Y0123197D03*
X0236476Y0137665D03*
X0236476Y0137764D03*
X0248780Y0145441D03*
D42*
X0248730Y0145539D03*
X0248730Y0139437D03*
X0238002Y0135402D03*
X0238002Y0145736D03*
X0236624Y0158236D03*
X0235541Y0123787D03*
X0250108Y0123197D03*
D43*
X0236280Y0123295D03*
X0235591Y0123689D03*
X0248878Y0139240D03*
X0248878Y0145343D03*
X0237854Y0145539D03*
D44*
X0237904Y0145638D03*
X0237904Y0139732D03*
X0236427Y0137862D03*
X0237904Y0135500D03*
X0248829Y0139339D03*
X0248829Y0145244D03*
X0236329Y0158138D03*
X0250404Y0123295D03*
D45*
X0250699Y0123394D03*
X0236033Y0123394D03*
X0237805Y0139634D03*
X0248927Y0139142D03*
X0248927Y0139043D03*
X0252077Y0157154D03*
X0250699Y0158039D03*
X0236033Y0158039D03*
D46*
X0235738Y0157941D03*
X0250896Y0157941D03*
X0252077Y0157252D03*
X0237707Y0145244D03*
X0237707Y0139437D03*
X0249026Y0137469D03*
X0249026Y0137370D03*
X0249026Y0137272D03*
X0249026Y0137173D03*
X0250896Y0123492D03*
X0235738Y0123492D03*
X0235640Y0123591D03*
D47*
X0251142Y0123591D03*
X0237657Y0139240D03*
X0237657Y0139339D03*
X0237657Y0145343D03*
X0235591Y0157843D03*
D48*
X0235935Y0152921D03*
X0251191Y0157843D03*
X0251388Y0157744D03*
X0237608Y0139142D03*
X0237608Y0139043D03*
X0233770Y0124772D03*
X0251388Y0123689D03*
D49*
X0251585Y0123787D03*
X0249222Y0137567D03*
X0237510Y0137370D03*
X0237510Y0137272D03*
X0237510Y0137173D03*
X0237510Y0137075D03*
X0233770Y0124673D03*
X0235935Y0153020D03*
X0235049Y0157646D03*
X0251585Y0157646D03*
D50*
X0251831Y0157547D03*
X0252028Y0157449D03*
X0235984Y0153118D03*
X0234902Y0157547D03*
X0237461Y0137469D03*
X0234902Y0123886D03*
X0251831Y0123886D03*
D51*
X0248435Y0128315D03*
X0248337Y0128413D03*
X0248238Y0128512D03*
X0248140Y0128610D03*
X0248041Y0128709D03*
X0247943Y0128807D03*
X0247844Y0128906D03*
X0247746Y0129004D03*
X0247648Y0129102D03*
X0247549Y0129201D03*
X0243711Y0124870D03*
X0240955Y0127035D03*
X0240856Y0126937D03*
X0240758Y0126839D03*
X0240659Y0126740D03*
X0240561Y0126642D03*
X0240463Y0126543D03*
X0240364Y0126445D03*
X0240266Y0126346D03*
X0240167Y0126248D03*
X0240069Y0126150D03*
X0239970Y0126051D03*
X0239872Y0125953D03*
X0239774Y0125854D03*
X0239675Y0125756D03*
X0239577Y0125657D03*
X0239478Y0125559D03*
X0239380Y0125461D03*
X0239281Y0125362D03*
X0239183Y0125264D03*
X0239085Y0125165D03*
X0238986Y0125067D03*
X0238888Y0124969D03*
X0238789Y0124870D03*
X0238691Y0124772D03*
X0238593Y0124673D03*
X0238494Y0124575D03*
X0238396Y0124476D03*
X0238297Y0124378D03*
X0238199Y0124280D03*
X0238100Y0124181D03*
X0238002Y0124083D03*
X0237904Y0123984D03*
X0237805Y0123886D03*
X0236230Y0125461D03*
X0236329Y0125559D03*
X0236427Y0125657D03*
X0236526Y0125756D03*
X0236624Y0125854D03*
X0236722Y0125953D03*
X0236821Y0126051D03*
X0236919Y0126150D03*
X0237018Y0126248D03*
X0237116Y0126346D03*
X0237215Y0126445D03*
X0237313Y0126543D03*
X0237411Y0126642D03*
X0237510Y0126740D03*
X0237608Y0126839D03*
X0237707Y0126937D03*
X0237805Y0127035D03*
X0237904Y0127134D03*
X0238002Y0127232D03*
X0238100Y0127331D03*
X0238199Y0127429D03*
X0238297Y0127528D03*
X0238396Y0127626D03*
X0238494Y0127724D03*
X0238593Y0127823D03*
X0238691Y0127921D03*
X0238789Y0128020D03*
X0236132Y0125362D03*
X0236033Y0125264D03*
X0235935Y0125165D03*
X0235837Y0125067D03*
X0235738Y0124969D03*
X0235640Y0124870D03*
X0228455Y0133433D03*
X0228553Y0133531D03*
X0228652Y0133630D03*
X0228750Y0133728D03*
X0228848Y0133827D03*
X0228947Y0133925D03*
X0229045Y0134024D03*
X0229144Y0134122D03*
X0229242Y0134220D03*
X0229341Y0134319D03*
X0229439Y0134417D03*
X0229537Y0134516D03*
X0229636Y0134614D03*
X0229734Y0134713D03*
X0229833Y0134811D03*
X0229931Y0134909D03*
X0230030Y0135008D03*
X0230128Y0135106D03*
X0230226Y0135205D03*
X0230325Y0135303D03*
X0230423Y0135402D03*
X0230522Y0135500D03*
X0230620Y0135598D03*
X0230719Y0135697D03*
X0230817Y0135795D03*
X0230915Y0135894D03*
X0232884Y0152823D03*
X0237805Y0152823D03*
X0237904Y0152724D03*
X0238002Y0152626D03*
X0238100Y0152528D03*
X0238199Y0152429D03*
X0238297Y0152331D03*
X0238396Y0152232D03*
X0238494Y0152134D03*
X0238593Y0152035D03*
X0238691Y0151937D03*
X0238789Y0151839D03*
X0245384Y0155776D03*
X0245482Y0155874D03*
X0245581Y0155972D03*
X0245679Y0156071D03*
X0245778Y0156169D03*
X0245876Y0156268D03*
X0245974Y0156366D03*
X0246073Y0156465D03*
X0246171Y0156563D03*
X0246270Y0156661D03*
X0246368Y0156760D03*
X0246467Y0156858D03*
X0246565Y0156957D03*
X0246663Y0157055D03*
X0246762Y0157154D03*
X0246860Y0157252D03*
X0246959Y0157350D03*
X0247057Y0157449D03*
X0247156Y0157547D03*
X0247254Y0157646D03*
X0247352Y0157744D03*
X0247451Y0157843D03*
X0247549Y0157941D03*
X0247648Y0158039D03*
X0247549Y0154496D03*
X0258967Y0145047D03*
X0259065Y0145146D03*
X0259163Y0145244D03*
X0259262Y0145343D03*
X0259360Y0145441D03*
X0259459Y0145539D03*
X0259557Y0145638D03*
X0259656Y0145736D03*
X0259754Y0145835D03*
X0259852Y0145933D03*
X0259951Y0146031D03*
X0258573Y0140815D03*
X0257392Y0137862D03*
X0257490Y0137764D03*
X0257589Y0137665D03*
X0257687Y0137567D03*
X0257785Y0137469D03*
X0257884Y0137370D03*
X0257982Y0137272D03*
X0258081Y0137173D03*
X0258179Y0137075D03*
X0258278Y0136976D03*
X0258376Y0136878D03*
X0258474Y0136780D03*
X0258573Y0136681D03*
X0258671Y0136583D03*
X0258770Y0136484D03*
X0258868Y0136386D03*
X0258967Y0136287D03*
X0259065Y0136189D03*
X0259852Y0135402D03*
X0258376Y0133925D03*
X0258474Y0133827D03*
X0258573Y0133728D03*
X0258671Y0133630D03*
X0258770Y0133531D03*
X0258868Y0133433D03*
X0258967Y0133335D03*
X0259065Y0133236D03*
X0258278Y0134024D03*
X0258179Y0134122D03*
X0258081Y0134220D03*
X0257982Y0134319D03*
X0257884Y0134417D03*
X0257785Y0134516D03*
X0257687Y0134614D03*
X0257589Y0134713D03*
X0257490Y0134811D03*
X0257392Y0134909D03*
X0257293Y0135008D03*
X0257195Y0135106D03*
X0257096Y0135205D03*
X0256998Y0135303D03*
X0256900Y0135402D03*
X0256801Y0135500D03*
X0256703Y0135598D03*
X0256604Y0135697D03*
X0256506Y0135795D03*
X0256407Y0135894D03*
D52*
X0252077Y0123984D03*
X0234656Y0123984D03*
X0233770Y0124575D03*
X0235935Y0153217D03*
X0235837Y0153315D03*
X0234656Y0157449D03*
D53*
X0234262Y0157252D03*
X0237313Y0137567D03*
X0234262Y0124181D03*
D54*
X0243169Y0124181D03*
D55*
X0249961Y0128217D03*
X0252618Y0124280D03*
X0252815Y0124378D03*
X0234114Y0124280D03*
X0233917Y0124378D03*
X0233819Y0124476D03*
X0233917Y0157055D03*
X0234114Y0157154D03*
X0252815Y0157055D03*
D56*
X0250059Y0157055D03*
X0249961Y0156957D03*
X0249862Y0156858D03*
X0249764Y0156760D03*
X0249665Y0156661D03*
X0249567Y0156563D03*
X0249469Y0156465D03*
X0249370Y0156366D03*
X0249272Y0156268D03*
X0249173Y0156169D03*
X0249075Y0156071D03*
X0248976Y0155972D03*
X0248878Y0155874D03*
X0248780Y0155776D03*
X0248681Y0155677D03*
X0248583Y0155579D03*
X0248484Y0155480D03*
X0248386Y0155382D03*
X0248287Y0155283D03*
X0248189Y0155185D03*
X0248091Y0155087D03*
X0247992Y0154988D03*
X0247894Y0154890D03*
X0247795Y0154791D03*
X0247697Y0154693D03*
X0247598Y0154594D03*
X0241102Y0155579D03*
X0233425Y0152232D03*
X0227717Y0146524D03*
X0227815Y0146425D03*
X0227913Y0146327D03*
X0228012Y0146228D03*
X0228110Y0146130D03*
X0228209Y0146031D03*
X0228307Y0145933D03*
X0228406Y0145835D03*
X0228504Y0145736D03*
X0228602Y0145638D03*
X0228701Y0145539D03*
X0228799Y0145441D03*
X0228898Y0145343D03*
X0228996Y0145244D03*
X0229094Y0145146D03*
X0229193Y0145047D03*
X0227717Y0143472D03*
X0227815Y0143374D03*
X0227913Y0143276D03*
X0228012Y0143177D03*
X0228110Y0143079D03*
X0228209Y0142980D03*
X0227618Y0143571D03*
X0227520Y0143669D03*
X0227421Y0143768D03*
X0227323Y0143866D03*
X0227224Y0143965D03*
X0227126Y0144063D03*
X0227028Y0144161D03*
X0226929Y0144260D03*
X0226831Y0144358D03*
X0226732Y0144457D03*
X0226634Y0144555D03*
X0226535Y0144654D03*
X0226437Y0144752D03*
X0227618Y0146622D03*
X0227520Y0146720D03*
X0227421Y0146819D03*
X0227323Y0146917D03*
X0227224Y0147016D03*
X0228012Y0137272D03*
X0228406Y0133335D03*
X0228307Y0133236D03*
X0228209Y0133138D03*
X0228110Y0133039D03*
X0228012Y0132941D03*
X0227913Y0132843D03*
X0243169Y0124280D03*
X0259213Y0136091D03*
X0259311Y0135992D03*
X0259409Y0135894D03*
X0259508Y0135795D03*
X0259606Y0135697D03*
X0259705Y0135598D03*
X0259803Y0135500D03*
D57*
X0257982Y0139634D03*
X0257982Y0141307D03*
X0252077Y0128709D03*
X0252077Y0127035D03*
X0243120Y0124378D03*
X0227963Y0137370D03*
X0233474Y0152331D03*
D58*
X0233474Y0152429D03*
X0241053Y0155776D03*
X0257982Y0141209D03*
X0257982Y0139732D03*
X0252077Y0128610D03*
X0252077Y0127134D03*
X0243120Y0124476D03*
D59*
X0252963Y0124476D03*
X0252963Y0156957D03*
X0233770Y0156957D03*
X0233573Y0156858D03*
D60*
X0233474Y0153807D03*
X0233474Y0152528D03*
X0241053Y0155874D03*
X0241053Y0157154D03*
X0257982Y0141110D03*
X0257982Y0139831D03*
X0252077Y0128512D03*
X0252077Y0127232D03*
X0243120Y0124575D03*
X0227963Y0137567D03*
D61*
X0249961Y0128118D03*
X0253110Y0124575D03*
X0253307Y0124673D03*
X0253307Y0156760D03*
X0253110Y0156858D03*
X0233425Y0156760D03*
D62*
X0233425Y0152626D03*
X0241102Y0155972D03*
X0241102Y0157055D03*
X0224862Y0144752D03*
X0224764Y0144358D03*
X0224764Y0144260D03*
X0224665Y0143866D03*
X0224665Y0143768D03*
X0224665Y0143669D03*
X0224665Y0143571D03*
X0224567Y0143276D03*
X0224567Y0143177D03*
X0224567Y0143079D03*
X0224567Y0142980D03*
X0224567Y0142882D03*
X0224567Y0142783D03*
X0224469Y0142488D03*
X0224469Y0142390D03*
X0224469Y0142291D03*
X0224469Y0142193D03*
X0224469Y0142094D03*
X0224469Y0141996D03*
X0224469Y0141898D03*
X0224469Y0141799D03*
X0224469Y0141701D03*
X0224469Y0141602D03*
X0224469Y0141504D03*
X0224469Y0141406D03*
X0224469Y0141307D03*
X0224469Y0141209D03*
X0224469Y0141110D03*
X0224469Y0141012D03*
X0224469Y0140913D03*
X0224469Y0140815D03*
X0224469Y0140028D03*
X0224469Y0139929D03*
X0224469Y0139831D03*
X0224469Y0139732D03*
X0224469Y0139634D03*
X0224469Y0139535D03*
X0224469Y0139437D03*
X0224469Y0139339D03*
X0224469Y0139240D03*
X0224469Y0139142D03*
X0224469Y0139043D03*
X0224567Y0138650D03*
X0224567Y0138551D03*
X0224567Y0138453D03*
X0224567Y0138354D03*
X0224567Y0138256D03*
X0224665Y0137862D03*
X0224665Y0137764D03*
X0224665Y0137665D03*
X0224665Y0137567D03*
X0224764Y0137173D03*
X0224764Y0137075D03*
X0224862Y0136681D03*
X0228012Y0137665D03*
X0228012Y0138846D03*
X0243169Y0125854D03*
X0243169Y0124673D03*
X0261673Y0135894D03*
X0261772Y0136287D03*
X0261870Y0136681D03*
X0261870Y0136780D03*
X0261969Y0137075D03*
X0261969Y0137173D03*
X0261969Y0137272D03*
X0262067Y0137567D03*
X0262067Y0137665D03*
X0262067Y0137764D03*
X0262067Y0137862D03*
X0262165Y0138157D03*
X0262165Y0138256D03*
X0262165Y0138354D03*
X0262165Y0138453D03*
X0262165Y0138551D03*
X0262165Y0138650D03*
X0262165Y0138748D03*
X0262264Y0138945D03*
X0262264Y0139043D03*
X0262264Y0139142D03*
X0262264Y0139240D03*
X0262264Y0139339D03*
X0262264Y0139437D03*
X0262264Y0139535D03*
X0262264Y0139634D03*
X0262264Y0139732D03*
X0262264Y0139831D03*
X0262264Y0139929D03*
X0262264Y0140028D03*
X0262264Y0140126D03*
X0262264Y0140224D03*
X0262264Y0140323D03*
X0262264Y0140421D03*
X0262264Y0140520D03*
X0262264Y0140618D03*
X0262264Y0140717D03*
X0262264Y0140815D03*
X0262264Y0140913D03*
X0262264Y0141012D03*
X0262264Y0141110D03*
X0262264Y0141209D03*
X0262264Y0141307D03*
X0262264Y0141406D03*
X0262264Y0141504D03*
X0262264Y0141602D03*
X0262264Y0141701D03*
X0262264Y0141799D03*
X0262264Y0141898D03*
X0262264Y0141996D03*
X0262165Y0142783D03*
X0262165Y0142882D03*
X0262165Y0142980D03*
X0262165Y0143079D03*
X0262165Y0143177D03*
X0262165Y0143276D03*
X0262067Y0143571D03*
X0262067Y0143669D03*
X0262067Y0143768D03*
X0262067Y0143866D03*
X0261969Y0144161D03*
X0261969Y0144260D03*
X0261969Y0144358D03*
X0261870Y0144654D03*
X0261870Y0144752D03*
X0261772Y0145146D03*
X0261673Y0145539D03*
D63*
X0261722Y0145441D03*
X0261722Y0145343D03*
X0261722Y0145244D03*
X0261821Y0145047D03*
X0261821Y0144949D03*
X0261821Y0144850D03*
X0261919Y0144555D03*
X0261919Y0144457D03*
X0262018Y0144063D03*
X0262018Y0143965D03*
X0262116Y0143472D03*
X0262116Y0143374D03*
X0261624Y0145638D03*
X0261624Y0145736D03*
X0261624Y0145835D03*
X0261526Y0145933D03*
X0261526Y0146031D03*
X0261230Y0146917D03*
X0261230Y0147016D03*
X0261132Y0147213D03*
X0261132Y0147311D03*
X0261033Y0147508D03*
X0260935Y0147803D03*
X0260837Y0148000D03*
X0257982Y0141012D03*
X0257982Y0140913D03*
X0257982Y0140028D03*
X0257982Y0139929D03*
X0262215Y0138846D03*
X0262116Y0138059D03*
X0262116Y0137961D03*
X0262018Y0137469D03*
X0262018Y0137370D03*
X0261919Y0136976D03*
X0261919Y0136878D03*
X0261821Y0136583D03*
X0261821Y0136484D03*
X0261821Y0136386D03*
X0261722Y0136189D03*
X0261722Y0136091D03*
X0261722Y0135992D03*
X0261624Y0135795D03*
X0261624Y0135697D03*
X0261624Y0135598D03*
X0261526Y0135500D03*
X0261526Y0135402D03*
X0261230Y0134516D03*
X0261230Y0134417D03*
X0261132Y0134220D03*
X0261132Y0134122D03*
X0261033Y0133925D03*
X0260837Y0133433D03*
X0252077Y0128413D03*
X0252077Y0128315D03*
X0252077Y0127429D03*
X0252077Y0127331D03*
X0243120Y0125756D03*
X0243120Y0124772D03*
X0225600Y0134122D03*
X0225502Y0134417D03*
X0225404Y0134713D03*
X0225305Y0135008D03*
X0225305Y0135106D03*
X0225207Y0135205D03*
X0225207Y0135303D03*
X0225207Y0135402D03*
X0225108Y0135598D03*
X0225108Y0135697D03*
X0225108Y0135795D03*
X0225010Y0135894D03*
X0225010Y0135992D03*
X0225010Y0136091D03*
X0225010Y0136189D03*
X0224911Y0136287D03*
X0224911Y0136386D03*
X0224911Y0136484D03*
X0224911Y0136583D03*
X0224813Y0136780D03*
X0224813Y0136878D03*
X0224813Y0136976D03*
X0224715Y0137272D03*
X0224715Y0137370D03*
X0224715Y0137469D03*
X0224616Y0137961D03*
X0224616Y0138059D03*
X0224616Y0138157D03*
X0224518Y0138748D03*
X0224518Y0138846D03*
X0224518Y0138945D03*
X0227963Y0138748D03*
X0227963Y0138650D03*
X0227963Y0137764D03*
X0224518Y0142587D03*
X0224518Y0142685D03*
X0224616Y0143374D03*
X0224616Y0143472D03*
X0224715Y0143965D03*
X0224715Y0144063D03*
X0224715Y0144161D03*
X0224813Y0144457D03*
X0224813Y0144555D03*
X0224813Y0144654D03*
X0225108Y0145638D03*
X0225108Y0145736D03*
X0225108Y0145835D03*
X0225207Y0146031D03*
X0225207Y0146130D03*
X0225305Y0146327D03*
X0225305Y0146425D03*
X0225404Y0146720D03*
X0225502Y0147016D03*
X0233474Y0152724D03*
X0233474Y0153709D03*
X0241053Y0156071D03*
D64*
X0233278Y0156661D03*
X0233081Y0156563D03*
X0253455Y0156661D03*
X0253455Y0124772D03*
X0233081Y0124870D03*
D65*
X0238839Y0128118D03*
X0241004Y0127134D03*
X0243169Y0126248D03*
X0243760Y0125559D03*
X0242579Y0124870D03*
X0247500Y0129299D03*
X0252717Y0128217D03*
X0252717Y0127528D03*
X0258622Y0140126D03*
X0247500Y0154398D03*
X0245335Y0155677D03*
X0241693Y0156169D03*
X0241693Y0156858D03*
X0240512Y0156858D03*
X0240512Y0156169D03*
X0238839Y0151740D03*
X0234016Y0152823D03*
X0232835Y0153512D03*
X0227421Y0138551D03*
X0227421Y0137862D03*
X0228602Y0137862D03*
D66*
X0232638Y0125165D03*
X0232933Y0124969D03*
X0249961Y0128020D03*
X0253602Y0124870D03*
X0253799Y0124969D03*
X0253898Y0125067D03*
X0253898Y0156366D03*
X0253799Y0156465D03*
X0253602Y0156563D03*
X0232933Y0156465D03*
X0232638Y0156268D03*
D67*
X0233474Y0154201D03*
X0232785Y0153413D03*
X0232785Y0152921D03*
X0238888Y0151642D03*
X0240364Y0156366D03*
X0240364Y0156661D03*
X0241053Y0157547D03*
X0241742Y0156760D03*
X0241742Y0156268D03*
X0245285Y0155579D03*
X0247451Y0154299D03*
X0257392Y0140815D03*
X0258671Y0140717D03*
X0258671Y0140224D03*
X0257982Y0139437D03*
X0247451Y0129398D03*
X0251486Y0127528D03*
X0252077Y0126839D03*
X0252766Y0127626D03*
X0252766Y0128118D03*
X0252077Y0128906D03*
X0243809Y0125461D03*
X0243809Y0124969D03*
X0242530Y0124969D03*
X0242431Y0125067D03*
X0242431Y0125362D03*
X0242431Y0125461D03*
X0242530Y0125559D03*
X0241053Y0127232D03*
X0238888Y0128217D03*
X0243711Y0140323D03*
X0227963Y0139240D03*
X0227274Y0138453D03*
X0227274Y0138354D03*
X0227274Y0138059D03*
X0227372Y0137961D03*
D68*
X0232490Y0125264D03*
X0232785Y0125067D03*
X0250010Y0127921D03*
X0254045Y0125165D03*
X0254045Y0156268D03*
X0232785Y0156366D03*
X0232490Y0156169D03*
D69*
X0232343Y0156071D03*
X0232244Y0155972D03*
X0254193Y0156169D03*
X0254390Y0156071D03*
X0254488Y0155972D03*
X0226732Y0132744D03*
X0232244Y0125461D03*
X0232343Y0125362D03*
X0250059Y0127823D03*
X0254193Y0125264D03*
X0254390Y0125362D03*
X0254488Y0125461D03*
D70*
X0254636Y0125559D03*
X0254734Y0125657D03*
X0255030Y0125854D03*
X0250207Y0127626D03*
X0250108Y0127724D03*
X0232096Y0125559D03*
X0231900Y0125657D03*
X0231801Y0125756D03*
X0226093Y0147114D03*
X0231801Y0155677D03*
X0231900Y0155776D03*
X0232096Y0155874D03*
X0254636Y0155874D03*
X0254734Y0155776D03*
X0255030Y0155579D03*
D71*
X0260098Y0149575D03*
X0260197Y0149378D03*
X0260295Y0149181D03*
X0260394Y0148984D03*
X0260492Y0148787D03*
X0260492Y0148689D03*
X0260591Y0148591D03*
X0260591Y0148492D03*
X0260689Y0148394D03*
X0260689Y0148295D03*
X0260787Y0148197D03*
X0260787Y0148098D03*
X0260886Y0147902D03*
X0260984Y0147705D03*
X0260984Y0147606D03*
X0261083Y0147409D03*
X0261181Y0147114D03*
X0261280Y0146819D03*
X0261280Y0134614D03*
X0261181Y0134319D03*
X0261083Y0134024D03*
X0260984Y0133827D03*
X0260984Y0133728D03*
X0260886Y0133630D03*
X0260886Y0133531D03*
X0260787Y0133335D03*
X0260787Y0133236D03*
X0260394Y0132449D03*
X0260295Y0132252D03*
X0260197Y0132055D03*
X0243169Y0125657D03*
X0226142Y0132843D03*
X0226043Y0133039D03*
X0226043Y0133138D03*
X0225945Y0133236D03*
X0225945Y0133335D03*
X0225846Y0133433D03*
X0225846Y0133531D03*
X0225846Y0133630D03*
X0225748Y0133728D03*
X0225748Y0133827D03*
X0225650Y0133925D03*
X0225650Y0134024D03*
X0225551Y0134220D03*
X0225551Y0134319D03*
X0225453Y0134516D03*
X0225453Y0134614D03*
X0225354Y0134811D03*
X0225354Y0134909D03*
X0225157Y0135500D03*
X0225157Y0145933D03*
X0225256Y0146228D03*
X0225354Y0146524D03*
X0225354Y0146622D03*
X0225453Y0146819D03*
X0225453Y0146917D03*
X0225846Y0147902D03*
X0225846Y0148000D03*
X0225945Y0148098D03*
X0225945Y0148197D03*
X0226043Y0148295D03*
X0226043Y0148394D03*
X0226142Y0148591D03*
X0226240Y0148787D03*
X0226339Y0148984D03*
X0226437Y0149181D03*
X0226535Y0149378D03*
X0233425Y0153610D03*
X0241102Y0156957D03*
D72*
X0231654Y0155579D03*
X0231555Y0155480D03*
X0231457Y0155382D03*
X0226043Y0147213D03*
X0226732Y0132646D03*
X0231457Y0126051D03*
X0231555Y0125953D03*
X0231654Y0125854D03*
X0254882Y0125756D03*
X0255177Y0125953D03*
X0255276Y0126051D03*
X0260197Y0133138D03*
X0260984Y0135303D03*
X0255276Y0155382D03*
X0255177Y0155480D03*
X0254882Y0155677D03*
D73*
X0241102Y0157252D03*
X0233425Y0153906D03*
X0228012Y0138945D03*
X0228012Y0137469D03*
X0243169Y0125953D03*
D74*
X0243169Y0126051D03*
X0228012Y0139043D03*
X0233425Y0154004D03*
X0241102Y0155677D03*
X0241102Y0157350D03*
D75*
X0231309Y0155283D03*
X0231211Y0155185D03*
X0231112Y0155087D03*
X0225404Y0144850D03*
X0226683Y0132547D03*
X0231112Y0126346D03*
X0231211Y0126248D03*
X0231309Y0126150D03*
X0255423Y0126150D03*
X0255522Y0126248D03*
X0255620Y0126346D03*
X0260246Y0133039D03*
X0261033Y0135205D03*
X0261033Y0146130D03*
X0255620Y0155087D03*
X0255522Y0155185D03*
X0255423Y0155283D03*
D76*
X0247402Y0150165D03*
X0247402Y0150067D03*
X0247402Y0149969D03*
X0247402Y0149870D03*
X0247402Y0149772D03*
X0247402Y0149673D03*
X0247402Y0149575D03*
X0247402Y0149476D03*
X0247402Y0149378D03*
X0247402Y0149280D03*
X0247402Y0149181D03*
X0247402Y0149083D03*
X0247402Y0148984D03*
X0247402Y0148886D03*
X0247402Y0148787D03*
X0247402Y0148689D03*
X0247402Y0148591D03*
X0247402Y0148492D03*
X0245236Y0148492D03*
X0245236Y0148591D03*
X0245236Y0148689D03*
X0245236Y0148787D03*
X0245236Y0148886D03*
X0245236Y0148984D03*
X0245236Y0149083D03*
X0245236Y0149181D03*
X0245236Y0149280D03*
X0245236Y0149378D03*
X0245236Y0149476D03*
X0245236Y0149575D03*
X0245236Y0149673D03*
X0245236Y0149772D03*
X0245236Y0149870D03*
X0245236Y0149969D03*
X0245236Y0150067D03*
X0245236Y0150165D03*
X0243169Y0150165D03*
X0243169Y0150067D03*
X0243169Y0149969D03*
X0243169Y0149870D03*
X0243169Y0149772D03*
X0243169Y0149673D03*
X0243169Y0149575D03*
X0243169Y0149476D03*
X0243169Y0149378D03*
X0243169Y0149280D03*
X0243169Y0149181D03*
X0243169Y0149083D03*
X0243169Y0148984D03*
X0243169Y0148886D03*
X0243169Y0148787D03*
X0243169Y0148689D03*
X0243169Y0148591D03*
X0243169Y0148492D03*
X0241102Y0148492D03*
X0241102Y0148591D03*
X0241102Y0148689D03*
X0241102Y0148787D03*
X0241102Y0148886D03*
X0241102Y0148984D03*
X0241102Y0149083D03*
X0241102Y0149181D03*
X0241102Y0149280D03*
X0241102Y0149378D03*
X0241102Y0149476D03*
X0241102Y0149575D03*
X0241102Y0149673D03*
X0241102Y0149772D03*
X0241102Y0149870D03*
X0241102Y0149969D03*
X0241102Y0150067D03*
X0241102Y0150165D03*
X0238937Y0150165D03*
X0238937Y0150067D03*
X0238937Y0149969D03*
X0238937Y0149870D03*
X0238937Y0149772D03*
X0238937Y0149673D03*
X0238937Y0149575D03*
X0238937Y0149476D03*
X0238937Y0149378D03*
X0238937Y0149280D03*
X0238937Y0149181D03*
X0238937Y0149083D03*
X0238937Y0148984D03*
X0238937Y0148886D03*
X0238937Y0148787D03*
X0238937Y0148689D03*
X0238937Y0148591D03*
X0238937Y0148492D03*
X0241102Y0157449D03*
X0241102Y0132350D03*
X0241102Y0132252D03*
X0241102Y0132154D03*
X0241102Y0132055D03*
X0241102Y0131957D03*
X0241102Y0131858D03*
X0241102Y0131760D03*
X0241102Y0131661D03*
X0241102Y0131563D03*
X0241102Y0131465D03*
X0241102Y0131366D03*
X0241102Y0131268D03*
X0243169Y0131268D03*
X0243169Y0131366D03*
X0243169Y0131465D03*
X0243169Y0131563D03*
X0243169Y0131661D03*
X0243169Y0131760D03*
X0243169Y0131858D03*
X0243169Y0131957D03*
X0243169Y0132055D03*
X0243169Y0132154D03*
X0243169Y0132252D03*
X0243169Y0132350D03*
X0245236Y0132350D03*
X0245236Y0132252D03*
X0245236Y0132154D03*
X0245236Y0132055D03*
X0245236Y0131957D03*
X0245236Y0131858D03*
X0245236Y0131760D03*
X0245236Y0131661D03*
X0245236Y0131563D03*
X0245236Y0131465D03*
X0245236Y0131366D03*
X0245236Y0131268D03*
X0247402Y0131268D03*
X0247402Y0131366D03*
X0247402Y0131465D03*
X0247402Y0131563D03*
X0247402Y0131661D03*
X0247402Y0131760D03*
X0247402Y0131858D03*
X0247402Y0131957D03*
X0247402Y0132055D03*
X0247402Y0132154D03*
X0247402Y0132252D03*
X0247402Y0132350D03*
X0238937Y0132350D03*
X0238937Y0132252D03*
X0238937Y0132154D03*
X0238937Y0132055D03*
X0238937Y0131957D03*
X0238937Y0131858D03*
X0238937Y0131760D03*
X0238937Y0131661D03*
X0238937Y0131563D03*
X0238937Y0131465D03*
X0238937Y0131366D03*
X0238937Y0131268D03*
X0243169Y0126150D03*
D77*
X0230965Y0126445D03*
X0230866Y0126543D03*
X0230768Y0126642D03*
X0225354Y0144949D03*
X0226043Y0147311D03*
X0230768Y0154791D03*
X0230866Y0154890D03*
X0230965Y0154988D03*
X0255768Y0154988D03*
X0255866Y0154890D03*
X0255965Y0154791D03*
X0256063Y0154693D03*
X0261083Y0146228D03*
X0256063Y0126740D03*
X0255965Y0126642D03*
X0255866Y0126543D03*
X0255768Y0126445D03*
D78*
X0256211Y0126839D03*
X0256309Y0126937D03*
X0256407Y0127035D03*
X0256506Y0127134D03*
X0256604Y0127232D03*
X0256703Y0127331D03*
X0256801Y0127429D03*
X0260246Y0132941D03*
X0261033Y0135106D03*
X0256801Y0154004D03*
X0256703Y0154102D03*
X0256604Y0154201D03*
X0256506Y0154299D03*
X0256407Y0154398D03*
X0256309Y0154496D03*
X0256211Y0154594D03*
X0230620Y0154693D03*
X0230522Y0154594D03*
X0230423Y0154496D03*
X0230325Y0154398D03*
X0230226Y0154299D03*
X0229931Y0154004D03*
X0225994Y0147409D03*
X0225305Y0145047D03*
X0226683Y0132449D03*
X0229931Y0127429D03*
X0230226Y0127134D03*
X0230325Y0127035D03*
X0230423Y0126937D03*
X0230522Y0126839D03*
X0230620Y0126740D03*
D79*
X0227963Y0139142D03*
X0233474Y0154102D03*
X0257982Y0141406D03*
X0257982Y0139535D03*
X0252077Y0128807D03*
X0252077Y0126937D03*
D80*
X0256949Y0127528D03*
X0260295Y0132843D03*
X0261083Y0135008D03*
X0261083Y0146327D03*
X0256949Y0153906D03*
X0230079Y0154201D03*
X0229980Y0154102D03*
X0229783Y0153906D03*
X0229685Y0153807D03*
X0229587Y0153709D03*
X0225945Y0147508D03*
X0225256Y0145146D03*
X0226634Y0132350D03*
X0229587Y0127724D03*
X0229685Y0127626D03*
X0229783Y0127528D03*
X0229980Y0127331D03*
X0230079Y0127232D03*
D81*
X0229537Y0127823D03*
X0229439Y0127921D03*
X0229341Y0128020D03*
X0229242Y0128118D03*
X0229144Y0128217D03*
X0229045Y0128315D03*
X0256998Y0127626D03*
X0257096Y0127724D03*
X0257195Y0127823D03*
X0257293Y0127921D03*
X0257392Y0128020D03*
X0257490Y0128118D03*
X0257589Y0128217D03*
X0257884Y0128610D03*
X0261132Y0134909D03*
X0261132Y0146425D03*
X0257589Y0153217D03*
X0257490Y0153315D03*
X0257392Y0153413D03*
X0257293Y0153512D03*
X0257195Y0153610D03*
X0257096Y0153709D03*
X0256998Y0153807D03*
X0229537Y0153610D03*
X0229439Y0153512D03*
X0229341Y0153413D03*
X0229242Y0153315D03*
X0229144Y0153217D03*
X0229045Y0153118D03*
D82*
X0228996Y0153020D03*
X0228898Y0152921D03*
X0228799Y0152823D03*
X0228701Y0152724D03*
X0228602Y0152528D03*
X0228504Y0152429D03*
X0228406Y0152331D03*
X0225945Y0147606D03*
X0225256Y0145244D03*
X0226634Y0132252D03*
X0228406Y0129102D03*
X0228504Y0129004D03*
X0228602Y0128906D03*
X0228701Y0128709D03*
X0228799Y0128610D03*
X0228898Y0128512D03*
X0228996Y0128413D03*
X0257638Y0128315D03*
X0257736Y0128413D03*
X0257835Y0128512D03*
X0257933Y0128709D03*
X0258031Y0128807D03*
X0258130Y0128906D03*
X0258228Y0129004D03*
X0258524Y0129398D03*
X0260295Y0132744D03*
X0261181Y0146524D03*
X0258524Y0152035D03*
X0258228Y0152429D03*
X0258130Y0152528D03*
X0258031Y0152626D03*
X0257933Y0152724D03*
X0257933Y0152823D03*
X0257835Y0152921D03*
X0257736Y0153020D03*
X0257638Y0153118D03*
D83*
X0258278Y0152331D03*
X0258376Y0152232D03*
X0258474Y0152134D03*
X0258573Y0151937D03*
X0258671Y0151839D03*
X0258770Y0151740D03*
X0258868Y0151543D03*
X0258967Y0151445D03*
X0261132Y0134811D03*
X0260344Y0132646D03*
X0258967Y0129988D03*
X0258868Y0129890D03*
X0258770Y0129693D03*
X0258671Y0129594D03*
X0258573Y0129496D03*
X0258474Y0129299D03*
X0258376Y0129201D03*
X0258278Y0129102D03*
X0228652Y0128807D03*
X0228356Y0129201D03*
X0228258Y0129299D03*
X0228159Y0129398D03*
X0228159Y0129496D03*
X0228061Y0129594D03*
X0227963Y0129693D03*
X0227766Y0129988D03*
X0227569Y0130283D03*
X0226585Y0132154D03*
X0225207Y0145343D03*
X0225896Y0147705D03*
X0227569Y0151150D03*
X0227766Y0151445D03*
X0227963Y0151740D03*
X0228061Y0151839D03*
X0228159Y0151937D03*
X0228159Y0152035D03*
X0228258Y0152134D03*
X0228356Y0152232D03*
X0228652Y0152626D03*
D84*
X0227913Y0151642D03*
X0227815Y0151543D03*
X0227717Y0151346D03*
X0227618Y0151248D03*
X0227520Y0151051D03*
X0227421Y0150953D03*
X0227421Y0150854D03*
X0227323Y0150756D03*
X0227224Y0150657D03*
X0227224Y0150559D03*
X0227126Y0150461D03*
X0227028Y0150264D03*
X0226732Y0149772D03*
X0225157Y0145441D03*
X0226732Y0131661D03*
X0227028Y0131169D03*
X0227126Y0130972D03*
X0227224Y0130874D03*
X0227224Y0130776D03*
X0227323Y0130677D03*
X0227421Y0130579D03*
X0227421Y0130480D03*
X0227520Y0130382D03*
X0227618Y0130185D03*
X0227717Y0130087D03*
X0227815Y0129890D03*
X0227913Y0129791D03*
X0258819Y0129791D03*
X0259016Y0130087D03*
X0259114Y0130185D03*
X0259114Y0130283D03*
X0259213Y0130382D03*
X0259311Y0130480D03*
X0259311Y0130579D03*
X0259409Y0130677D03*
X0259508Y0130874D03*
X0259705Y0131169D03*
X0260394Y0132547D03*
X0261181Y0146622D03*
X0259705Y0150264D03*
X0259508Y0150559D03*
X0259409Y0150756D03*
X0259311Y0150854D03*
X0259311Y0150953D03*
X0259213Y0151051D03*
X0259114Y0151150D03*
X0259114Y0151248D03*
X0259016Y0151346D03*
X0258819Y0151642D03*
D85*
X0259459Y0150657D03*
X0259557Y0150461D03*
X0259656Y0150362D03*
X0259754Y0150165D03*
X0259852Y0150067D03*
X0259852Y0149969D03*
X0259951Y0149870D03*
X0259951Y0149772D03*
X0260049Y0149673D03*
X0260148Y0149476D03*
X0260246Y0149280D03*
X0260344Y0149083D03*
X0260443Y0148886D03*
X0261230Y0146720D03*
X0261230Y0134713D03*
X0260344Y0132350D03*
X0260246Y0132154D03*
X0260148Y0131957D03*
X0260049Y0131858D03*
X0260049Y0131760D03*
X0259951Y0131661D03*
X0259951Y0131563D03*
X0259852Y0131465D03*
X0259852Y0131366D03*
X0259754Y0131268D03*
X0259656Y0131071D03*
X0259557Y0130972D03*
X0259459Y0130776D03*
X0227077Y0131071D03*
X0226978Y0131268D03*
X0226880Y0131366D03*
X0226880Y0131465D03*
X0226781Y0131563D03*
X0226683Y0131760D03*
X0226585Y0131858D03*
X0226585Y0131957D03*
X0226585Y0132055D03*
X0226093Y0132941D03*
X0225108Y0145539D03*
X0225896Y0147803D03*
X0226093Y0148492D03*
X0226191Y0148689D03*
X0226289Y0148886D03*
X0226388Y0149083D03*
X0226486Y0149280D03*
X0226585Y0149476D03*
X0226585Y0149575D03*
X0226683Y0149673D03*
X0226781Y0149870D03*
X0226880Y0149969D03*
X0226880Y0150067D03*
X0226978Y0150165D03*
X0227077Y0150362D03*
D86*
X0243317Y0132744D03*
D87*
X0243366Y0132843D03*
X0250945Y0140323D03*
X0251043Y0140224D03*
X0252520Y0144752D03*
X0252618Y0144850D03*
X0252717Y0144949D03*
X0243366Y0147902D03*
D88*
X0243366Y0132941D03*
D89*
X0243317Y0133138D03*
X0235148Y0142488D03*
X0235049Y0142587D03*
X0234951Y0142685D03*
X0234852Y0142783D03*
D90*
X0243317Y0133236D03*
D91*
X0243317Y0133335D03*
D92*
X0243317Y0133433D03*
D93*
X0243366Y0133630D03*
X0243366Y0147114D03*
X0243366Y0147213D03*
D94*
X0243366Y0146917D03*
X0243366Y0146819D03*
X0243366Y0133925D03*
D95*
X0243317Y0134024D03*
D96*
X0243366Y0134122D03*
X0243366Y0134220D03*
X0243366Y0146622D03*
X0243366Y0146720D03*
D97*
X0243317Y0134516D03*
D98*
X0243366Y0134614D03*
X0243366Y0134713D03*
X0243366Y0134811D03*
X0243366Y0134909D03*
D99*
X0238346Y0135106D03*
X0236870Y0136681D03*
X0248386Y0139535D03*
X0238346Y0143472D03*
X0238346Y0143571D03*
D100*
X0248140Y0143374D03*
X0248140Y0135106D03*
X0237116Y0135598D03*
X0237116Y0135697D03*
D101*
X0248337Y0135205D03*
X0248337Y0139634D03*
X0248337Y0139732D03*
X0248337Y0143866D03*
X0248238Y0145933D03*
X0238396Y0143374D03*
D102*
X0238051Y0135303D03*
X0250059Y0158236D03*
D103*
X0250108Y0158138D03*
X0248533Y0145736D03*
X0238297Y0145933D03*
X0238199Y0143866D03*
X0248533Y0135402D03*
D104*
X0249370Y0135598D03*
X0237362Y0144161D03*
X0243366Y0160303D03*
D105*
X0248091Y0146031D03*
X0248189Y0143571D03*
X0248189Y0143472D03*
X0237067Y0145047D03*
X0237067Y0135795D03*
X0249665Y0136681D03*
X0249665Y0136780D03*
D106*
X0235344Y0135992D03*
D107*
X0233671Y0138059D03*
X0233671Y0138157D03*
X0251486Y0135992D03*
D108*
X0235344Y0136091D03*
D109*
X0243317Y0148394D03*
X0252569Y0137961D03*
X0251486Y0136091D03*
D110*
X0235394Y0136189D03*
D111*
X0251437Y0136189D03*
X0252520Y0138059D03*
D112*
X0235394Y0136287D03*
D113*
X0251437Y0136287D03*
X0252323Y0138354D03*
D114*
X0248337Y0141898D03*
X0248337Y0141996D03*
X0235443Y0136386D03*
D115*
X0251388Y0136386D03*
D116*
X0251339Y0136484D03*
D117*
X0235492Y0136583D03*
D118*
X0237559Y0136878D03*
X0237559Y0136976D03*
X0237559Y0138945D03*
X0252028Y0157350D03*
X0235295Y0157744D03*
D119*
X0237756Y0145441D03*
X0237756Y0139535D03*
X0248976Y0138945D03*
X0248976Y0137075D03*
X0248976Y0136976D03*
X0248976Y0136878D03*
D120*
X0233720Y0138256D03*
X0233720Y0138354D03*
X0233622Y0137961D03*
D121*
X0252372Y0138256D03*
X0252470Y0138157D03*
D122*
X0242776Y0138453D03*
X0242677Y0138551D03*
D123*
X0243366Y0138650D03*
X0243366Y0138748D03*
X0243366Y0140815D03*
X0243366Y0140913D03*
X0243366Y0141012D03*
X0253701Y0142488D03*
D124*
X0249075Y0143965D03*
X0247402Y0146327D03*
X0239134Y0141406D03*
X0237657Y0139929D03*
X0237657Y0139831D03*
D125*
X0237707Y0140028D03*
X0239183Y0141209D03*
X0239183Y0141307D03*
X0247549Y0141799D03*
X0249026Y0139831D03*
D126*
X0248976Y0139929D03*
X0247500Y0141701D03*
X0239232Y0141110D03*
X0237756Y0143079D03*
D127*
X0238100Y0142193D03*
X0248632Y0142783D03*
X0248632Y0140028D03*
D128*
X0232539Y0140126D03*
D129*
X0251093Y0140126D03*
D130*
X0253750Y0142587D03*
X0232982Y0140224D03*
D131*
X0243809Y0140224D03*
D132*
X0233179Y0140323D03*
X0253553Y0142094D03*
D133*
X0240561Y0140618D03*
X0240561Y0140520D03*
X0240561Y0140421D03*
D134*
X0240610Y0140717D03*
D135*
X0247303Y0141110D03*
X0247303Y0141209D03*
X0248780Y0143079D03*
D136*
X0247352Y0141307D03*
D137*
X0249124Y0144063D03*
X0239085Y0141504D03*
D138*
X0237805Y0142980D03*
X0247451Y0141602D03*
X0247451Y0141504D03*
D139*
X0257982Y0141504D03*
D140*
X0249173Y0144161D03*
X0239035Y0141701D03*
X0239035Y0141602D03*
D141*
X0238986Y0141799D03*
X0249222Y0144260D03*
D142*
X0238199Y0141898D03*
D143*
X0238150Y0141996D03*
X0238150Y0142094D03*
D144*
X0253602Y0142193D03*
D145*
X0243366Y0147705D03*
X0235295Y0142291D03*
X0235197Y0142390D03*
D146*
X0253652Y0142390D03*
X0253652Y0142291D03*
D147*
X0253750Y0142685D03*
D148*
X0248681Y0142882D03*
D149*
X0248730Y0142980D03*
D150*
X0248041Y0143177D03*
X0249518Y0145047D03*
X0249518Y0145146D03*
X0247943Y0146130D03*
D151*
X0248287Y0143768D03*
X0238445Y0143276D03*
X0238543Y0146130D03*
X0249075Y0158531D03*
D152*
X0238740Y0146228D03*
X0248091Y0143276D03*
D153*
X0239134Y0146327D03*
X0237461Y0143965D03*
D154*
X0235049Y0144358D03*
X0234951Y0144457D03*
X0234852Y0144555D03*
X0234754Y0144654D03*
D155*
X0252175Y0144358D03*
X0252274Y0144457D03*
X0252372Y0144555D03*
X0252470Y0144654D03*
D156*
X0234705Y0144752D03*
X0234606Y0144850D03*
X0234508Y0144949D03*
D157*
X0243317Y0146524D03*
X0243317Y0159024D03*
D158*
X0243366Y0147409D03*
D159*
X0243366Y0147508D03*
D160*
X0243317Y0148000D03*
D161*
X0243317Y0148098D03*
D162*
X0243366Y0148197D03*
D163*
X0243366Y0148295D03*
D164*
X0243460Y0058480D03*
X0230260Y0058480D03*
D165*
X0256620Y0058480D03*
D166*
X0230300Y0058520D03*
D167*
X0243440Y0058520D03*
D168*
X0256560Y0058520D03*
D169*
X0230280Y0058560D03*
D170*
X0243460Y0058560D03*
X0256620Y0058560D03*
D171*
X0243460Y0058600D03*
X0230260Y0058600D03*
D172*
X0256640Y0058600D03*
D173*
X0243460Y0058640D03*
X0230260Y0058640D03*
X0236340Y0102240D03*
D174*
X0256620Y0058640D03*
D175*
X0256620Y0058680D03*
X0243460Y0058680D03*
X0230260Y0058680D03*
X0230300Y0120720D03*
X0243460Y0120720D03*
X0256620Y0120720D03*
X0256620Y0120760D03*
D176*
X0256640Y0120680D03*
X0243440Y0120680D03*
X0230280Y0120680D03*
X0230280Y0058720D03*
X0243440Y0058720D03*
X0256640Y0058720D03*
D177*
X0230280Y0058760D03*
X0230280Y0120640D03*
D178*
X0243460Y0058760D03*
D179*
X0256620Y0058760D03*
D180*
X0230280Y0058800D03*
D181*
X0243440Y0058800D03*
X0256640Y0058800D03*
D182*
X0256640Y0058840D03*
X0230280Y0058840D03*
D183*
X0243460Y0058840D03*
X0236340Y0091360D03*
D184*
X0230300Y0058880D03*
D185*
X0243440Y0058880D03*
D186*
X0256600Y0058880D03*
D187*
X0230300Y0058920D03*
D188*
X0243440Y0058920D03*
D189*
X0256620Y0058920D03*
D190*
X0256640Y0058960D03*
X0243440Y0058960D03*
X0230280Y0058960D03*
D191*
X0230280Y0059000D03*
D192*
X0243440Y0059000D03*
X0256640Y0059000D03*
D193*
X0243440Y0059040D03*
X0230280Y0059040D03*
X0256640Y0120440D03*
D194*
X0243460Y0120360D03*
X0230260Y0120360D03*
X0243460Y0059080D03*
X0256620Y0059080D03*
X0256620Y0059040D03*
D195*
X0243440Y0059120D03*
X0230280Y0059120D03*
X0230280Y0059080D03*
X0236320Y0102160D03*
X0230280Y0120320D03*
X0243440Y0120320D03*
X0256640Y0120360D03*
D196*
X0256620Y0120320D03*
X0256620Y0059160D03*
X0256620Y0059120D03*
D197*
X0230280Y0059160D03*
X0236320Y0091440D03*
X0230280Y0120240D03*
D198*
X0230260Y0120280D03*
X0243460Y0120280D03*
X0243460Y0059160D03*
D199*
X0230280Y0059200D03*
D200*
X0243440Y0059200D03*
D201*
X0256620Y0059200D03*
D202*
X0256600Y0059240D03*
X0230280Y0059240D03*
D203*
X0243460Y0059240D03*
X0256620Y0120240D03*
D204*
X0230300Y0120160D03*
X0236340Y0091520D03*
X0230300Y0059280D03*
D205*
X0243440Y0059280D03*
D206*
X0256580Y0059280D03*
D207*
X0256580Y0059320D03*
X0230300Y0059320D03*
X0236340Y0091560D03*
D208*
X0243440Y0059320D03*
D209*
X0230280Y0059360D03*
D210*
X0243440Y0059360D03*
X0256600Y0120080D03*
D211*
X0243420Y0120120D03*
X0256580Y0059360D03*
D212*
X0243460Y0059400D03*
X0230260Y0059400D03*
D213*
X0256620Y0059400D03*
D214*
X0230280Y0059440D03*
X0230280Y0120040D03*
D215*
X0243440Y0120040D03*
X0243440Y0059440D03*
X0256640Y0059440D03*
X0256640Y0059480D03*
D216*
X0243460Y0059480D03*
X0230260Y0059480D03*
X0230260Y0119960D03*
X0243460Y0119960D03*
D217*
X0243440Y0119920D03*
X0243440Y0119880D03*
X0230280Y0119880D03*
X0230280Y0119920D03*
X0230280Y0119840D03*
X0256640Y0119840D03*
X0256640Y0119880D03*
X0256640Y0059680D03*
X0256640Y0059640D03*
X0256640Y0059560D03*
X0243440Y0059560D03*
X0243440Y0059520D03*
X0230280Y0059520D03*
X0230280Y0059560D03*
D218*
X0256620Y0059520D03*
X0256620Y0119920D03*
X0256620Y0119960D03*
D219*
X0243460Y0119800D03*
X0243460Y0119600D03*
X0230260Y0119800D03*
X0230260Y0059800D03*
X0230260Y0059600D03*
X0243460Y0059600D03*
X0243460Y0059800D03*
D220*
X0256640Y0059600D03*
X0256640Y0119800D03*
D221*
X0256620Y0119760D03*
X0256620Y0119720D03*
X0243460Y0119720D03*
X0243460Y0119760D03*
X0243460Y0119840D03*
X0243460Y0119680D03*
X0243460Y0119640D03*
X0243460Y0119560D03*
X0243460Y0119520D03*
X0230260Y0119640D03*
X0230260Y0119680D03*
X0230260Y0119720D03*
X0230260Y0119760D03*
X0230260Y0059760D03*
X0230260Y0059720D03*
X0230260Y0059680D03*
X0230260Y0059640D03*
X0243460Y0059640D03*
X0243460Y0059680D03*
X0243460Y0059720D03*
X0243460Y0059760D03*
X0256620Y0059720D03*
D222*
X0256640Y0059760D03*
X0256640Y0059840D03*
X0256640Y0059880D03*
X0256640Y0059920D03*
X0243440Y0059920D03*
X0243440Y0059960D03*
X0243440Y0060040D03*
X0243440Y0059880D03*
X0243440Y0059840D03*
X0230280Y0059840D03*
X0230280Y0059880D03*
X0230280Y0059920D03*
X0230280Y0059960D03*
X0230280Y0060040D03*
X0230280Y0060080D03*
X0230280Y0119440D03*
X0230280Y0119480D03*
X0230280Y0119520D03*
X0230280Y0119560D03*
X0243440Y0119480D03*
X0243440Y0119440D03*
X0256640Y0119480D03*
X0256640Y0119520D03*
X0256640Y0119560D03*
X0256640Y0119640D03*
X0256640Y0119680D03*
D223*
X0256640Y0119600D03*
X0230280Y0119600D03*
X0230280Y0119400D03*
X0230280Y0060000D03*
X0243440Y0060000D03*
X0256640Y0059800D03*
D224*
X0256620Y0059960D03*
X0256620Y0060040D03*
X0256620Y0060080D03*
X0256620Y0060120D03*
X0256620Y0060160D03*
X0256620Y0119320D03*
X0256620Y0119360D03*
X0256620Y0119440D03*
D225*
X0256620Y0119400D03*
X0256620Y0060000D03*
D226*
X0243460Y0060080D03*
X0243460Y0060120D03*
X0236300Y0091680D03*
X0230260Y0119360D03*
X0243460Y0119360D03*
X0243460Y0119320D03*
D227*
X0230280Y0119320D03*
X0230280Y0119280D03*
X0230280Y0119240D03*
X0230280Y0119160D03*
X0230280Y0119120D03*
X0230280Y0113360D03*
X0230280Y0113320D03*
X0230280Y0113280D03*
X0230280Y0113240D03*
X0230280Y0060320D03*
X0230280Y0060280D03*
X0230280Y0060240D03*
X0230280Y0060160D03*
X0230280Y0060120D03*
D228*
X0243440Y0060160D03*
X0243440Y0060240D03*
X0243440Y0060280D03*
X0243440Y0060320D03*
X0243440Y0113240D03*
X0243440Y0113280D03*
X0243440Y0113320D03*
X0243440Y0113360D03*
X0243440Y0119160D03*
X0243440Y0119240D03*
X0243440Y0119280D03*
X0256640Y0119280D03*
D229*
X0230280Y0119200D03*
X0230280Y0113200D03*
X0230280Y0060200D03*
D230*
X0243440Y0060200D03*
X0243440Y0119200D03*
D231*
X0243460Y0119000D03*
X0243460Y0118800D03*
X0243460Y0118600D03*
X0243460Y0118400D03*
X0243460Y0118200D03*
X0243460Y0118000D03*
X0243460Y0117800D03*
X0243460Y0117600D03*
X0243460Y0117400D03*
X0243460Y0117200D03*
X0243460Y0117000D03*
X0243460Y0116800D03*
X0243460Y0116600D03*
X0243460Y0116400D03*
X0243460Y0116200D03*
X0243460Y0116000D03*
X0243460Y0115800D03*
X0243460Y0115600D03*
X0243460Y0115400D03*
X0243460Y0115200D03*
X0243460Y0115000D03*
X0243460Y0114800D03*
X0243460Y0114600D03*
X0243460Y0114400D03*
X0243460Y0114200D03*
X0243460Y0114000D03*
X0243460Y0113800D03*
X0243460Y0113600D03*
X0243460Y0113400D03*
X0243460Y0113200D03*
X0256620Y0119200D03*
X0264740Y0087400D03*
X0243460Y0066200D03*
X0243460Y0066000D03*
X0243460Y0065800D03*
X0243460Y0065600D03*
X0243460Y0065400D03*
X0243460Y0065200D03*
X0243460Y0065000D03*
X0243460Y0064800D03*
X0243460Y0064600D03*
X0243460Y0064400D03*
X0243460Y0064200D03*
X0243460Y0064000D03*
X0243460Y0063800D03*
X0243460Y0063600D03*
X0243460Y0063400D03*
X0243460Y0063200D03*
X0243460Y0063000D03*
X0243460Y0062800D03*
X0243460Y0062600D03*
X0243460Y0062400D03*
X0243460Y0062200D03*
X0243460Y0062000D03*
X0243460Y0061800D03*
X0243460Y0061600D03*
X0243460Y0061400D03*
X0243460Y0061200D03*
X0243460Y0061000D03*
X0243460Y0060800D03*
X0243460Y0060600D03*
X0243460Y0060400D03*
X0256620Y0060200D03*
D232*
X0256620Y0060240D03*
X0256620Y0060280D03*
X0243460Y0060360D03*
X0243460Y0060440D03*
X0243460Y0060480D03*
X0243460Y0060520D03*
X0243460Y0060560D03*
X0243460Y0060640D03*
X0243460Y0060680D03*
X0243460Y0060720D03*
X0243460Y0060760D03*
X0243460Y0060840D03*
X0243460Y0060880D03*
X0243460Y0060920D03*
X0243460Y0060960D03*
X0243460Y0061040D03*
X0243460Y0061080D03*
X0243460Y0061120D03*
X0243460Y0061160D03*
X0243460Y0061240D03*
X0243460Y0061280D03*
X0243460Y0061320D03*
X0243460Y0061360D03*
X0243460Y0061440D03*
X0243460Y0061480D03*
X0243460Y0061520D03*
X0243460Y0061560D03*
X0243460Y0061640D03*
X0243460Y0061680D03*
X0243460Y0061720D03*
X0243460Y0061760D03*
X0243460Y0061840D03*
X0243460Y0061880D03*
X0243460Y0061920D03*
X0243460Y0061960D03*
X0243460Y0062040D03*
X0243460Y0062080D03*
X0243460Y0062120D03*
X0243460Y0062160D03*
X0243460Y0062240D03*
X0243460Y0062280D03*
X0243460Y0062320D03*
X0243460Y0062360D03*
X0243460Y0062440D03*
X0243460Y0062480D03*
X0243460Y0062520D03*
X0243460Y0062560D03*
X0243460Y0062640D03*
X0243460Y0062680D03*
X0243460Y0062720D03*
X0243460Y0062760D03*
X0243460Y0062840D03*
X0243460Y0062880D03*
X0243460Y0062920D03*
X0243460Y0062960D03*
X0243460Y0063040D03*
X0243460Y0063080D03*
X0243460Y0063120D03*
X0243460Y0063160D03*
X0243460Y0063240D03*
X0243460Y0063280D03*
X0243460Y0063320D03*
X0243460Y0063360D03*
X0243460Y0063440D03*
X0243460Y0063480D03*
X0243460Y0063520D03*
X0243460Y0063560D03*
X0243460Y0063640D03*
X0243460Y0063680D03*
X0243460Y0063720D03*
X0243460Y0063760D03*
X0243460Y0063840D03*
X0243460Y0063880D03*
X0243460Y0063920D03*
X0243460Y0063960D03*
X0243460Y0064040D03*
X0243460Y0064080D03*
X0243460Y0064120D03*
X0243460Y0064160D03*
X0243460Y0064240D03*
X0243460Y0064280D03*
X0243460Y0064320D03*
X0243460Y0064360D03*
X0243460Y0064440D03*
X0243460Y0064480D03*
X0243460Y0064520D03*
X0243460Y0064560D03*
X0243460Y0064640D03*
X0243460Y0064680D03*
X0243460Y0064720D03*
X0243460Y0064760D03*
X0243460Y0064840D03*
X0243460Y0064880D03*
X0243460Y0064920D03*
X0243460Y0064960D03*
X0243460Y0065040D03*
X0243460Y0065080D03*
X0243460Y0065120D03*
X0243460Y0065160D03*
X0243460Y0065240D03*
X0243460Y0065280D03*
X0243460Y0065320D03*
X0243460Y0065360D03*
X0243460Y0065440D03*
X0243460Y0065480D03*
X0243460Y0065520D03*
X0243460Y0065560D03*
X0243460Y0065640D03*
X0243460Y0065680D03*
X0243460Y0065720D03*
X0243460Y0065760D03*
X0243460Y0065840D03*
X0243460Y0065880D03*
X0243460Y0065920D03*
X0243460Y0065960D03*
X0243460Y0066040D03*
X0243460Y0066080D03*
X0243460Y0066120D03*
X0243460Y0066160D03*
X0243460Y0066240D03*
X0243460Y0066280D03*
X0264740Y0087360D03*
X0264740Y0087440D03*
X0264740Y0092040D03*
X0264740Y0092080D03*
X0264740Y0092120D03*
X0256620Y0113240D03*
X0256620Y0113280D03*
X0256620Y0113320D03*
X0256620Y0113360D03*
X0256620Y0119120D03*
X0256620Y0119160D03*
X0256620Y0119240D03*
X0243460Y0119120D03*
X0243460Y0119080D03*
X0243460Y0119040D03*
X0243460Y0118960D03*
X0243460Y0118920D03*
X0243460Y0118880D03*
X0243460Y0118840D03*
X0243460Y0118760D03*
X0243460Y0118720D03*
X0243460Y0118680D03*
X0243460Y0118640D03*
X0243460Y0118560D03*
X0243460Y0118520D03*
X0243460Y0118480D03*
X0243460Y0118440D03*
X0243460Y0118360D03*
X0243460Y0118320D03*
X0243460Y0118280D03*
X0243460Y0118240D03*
X0243460Y0118160D03*
X0243460Y0118120D03*
X0243460Y0118080D03*
X0243460Y0118040D03*
X0243460Y0117960D03*
X0243460Y0117920D03*
X0243460Y0117880D03*
X0243460Y0117840D03*
X0243460Y0117760D03*
X0243460Y0117720D03*
X0243460Y0117680D03*
X0243460Y0117640D03*
X0243460Y0117560D03*
X0243460Y0117520D03*
X0243460Y0117480D03*
X0243460Y0117440D03*
X0243460Y0117360D03*
X0243460Y0117320D03*
X0243460Y0117280D03*
X0243460Y0117240D03*
X0243460Y0117160D03*
X0243460Y0117120D03*
X0243460Y0117080D03*
X0243460Y0117040D03*
X0243460Y0116960D03*
X0243460Y0116920D03*
X0243460Y0116880D03*
X0243460Y0116840D03*
X0243460Y0116760D03*
X0243460Y0116720D03*
X0243460Y0116680D03*
X0243460Y0116640D03*
X0243460Y0116560D03*
X0243460Y0116520D03*
X0243460Y0116480D03*
X0243460Y0116440D03*
X0243460Y0116360D03*
X0243460Y0116320D03*
X0243460Y0116280D03*
X0243460Y0116240D03*
X0243460Y0116160D03*
X0243460Y0116120D03*
X0243460Y0116080D03*
X0243460Y0116040D03*
X0243460Y0115960D03*
X0243460Y0115920D03*
X0243460Y0115880D03*
X0243460Y0115840D03*
X0243460Y0115760D03*
X0243460Y0115720D03*
X0243460Y0115680D03*
X0243460Y0115640D03*
X0243460Y0115560D03*
X0243460Y0115520D03*
X0243460Y0115480D03*
X0243460Y0115440D03*
X0243460Y0115360D03*
X0243460Y0115320D03*
X0243460Y0115280D03*
X0243460Y0115240D03*
X0243460Y0115160D03*
X0243460Y0115120D03*
X0243460Y0115080D03*
X0243460Y0115040D03*
X0243460Y0114960D03*
X0243460Y0114920D03*
X0243460Y0114880D03*
X0243460Y0114840D03*
X0243460Y0114760D03*
X0243460Y0114720D03*
X0243460Y0114680D03*
X0243460Y0114640D03*
X0243460Y0114560D03*
X0243460Y0114520D03*
X0243460Y0114480D03*
X0243460Y0114440D03*
X0243460Y0114360D03*
X0243460Y0114320D03*
X0243460Y0114280D03*
X0243460Y0114240D03*
X0243460Y0114160D03*
X0243460Y0114120D03*
X0243460Y0114080D03*
X0243460Y0114040D03*
X0243460Y0113960D03*
X0243460Y0113920D03*
X0243460Y0113880D03*
X0243460Y0113840D03*
X0243460Y0113760D03*
X0243460Y0113720D03*
X0243460Y0113680D03*
X0243460Y0113640D03*
X0243460Y0113560D03*
X0243460Y0113520D03*
X0243460Y0113480D03*
X0243460Y0113440D03*
X0243460Y0113160D03*
X0243460Y0113120D03*
D233*
X0243440Y0113080D03*
X0230280Y0113080D03*
X0230280Y0113120D03*
X0230280Y0113680D03*
X0230280Y0113720D03*
X0230280Y0113760D03*
X0230280Y0113840D03*
X0230280Y0113880D03*
X0230280Y0113920D03*
X0230280Y0113960D03*
X0230280Y0114040D03*
X0230280Y0114080D03*
X0230280Y0114120D03*
X0230280Y0114160D03*
X0230280Y0114240D03*
X0230280Y0114280D03*
X0230280Y0114320D03*
X0230280Y0114360D03*
X0230280Y0114440D03*
X0230280Y0114480D03*
X0230280Y0114520D03*
X0230280Y0114560D03*
X0230280Y0114640D03*
X0230280Y0114680D03*
X0230280Y0114720D03*
X0230280Y0114760D03*
X0230280Y0114840D03*
X0230280Y0114880D03*
X0230280Y0114920D03*
X0230280Y0114960D03*
X0230280Y0115040D03*
X0230280Y0115080D03*
X0230280Y0115120D03*
X0230280Y0115160D03*
X0230280Y0115240D03*
X0230280Y0115280D03*
X0230280Y0115320D03*
X0230280Y0115360D03*
X0230280Y0115440D03*
X0230280Y0115480D03*
X0230280Y0115520D03*
X0230280Y0115560D03*
X0230280Y0115640D03*
X0230280Y0115680D03*
X0230280Y0115720D03*
X0230280Y0115760D03*
X0230280Y0115840D03*
X0230280Y0115880D03*
X0230280Y0115920D03*
X0230280Y0115960D03*
X0230280Y0116040D03*
X0230280Y0116080D03*
X0230280Y0116120D03*
X0230280Y0116160D03*
X0230280Y0116240D03*
X0230280Y0116280D03*
X0230280Y0116320D03*
X0230280Y0116360D03*
X0230280Y0116440D03*
X0230280Y0116480D03*
X0230280Y0116520D03*
X0230280Y0116560D03*
X0230280Y0116640D03*
X0230280Y0116680D03*
X0230280Y0116720D03*
X0230280Y0116760D03*
X0230280Y0116840D03*
X0230280Y0116880D03*
X0230280Y0116920D03*
X0230280Y0116960D03*
X0230280Y0117040D03*
X0230280Y0117080D03*
X0230280Y0117120D03*
X0230280Y0117160D03*
X0230280Y0117240D03*
X0230280Y0117280D03*
X0230280Y0117320D03*
X0230280Y0117360D03*
X0230280Y0117440D03*
X0230280Y0117480D03*
X0230280Y0117520D03*
X0230280Y0117560D03*
X0230280Y0117640D03*
X0230280Y0117680D03*
X0230280Y0117720D03*
X0230280Y0117760D03*
X0230280Y0117840D03*
X0230280Y0117880D03*
X0230280Y0117920D03*
X0230280Y0117960D03*
X0230280Y0118040D03*
X0230280Y0118080D03*
X0230280Y0118120D03*
X0230280Y0118160D03*
X0230280Y0118240D03*
X0230280Y0118280D03*
X0230280Y0118320D03*
X0230280Y0118360D03*
X0230280Y0118440D03*
X0230280Y0118480D03*
X0230280Y0118520D03*
X0230280Y0118560D03*
X0230280Y0118640D03*
X0230280Y0118680D03*
X0230280Y0118720D03*
X0230280Y0118760D03*
X0230280Y0118840D03*
X0256600Y0118840D03*
X0256600Y0118880D03*
X0256600Y0118920D03*
X0256600Y0118960D03*
X0256600Y0119040D03*
X0256600Y0119080D03*
X0256600Y0118760D03*
X0256600Y0118720D03*
X0256600Y0118680D03*
X0256600Y0118640D03*
X0256600Y0118560D03*
X0256600Y0118520D03*
X0256600Y0118480D03*
X0256600Y0118440D03*
X0256600Y0118360D03*
X0256600Y0118320D03*
X0256600Y0118280D03*
X0256600Y0118240D03*
X0256600Y0118160D03*
X0256600Y0118120D03*
X0256600Y0118080D03*
X0256600Y0118040D03*
X0256600Y0117960D03*
X0256600Y0117920D03*
X0256600Y0117880D03*
X0256600Y0117840D03*
X0256600Y0117760D03*
X0256600Y0117720D03*
X0256600Y0117680D03*
X0256600Y0117640D03*
X0256600Y0117560D03*
X0256600Y0117520D03*
X0256600Y0117480D03*
X0256600Y0117440D03*
X0256600Y0117360D03*
X0256600Y0117320D03*
X0256600Y0117280D03*
X0256600Y0117240D03*
X0256600Y0117160D03*
X0256600Y0117120D03*
X0256600Y0117080D03*
X0256600Y0117040D03*
X0256600Y0116960D03*
X0256600Y0116920D03*
X0256600Y0116880D03*
X0256600Y0116840D03*
X0256600Y0116760D03*
X0256600Y0116720D03*
X0256600Y0116680D03*
X0256600Y0116640D03*
X0256600Y0116560D03*
X0256600Y0116520D03*
X0256600Y0116480D03*
X0256600Y0116440D03*
X0256600Y0116360D03*
X0256600Y0116320D03*
X0256600Y0116280D03*
X0256600Y0116240D03*
X0256600Y0116160D03*
X0256600Y0116120D03*
X0256600Y0116080D03*
X0256600Y0116040D03*
X0256600Y0115960D03*
X0256600Y0115920D03*
X0256600Y0115880D03*
X0256600Y0115840D03*
X0256600Y0115760D03*
X0256600Y0115720D03*
X0256600Y0115680D03*
X0256600Y0115640D03*
X0256600Y0115560D03*
X0256600Y0115520D03*
X0256600Y0115480D03*
X0256600Y0115440D03*
X0256600Y0115360D03*
X0256600Y0115320D03*
X0256600Y0115280D03*
X0256600Y0115240D03*
X0256600Y0115160D03*
X0256600Y0115120D03*
X0256600Y0115080D03*
X0256600Y0115040D03*
X0256600Y0114960D03*
X0256600Y0114920D03*
X0256600Y0114880D03*
X0256600Y0114840D03*
X0256600Y0114760D03*
X0256600Y0114720D03*
X0256600Y0114680D03*
X0256600Y0114640D03*
X0256600Y0114560D03*
X0256600Y0114520D03*
X0256600Y0114480D03*
X0256600Y0114440D03*
X0256600Y0114360D03*
X0256600Y0114320D03*
X0256600Y0114280D03*
X0256600Y0114240D03*
X0256600Y0114160D03*
X0256600Y0114120D03*
X0256600Y0114080D03*
X0256600Y0114040D03*
X0256600Y0113960D03*
X0256600Y0113920D03*
X0256600Y0113880D03*
X0256600Y0113840D03*
X0256600Y0113760D03*
X0256600Y0113720D03*
X0256600Y0113680D03*
X0256600Y0113640D03*
X0256600Y0113560D03*
X0256600Y0113520D03*
X0256600Y0113480D03*
X0256600Y0113440D03*
X0256600Y0113160D03*
X0264760Y0108640D03*
X0264760Y0108560D03*
X0264720Y0105280D03*
X0264720Y0100640D03*
X0264720Y0100560D03*
X0264720Y0100520D03*
X0264760Y0092160D03*
X0264760Y0087480D03*
X0264760Y0087320D03*
X0264720Y0078920D03*
X0264720Y0078880D03*
X0264720Y0078840D03*
X0264720Y0074240D03*
X0264720Y0074160D03*
X0264760Y0070920D03*
X0264760Y0070880D03*
X0264760Y0070840D03*
X0256600Y0066280D03*
X0256600Y0066240D03*
X0256600Y0066160D03*
X0256600Y0066120D03*
X0256600Y0066080D03*
X0256600Y0066040D03*
X0256600Y0065960D03*
X0256600Y0065920D03*
X0256600Y0065880D03*
X0256600Y0065840D03*
X0256600Y0065760D03*
X0256600Y0065720D03*
X0256600Y0065680D03*
X0256600Y0065640D03*
X0256600Y0065560D03*
X0256600Y0065520D03*
X0256600Y0065480D03*
X0256600Y0065440D03*
X0256600Y0065360D03*
X0256600Y0065320D03*
X0256600Y0065280D03*
X0256600Y0065240D03*
X0256600Y0065160D03*
X0256600Y0065120D03*
X0256600Y0065080D03*
X0256600Y0065040D03*
X0256600Y0064960D03*
X0256600Y0064920D03*
X0256600Y0064880D03*
X0256600Y0064840D03*
X0256600Y0064760D03*
X0256600Y0064720D03*
X0256600Y0064680D03*
X0256600Y0064640D03*
X0256600Y0064560D03*
X0256600Y0064520D03*
X0256600Y0064480D03*
X0256600Y0064440D03*
X0256600Y0064360D03*
X0256600Y0064320D03*
X0256600Y0064280D03*
X0256600Y0064240D03*
X0256600Y0064160D03*
X0256600Y0064120D03*
X0256600Y0064080D03*
X0256600Y0064040D03*
X0256600Y0063960D03*
X0256600Y0063920D03*
X0256600Y0063880D03*
X0256600Y0063840D03*
X0256600Y0063760D03*
X0256600Y0063720D03*
X0256600Y0063680D03*
X0256600Y0063640D03*
X0256600Y0063560D03*
X0256600Y0063520D03*
X0256600Y0063480D03*
X0256600Y0063440D03*
X0256600Y0063360D03*
X0256600Y0063320D03*
X0256600Y0063280D03*
X0256600Y0063240D03*
X0256600Y0063160D03*
X0256600Y0063120D03*
X0256600Y0063080D03*
X0256600Y0063040D03*
X0256600Y0062960D03*
X0256600Y0062920D03*
X0256600Y0062880D03*
X0256600Y0062840D03*
X0256600Y0062760D03*
X0256600Y0062720D03*
X0256600Y0062680D03*
X0256600Y0062640D03*
X0256600Y0062560D03*
X0256600Y0062520D03*
X0256600Y0062480D03*
X0256600Y0062440D03*
X0256600Y0062360D03*
X0256600Y0062320D03*
X0256600Y0062280D03*
X0256600Y0062240D03*
X0256600Y0062160D03*
X0256600Y0062120D03*
X0256600Y0062080D03*
X0256600Y0062040D03*
X0256600Y0061960D03*
X0256600Y0061920D03*
X0256600Y0061880D03*
X0256600Y0061840D03*
X0256600Y0061760D03*
X0256600Y0061720D03*
X0256600Y0061680D03*
X0256600Y0061640D03*
X0256600Y0061560D03*
X0256600Y0061520D03*
X0256600Y0061480D03*
X0256600Y0061440D03*
X0256600Y0061360D03*
X0256600Y0061320D03*
X0256600Y0061280D03*
X0256600Y0061240D03*
X0256600Y0061160D03*
X0256600Y0061120D03*
X0256600Y0061080D03*
X0256600Y0061040D03*
X0256600Y0060960D03*
X0256600Y0060920D03*
X0256600Y0060880D03*
X0256600Y0060840D03*
X0256600Y0060760D03*
X0256600Y0060720D03*
X0256600Y0060680D03*
X0256600Y0060640D03*
X0256600Y0060560D03*
X0256600Y0060520D03*
X0256600Y0060480D03*
X0256600Y0060440D03*
X0256600Y0060360D03*
X0256600Y0060320D03*
X0243440Y0066320D03*
X0243440Y0066360D03*
X0230280Y0066320D03*
X0230280Y0066280D03*
X0230280Y0065760D03*
X0230280Y0065640D03*
X0230280Y0065560D03*
X0230280Y0065520D03*
X0230280Y0065480D03*
X0230280Y0065440D03*
X0230280Y0065360D03*
X0230280Y0065320D03*
X0230280Y0065280D03*
X0230280Y0065240D03*
X0230280Y0065160D03*
X0230280Y0065120D03*
X0230280Y0065080D03*
X0230280Y0065040D03*
X0230280Y0064960D03*
X0230280Y0064920D03*
X0230280Y0064880D03*
X0230280Y0064840D03*
X0230280Y0064760D03*
X0230280Y0064720D03*
X0230280Y0064680D03*
X0230280Y0064640D03*
X0230280Y0064560D03*
X0230280Y0064520D03*
X0230280Y0064480D03*
X0230280Y0064440D03*
X0230280Y0064360D03*
X0230280Y0064320D03*
X0230280Y0064280D03*
X0230280Y0064240D03*
X0230280Y0064160D03*
X0230280Y0064120D03*
X0230280Y0064080D03*
X0230280Y0064040D03*
X0230280Y0063960D03*
X0230280Y0063920D03*
X0230280Y0063880D03*
X0230280Y0063840D03*
X0230280Y0063760D03*
X0230280Y0063720D03*
X0230280Y0063680D03*
X0230280Y0063640D03*
X0230280Y0063560D03*
X0230280Y0063520D03*
X0230280Y0063480D03*
X0230280Y0063440D03*
X0230280Y0063360D03*
X0230280Y0063320D03*
X0230280Y0063280D03*
X0230280Y0063240D03*
X0230280Y0063160D03*
X0230280Y0063120D03*
X0230280Y0063080D03*
X0230280Y0063040D03*
X0230280Y0062960D03*
X0230280Y0062920D03*
X0230280Y0062880D03*
X0230280Y0062840D03*
X0230280Y0062760D03*
X0230280Y0062720D03*
X0230280Y0062680D03*
X0230280Y0062640D03*
X0230280Y0062560D03*
X0230280Y0062520D03*
X0230280Y0062480D03*
X0230280Y0062440D03*
X0230280Y0062360D03*
X0230280Y0062320D03*
X0230280Y0062280D03*
X0230280Y0062240D03*
X0230280Y0062160D03*
X0230280Y0062120D03*
X0230280Y0062080D03*
X0230280Y0062040D03*
X0230280Y0061960D03*
X0230280Y0061920D03*
X0230280Y0061880D03*
X0230280Y0061840D03*
X0230280Y0061760D03*
X0230280Y0061720D03*
X0230280Y0061680D03*
X0230280Y0061640D03*
X0230280Y0061560D03*
X0230280Y0061520D03*
X0230280Y0061480D03*
X0230280Y0061440D03*
X0230280Y0061360D03*
X0230280Y0061320D03*
X0230280Y0061280D03*
X0230280Y0061240D03*
X0230280Y0061160D03*
X0230280Y0061120D03*
X0230280Y0061080D03*
X0230280Y0061040D03*
X0230280Y0060960D03*
X0230280Y0060920D03*
X0230280Y0060880D03*
X0230280Y0060840D03*
X0230280Y0060760D03*
X0230280Y0060720D03*
X0230280Y0060680D03*
X0230280Y0060640D03*
X0230280Y0060520D03*
X0230280Y0060480D03*
D234*
X0230300Y0060440D03*
X0230300Y0060360D03*
X0230300Y0060560D03*
X0230300Y0065680D03*
X0230300Y0065720D03*
X0230300Y0065840D03*
X0230300Y0065880D03*
X0230300Y0065920D03*
X0230300Y0065960D03*
X0230300Y0066040D03*
X0230300Y0066080D03*
X0230300Y0066120D03*
X0230300Y0066160D03*
X0230300Y0066240D03*
X0230300Y0113160D03*
X0230300Y0113440D03*
X0230300Y0113480D03*
X0230300Y0113520D03*
X0230300Y0113560D03*
X0230300Y0113640D03*
X0230300Y0118880D03*
X0230300Y0118920D03*
X0230300Y0118960D03*
X0230300Y0119040D03*
X0230300Y0119080D03*
D235*
X0230300Y0119000D03*
X0230300Y0113600D03*
X0230300Y0113400D03*
X0230300Y0066200D03*
X0230300Y0066000D03*
X0230300Y0065800D03*
X0230300Y0060600D03*
X0230300Y0060400D03*
D236*
X0230280Y0060800D03*
X0230280Y0061000D03*
X0230280Y0061200D03*
X0230280Y0061400D03*
X0230280Y0061600D03*
X0230280Y0061800D03*
X0230280Y0062000D03*
X0230280Y0062200D03*
X0230280Y0062400D03*
X0230280Y0062600D03*
X0230280Y0062800D03*
X0230280Y0063000D03*
X0230280Y0063200D03*
X0230280Y0063400D03*
X0230280Y0063600D03*
X0230280Y0063800D03*
X0230280Y0064000D03*
X0230280Y0064200D03*
X0230280Y0064400D03*
X0230280Y0064600D03*
X0230280Y0064800D03*
X0230280Y0065000D03*
X0230280Y0065200D03*
X0230280Y0065400D03*
X0230280Y0065600D03*
X0256600Y0065600D03*
X0256600Y0065800D03*
X0256600Y0066000D03*
X0256600Y0066200D03*
X0256600Y0065400D03*
X0256600Y0065200D03*
X0256600Y0065000D03*
X0256600Y0064800D03*
X0256600Y0064600D03*
X0256600Y0064400D03*
X0256600Y0064200D03*
X0256600Y0064000D03*
X0256600Y0063800D03*
X0256600Y0063600D03*
X0256600Y0063400D03*
X0256600Y0063200D03*
X0256600Y0063000D03*
X0256600Y0062800D03*
X0256600Y0062600D03*
X0256600Y0062400D03*
X0256600Y0062200D03*
X0256600Y0062000D03*
X0256600Y0061800D03*
X0256600Y0061600D03*
X0256600Y0061400D03*
X0256600Y0061200D03*
X0256600Y0061000D03*
X0256600Y0060800D03*
X0256600Y0060600D03*
X0256600Y0060400D03*
X0264720Y0074200D03*
X0264760Y0092000D03*
X0264720Y0100600D03*
X0264760Y0108600D03*
X0256600Y0113200D03*
X0256600Y0113400D03*
X0256600Y0113600D03*
X0256600Y0113800D03*
X0256600Y0114000D03*
X0256600Y0114200D03*
X0256600Y0114400D03*
X0256600Y0114600D03*
X0256600Y0114800D03*
X0256600Y0115000D03*
X0256600Y0115200D03*
X0256600Y0115400D03*
X0256600Y0115600D03*
X0256600Y0115800D03*
X0256600Y0116000D03*
X0256600Y0116200D03*
X0256600Y0116400D03*
X0256600Y0116600D03*
X0256600Y0116800D03*
X0256600Y0117000D03*
X0256600Y0117200D03*
X0256600Y0117400D03*
X0256600Y0117600D03*
X0256600Y0117800D03*
X0256600Y0118000D03*
X0256600Y0118200D03*
X0256600Y0118400D03*
X0256600Y0118600D03*
X0256600Y0118800D03*
X0256600Y0119000D03*
X0230280Y0118800D03*
X0230280Y0118600D03*
X0230280Y0118400D03*
X0230280Y0118200D03*
X0230280Y0118000D03*
X0230280Y0117800D03*
X0230280Y0117600D03*
X0230280Y0117400D03*
X0230280Y0117200D03*
X0230280Y0117000D03*
X0230280Y0116800D03*
X0230280Y0116600D03*
X0230280Y0116400D03*
X0230280Y0116200D03*
X0230280Y0116000D03*
X0230280Y0115800D03*
X0230280Y0115600D03*
X0230280Y0115400D03*
X0230280Y0115200D03*
X0230280Y0115000D03*
X0230280Y0114800D03*
X0230280Y0114600D03*
X0230280Y0114400D03*
X0230280Y0114200D03*
X0230280Y0114000D03*
X0230280Y0113800D03*
D237*
X0222140Y0105320D03*
X0222140Y0105280D03*
X0222140Y0105240D03*
X0222140Y0100680D03*
X0222140Y0100640D03*
X0222140Y0100560D03*
X0222140Y0100520D03*
X0222140Y0100480D03*
X0222140Y0092160D03*
X0222140Y0092120D03*
X0222140Y0092080D03*
X0222140Y0092040D03*
X0222140Y0087480D03*
X0222140Y0087440D03*
X0222140Y0087360D03*
X0222140Y0087320D03*
X0222140Y0078960D03*
X0222140Y0078920D03*
X0222140Y0078880D03*
X0222140Y0078840D03*
X0222140Y0074240D03*
X0222140Y0074160D03*
X0222140Y0074120D03*
X0256580Y0066360D03*
X0256580Y0066320D03*
X0264740Y0070640D03*
X0264740Y0070680D03*
X0264740Y0070720D03*
X0264740Y0070760D03*
X0264740Y0070960D03*
X0264740Y0071040D03*
X0264740Y0071080D03*
X0264740Y0071120D03*
X0264740Y0071160D03*
X0264740Y0071240D03*
X0264740Y0071280D03*
X0264740Y0071320D03*
X0264740Y0071360D03*
X0264740Y0071440D03*
X0264740Y0071480D03*
X0264740Y0071520D03*
X0264740Y0071560D03*
X0264740Y0071640D03*
X0264740Y0071680D03*
X0264740Y0071720D03*
X0264740Y0071760D03*
X0264740Y0071840D03*
X0264740Y0071880D03*
X0264740Y0071920D03*
X0264740Y0071960D03*
X0264740Y0072040D03*
X0264740Y0072080D03*
X0264740Y0072120D03*
X0264740Y0072160D03*
X0264740Y0072240D03*
X0264740Y0072280D03*
X0264740Y0072320D03*
X0264740Y0072360D03*
X0264740Y0072440D03*
X0264740Y0072480D03*
X0264740Y0072520D03*
X0264740Y0072560D03*
X0264740Y0072640D03*
X0264740Y0072680D03*
X0264740Y0072720D03*
X0264740Y0072760D03*
X0264740Y0072840D03*
X0264740Y0072880D03*
X0264740Y0072920D03*
X0264740Y0072960D03*
X0264740Y0073040D03*
X0264740Y0073080D03*
X0264740Y0073120D03*
X0264740Y0073160D03*
X0264740Y0073240D03*
X0264740Y0073280D03*
X0264740Y0073320D03*
X0264740Y0073360D03*
X0264740Y0073440D03*
X0264740Y0073480D03*
X0264740Y0073520D03*
X0264740Y0073560D03*
X0264740Y0073640D03*
X0264740Y0073680D03*
X0264740Y0073720D03*
X0264740Y0073760D03*
X0264740Y0073840D03*
X0264740Y0073880D03*
X0264740Y0073920D03*
X0264740Y0073960D03*
X0264740Y0074040D03*
X0264740Y0074080D03*
X0264740Y0074120D03*
X0264740Y0074280D03*
X0264740Y0074320D03*
X0264740Y0078760D03*
X0264740Y0078960D03*
X0264740Y0079040D03*
X0264740Y0079080D03*
X0264740Y0079120D03*
X0264740Y0079160D03*
X0264740Y0079240D03*
X0264740Y0079280D03*
X0264740Y0079320D03*
X0264740Y0079360D03*
X0264740Y0079440D03*
X0264740Y0079480D03*
X0264740Y0079520D03*
X0264740Y0079560D03*
X0264740Y0079640D03*
X0264740Y0079680D03*
X0264740Y0079720D03*
X0264740Y0079760D03*
X0264740Y0079840D03*
X0264740Y0079880D03*
X0264740Y0079920D03*
X0264740Y0079960D03*
X0264740Y0080040D03*
X0264740Y0080080D03*
X0264740Y0080120D03*
X0264740Y0080160D03*
X0264740Y0080240D03*
X0264740Y0080280D03*
X0264740Y0080320D03*
X0264740Y0080360D03*
X0264740Y0080440D03*
X0264740Y0080480D03*
X0264740Y0080520D03*
X0264740Y0080560D03*
X0264740Y0080640D03*
X0264740Y0080680D03*
X0264740Y0080720D03*
X0264740Y0080760D03*
X0264740Y0080840D03*
X0264740Y0080880D03*
X0264740Y0080920D03*
X0264740Y0080960D03*
X0264740Y0081040D03*
X0264740Y0081080D03*
X0264740Y0081120D03*
X0264740Y0081160D03*
X0264740Y0081240D03*
X0264740Y0081280D03*
X0264740Y0081320D03*
X0264740Y0081360D03*
X0264740Y0081440D03*
X0264740Y0081480D03*
X0264740Y0081520D03*
X0264740Y0081560D03*
X0264740Y0081640D03*
X0264740Y0081680D03*
X0264740Y0081720D03*
X0264740Y0081760D03*
X0264740Y0081840D03*
X0264740Y0081880D03*
X0264740Y0081920D03*
X0264740Y0081960D03*
X0264740Y0082040D03*
X0264740Y0082080D03*
X0264740Y0082120D03*
X0264740Y0082160D03*
X0264740Y0082240D03*
X0264740Y0082280D03*
X0264740Y0082320D03*
X0264740Y0082360D03*
X0264740Y0082440D03*
X0264740Y0082480D03*
X0264740Y0082520D03*
X0264740Y0082560D03*
X0264740Y0082640D03*
X0264740Y0082680D03*
X0264740Y0082720D03*
X0264740Y0082760D03*
X0264740Y0082840D03*
X0264740Y0082880D03*
X0264740Y0082920D03*
X0264740Y0082960D03*
X0264740Y0083040D03*
X0264740Y0083080D03*
X0264740Y0083120D03*
X0264740Y0083160D03*
X0264740Y0083240D03*
X0264740Y0083280D03*
X0264740Y0083320D03*
X0264740Y0083360D03*
X0264740Y0083440D03*
X0264740Y0083480D03*
X0264740Y0083520D03*
X0264740Y0083560D03*
X0264740Y0083640D03*
X0264740Y0083680D03*
X0264740Y0083720D03*
X0264740Y0083760D03*
X0264740Y0083840D03*
X0264740Y0083880D03*
X0264740Y0083920D03*
X0264740Y0083960D03*
X0264740Y0084040D03*
X0264740Y0084080D03*
X0264740Y0084120D03*
X0264740Y0084160D03*
X0264740Y0084240D03*
X0264740Y0084280D03*
X0264740Y0084320D03*
X0264740Y0084360D03*
X0264740Y0084440D03*
X0264740Y0084480D03*
X0264740Y0084520D03*
X0264740Y0084560D03*
X0264740Y0084640D03*
X0264740Y0084680D03*
X0264740Y0084720D03*
X0264740Y0084760D03*
X0264740Y0084840D03*
X0264740Y0084880D03*
X0264740Y0084920D03*
X0264740Y0084960D03*
X0264740Y0085040D03*
X0264740Y0085080D03*
X0264740Y0085120D03*
X0264740Y0085160D03*
X0264740Y0085240D03*
X0264740Y0085280D03*
X0264740Y0085320D03*
X0264740Y0085360D03*
X0264740Y0085440D03*
X0264740Y0085480D03*
X0264740Y0085520D03*
X0264740Y0085560D03*
X0264740Y0085640D03*
X0264740Y0085680D03*
X0264740Y0085720D03*
X0264740Y0085760D03*
X0264740Y0085840D03*
X0264740Y0085880D03*
X0264740Y0085920D03*
X0264740Y0085960D03*
X0264740Y0086040D03*
X0264740Y0086080D03*
X0264740Y0086120D03*
X0264740Y0086160D03*
X0264740Y0086240D03*
X0264740Y0086280D03*
X0264740Y0086320D03*
X0264740Y0086360D03*
X0264740Y0086440D03*
X0264740Y0086480D03*
X0264740Y0086520D03*
X0264740Y0086560D03*
X0264740Y0086640D03*
X0264740Y0086680D03*
X0264740Y0086720D03*
X0264740Y0086760D03*
X0264740Y0086840D03*
X0264740Y0086880D03*
X0264740Y0086920D03*
X0264740Y0086960D03*
X0264740Y0087040D03*
X0264740Y0087080D03*
X0264740Y0087120D03*
X0264740Y0087160D03*
X0264740Y0087240D03*
X0264740Y0087280D03*
X0264740Y0087520D03*
X0264740Y0091960D03*
X0264740Y0092240D03*
X0264740Y0092280D03*
X0264740Y0092320D03*
X0264740Y0092360D03*
X0264740Y0092440D03*
X0264740Y0092480D03*
X0264740Y0092520D03*
X0264740Y0092560D03*
X0264740Y0092640D03*
X0264740Y0092680D03*
X0264740Y0092720D03*
X0264740Y0092760D03*
X0264740Y0092840D03*
X0264740Y0092880D03*
X0264740Y0092920D03*
X0264740Y0092960D03*
X0264740Y0093040D03*
X0264740Y0093080D03*
X0264740Y0093120D03*
X0264740Y0093160D03*
X0264740Y0093240D03*
X0264740Y0093280D03*
X0264740Y0093320D03*
X0264740Y0093360D03*
X0264740Y0093440D03*
X0264740Y0093480D03*
X0264740Y0093520D03*
X0264740Y0093560D03*
X0264740Y0093640D03*
X0264740Y0093680D03*
X0264740Y0093720D03*
X0264740Y0093760D03*
X0264740Y0093840D03*
X0264740Y0093880D03*
X0264740Y0093920D03*
X0264740Y0093960D03*
X0264740Y0094040D03*
X0264740Y0094080D03*
X0264740Y0094120D03*
X0264740Y0094160D03*
X0264740Y0094240D03*
X0264740Y0094280D03*
X0264740Y0094320D03*
X0264740Y0094360D03*
X0264740Y0094440D03*
X0264740Y0094480D03*
X0264740Y0094520D03*
X0264740Y0094560D03*
X0264740Y0094640D03*
X0264740Y0094680D03*
X0264740Y0094720D03*
X0264740Y0094760D03*
X0264740Y0094840D03*
X0264740Y0094880D03*
X0264740Y0094920D03*
X0264740Y0094960D03*
X0264740Y0095040D03*
X0264740Y0095080D03*
X0264740Y0095120D03*
X0264740Y0095160D03*
X0264740Y0095240D03*
X0264740Y0095280D03*
X0264740Y0095320D03*
X0264740Y0095360D03*
X0264740Y0095440D03*
X0264740Y0095480D03*
X0264740Y0095520D03*
X0264740Y0095560D03*
X0264740Y0095640D03*
X0264740Y0095680D03*
X0264740Y0095720D03*
X0264740Y0095760D03*
X0264740Y0095840D03*
X0264740Y0095880D03*
X0264740Y0095920D03*
X0264740Y0095960D03*
X0264740Y0096040D03*
X0264740Y0096080D03*
X0264740Y0096120D03*
X0264740Y0096160D03*
X0264740Y0096240D03*
X0264740Y0096280D03*
X0264740Y0096320D03*
X0264740Y0096360D03*
X0264740Y0096440D03*
X0264740Y0096480D03*
X0264740Y0096520D03*
X0264740Y0096560D03*
X0264740Y0096640D03*
X0264740Y0096680D03*
X0264740Y0096720D03*
X0264740Y0096760D03*
X0264740Y0096840D03*
X0264740Y0096880D03*
X0264740Y0096920D03*
X0264740Y0096960D03*
X0264740Y0097040D03*
X0264740Y0097080D03*
X0264740Y0097120D03*
X0264740Y0097160D03*
X0264740Y0097240D03*
X0264740Y0097280D03*
X0264740Y0097320D03*
X0264740Y0097360D03*
X0264740Y0097440D03*
X0264740Y0097480D03*
X0264740Y0097520D03*
X0264740Y0097560D03*
X0264740Y0097640D03*
X0264740Y0097680D03*
X0264740Y0097720D03*
X0264740Y0097760D03*
X0264740Y0097840D03*
X0264740Y0097880D03*
X0264740Y0097920D03*
X0264740Y0097960D03*
X0264740Y0098040D03*
X0264740Y0098080D03*
X0264740Y0098120D03*
X0264740Y0098160D03*
X0264740Y0098240D03*
X0264740Y0098280D03*
X0264740Y0098320D03*
X0264740Y0098360D03*
X0264740Y0098440D03*
X0264740Y0098480D03*
X0264740Y0098520D03*
X0264740Y0098560D03*
X0264740Y0098640D03*
X0264740Y0098680D03*
X0264740Y0098720D03*
X0264740Y0098760D03*
X0264740Y0098840D03*
X0264740Y0098880D03*
X0264740Y0098920D03*
X0264740Y0098960D03*
X0264740Y0099040D03*
X0264740Y0099080D03*
X0264740Y0099120D03*
X0264740Y0099160D03*
X0264740Y0099240D03*
X0264740Y0099280D03*
X0264740Y0099320D03*
X0264740Y0099360D03*
X0264740Y0099440D03*
X0264740Y0099480D03*
X0264740Y0099520D03*
X0264740Y0099560D03*
X0264740Y0099640D03*
X0264740Y0099680D03*
X0264740Y0099720D03*
X0264740Y0099760D03*
X0264740Y0099840D03*
X0264740Y0099880D03*
X0264740Y0099920D03*
X0264740Y0099960D03*
X0264740Y0100040D03*
X0264740Y0100080D03*
X0264740Y0100120D03*
X0264740Y0100160D03*
X0264740Y0100240D03*
X0264740Y0100280D03*
X0264740Y0100320D03*
X0264740Y0100360D03*
X0264740Y0100440D03*
X0264740Y0100480D03*
X0264740Y0100680D03*
X0264740Y0100720D03*
X0264740Y0105160D03*
X0264740Y0105240D03*
X0264740Y0105320D03*
X0264740Y0105360D03*
X0264740Y0105440D03*
X0264740Y0105480D03*
X0264740Y0105520D03*
X0264740Y0105560D03*
X0264740Y0105640D03*
X0264740Y0105680D03*
X0264740Y0105720D03*
X0264740Y0105760D03*
X0264740Y0105840D03*
X0264740Y0105880D03*
X0264740Y0105920D03*
X0264740Y0105960D03*
X0264740Y0106040D03*
X0264740Y0106080D03*
X0264740Y0106120D03*
X0264740Y0106160D03*
X0264740Y0106240D03*
X0264740Y0106280D03*
X0264740Y0106320D03*
X0264740Y0106360D03*
X0264740Y0106440D03*
X0264740Y0106480D03*
X0264740Y0106520D03*
X0264740Y0106560D03*
X0264740Y0106640D03*
X0264740Y0106680D03*
X0264740Y0106720D03*
X0264740Y0106760D03*
X0264740Y0106840D03*
X0264740Y0106880D03*
X0264740Y0106920D03*
X0264740Y0106960D03*
X0264740Y0107040D03*
X0264740Y0107080D03*
X0264740Y0107120D03*
X0264740Y0107160D03*
X0264740Y0107240D03*
X0264740Y0107280D03*
X0264740Y0107320D03*
X0264740Y0107360D03*
X0264740Y0107440D03*
X0264740Y0107480D03*
X0264740Y0107520D03*
X0264740Y0107560D03*
X0264740Y0107640D03*
X0264740Y0107680D03*
X0264740Y0107720D03*
X0264740Y0107760D03*
X0264740Y0107840D03*
X0264740Y0107880D03*
X0264740Y0107920D03*
X0264740Y0107960D03*
X0264740Y0108040D03*
X0264740Y0108080D03*
X0264740Y0108120D03*
X0264740Y0108160D03*
X0264740Y0108240D03*
X0264740Y0108280D03*
X0264740Y0108320D03*
X0264740Y0108360D03*
X0264740Y0108440D03*
X0264740Y0108480D03*
X0264740Y0108520D03*
X0264740Y0108680D03*
X0264740Y0108720D03*
X0264740Y0108760D03*
X0264740Y0108840D03*
X0256580Y0113080D03*
X0256580Y0113120D03*
X0236340Y0102080D03*
D238*
X0230300Y0066360D03*
D239*
X0230300Y0066400D03*
D240*
X0243440Y0066400D03*
X0264760Y0074400D03*
X0264760Y0087600D03*
X0264760Y0100800D03*
D241*
X0256580Y0066400D03*
D242*
X0230320Y0066440D03*
X0222160Y0070520D03*
X0222160Y0070560D03*
X0264760Y0091840D03*
X0264680Y0108960D03*
X0256560Y0113040D03*
X0222160Y0108920D03*
X0222160Y0108880D03*
D243*
X0264780Y0105040D03*
X0264780Y0074440D03*
X0243420Y0066440D03*
D244*
X0256540Y0066440D03*
X0264660Y0070480D03*
X0264820Y0074480D03*
X0264780Y0087640D03*
X0222060Y0074480D03*
X0222180Y0070480D03*
X0222060Y0104960D03*
X0222180Y0108960D03*
D245*
X0221960Y0104880D03*
X0264920Y0104880D03*
X0264800Y0091760D03*
X0243440Y0066480D03*
X0230320Y0066480D03*
D246*
X0222260Y0070440D03*
X0221980Y0074560D03*
X0221980Y0091720D03*
X0256540Y0066480D03*
D247*
X0230300Y0066520D03*
D248*
X0243460Y0066520D03*
D249*
X0256580Y0066520D03*
D250*
X0243460Y0066560D03*
D251*
X0243460Y0066600D03*
D252*
X0243440Y0066640D03*
X0243440Y0112760D03*
D253*
X0243440Y0112720D03*
X0243440Y0066680D03*
D254*
X0243460Y0066720D03*
X0243460Y0112680D03*
D255*
X0243440Y0066760D03*
D256*
X0243460Y0066800D03*
D257*
X0243460Y0066840D03*
D258*
X0243460Y0066880D03*
D259*
X0243440Y0066920D03*
D260*
X0243460Y0066960D03*
X0243460Y0112520D03*
D261*
X0243460Y0067000D03*
D262*
X0243460Y0067040D03*
X0243460Y0112440D03*
D263*
X0243460Y0112360D03*
X0243460Y0067080D03*
D264*
X0243440Y0067120D03*
X0243440Y0112320D03*
D265*
X0243460Y0112280D03*
X0243460Y0067160D03*
D266*
X0243440Y0067200D03*
D267*
X0243460Y0067240D03*
D268*
X0243440Y0067280D03*
D269*
X0243440Y0067320D03*
X0243440Y0112120D03*
D270*
X0243440Y0067360D03*
D271*
X0243460Y0067400D03*
D272*
X0243460Y0067440D03*
X0243460Y0067480D03*
X0243460Y0111960D03*
D273*
X0243440Y0111920D03*
X0243440Y0111880D03*
X0243440Y0067520D03*
D274*
X0243460Y0067560D03*
X0243460Y0067640D03*
X0243460Y0111840D03*
D275*
X0243460Y0111800D03*
X0243460Y0067600D03*
D276*
X0243440Y0067680D03*
X0243440Y0067720D03*
X0243440Y0111720D03*
X0243440Y0111760D03*
D277*
X0243460Y0111680D03*
X0243460Y0111640D03*
X0243460Y0067840D03*
X0243460Y0067760D03*
D278*
X0243460Y0067800D03*
X0243460Y0111600D03*
D279*
X0243440Y0111560D03*
X0243440Y0111520D03*
X0243440Y0111480D03*
X0243440Y0111440D03*
X0243440Y0067960D03*
X0243440Y0067920D03*
X0243440Y0067880D03*
D280*
X0243440Y0068000D03*
D281*
X0243460Y0068040D03*
D282*
X0243440Y0068080D03*
X0243440Y0068120D03*
X0243440Y0068160D03*
X0243440Y0111280D03*
X0243440Y0111320D03*
X0243440Y0111360D03*
D283*
X0243420Y0068200D03*
D284*
X0243440Y0068240D03*
X0243440Y0111240D03*
D285*
X0243420Y0111160D03*
X0243420Y0111120D03*
X0243420Y0068320D03*
X0243420Y0068280D03*
D286*
X0243440Y0068360D03*
X0243440Y0111040D03*
X0243440Y0111080D03*
D287*
X0243420Y0111000D03*
X0243420Y0068400D03*
D288*
X0243420Y0068440D03*
X0243420Y0068480D03*
X0243420Y0068520D03*
X0243420Y0110920D03*
X0243420Y0110960D03*
D289*
X0243440Y0110880D03*
X0243440Y0068560D03*
D290*
X0243440Y0068600D03*
D291*
X0243420Y0068640D03*
X0243420Y0068680D03*
X0243420Y0068720D03*
X0243420Y0068760D03*
X0243420Y0068840D03*
X0243420Y0068880D03*
X0243420Y0068920D03*
X0243420Y0068960D03*
X0243420Y0069040D03*
X0243420Y0069080D03*
X0243420Y0069120D03*
X0243420Y0069160D03*
X0243420Y0069240D03*
X0243420Y0069280D03*
X0243420Y0069320D03*
X0243420Y0069360D03*
X0243420Y0069440D03*
X0243420Y0069480D03*
X0243420Y0069520D03*
X0243420Y0069560D03*
X0243420Y0069640D03*
X0243420Y0069680D03*
X0243420Y0069720D03*
X0243420Y0069760D03*
X0243420Y0069840D03*
X0243420Y0069880D03*
X0243420Y0069920D03*
X0243420Y0069960D03*
X0243420Y0070040D03*
X0243420Y0070080D03*
X0243420Y0070120D03*
X0243420Y0070160D03*
X0243420Y0070240D03*
X0243420Y0070280D03*
X0243420Y0070320D03*
X0243420Y0070360D03*
X0243420Y0109040D03*
X0243420Y0109080D03*
X0243420Y0109120D03*
X0243420Y0109160D03*
X0243420Y0109240D03*
X0243420Y0109280D03*
X0243420Y0109320D03*
X0243420Y0109360D03*
X0243420Y0109440D03*
X0243420Y0109480D03*
X0243420Y0109520D03*
X0243420Y0109560D03*
X0243420Y0109640D03*
X0243420Y0109680D03*
X0243420Y0109720D03*
X0243420Y0109760D03*
X0243420Y0109840D03*
X0243420Y0109880D03*
X0243420Y0109920D03*
X0243420Y0109960D03*
X0243420Y0110040D03*
X0243420Y0110080D03*
X0243420Y0110120D03*
X0243420Y0110160D03*
X0243420Y0110240D03*
X0243420Y0110280D03*
X0243420Y0110320D03*
X0243420Y0110360D03*
X0243420Y0110440D03*
X0243420Y0110480D03*
X0243420Y0110520D03*
X0243420Y0110560D03*
X0243420Y0110640D03*
X0243420Y0110680D03*
X0243420Y0110720D03*
X0243420Y0110760D03*
X0243420Y0110840D03*
D292*
X0243420Y0110800D03*
X0243420Y0110600D03*
X0243420Y0110400D03*
X0243420Y0110200D03*
X0243420Y0110000D03*
X0243420Y0109800D03*
X0243420Y0109600D03*
X0243420Y0109400D03*
X0243420Y0109200D03*
X0243420Y0070400D03*
X0243420Y0070200D03*
X0243420Y0070000D03*
X0243420Y0069800D03*
X0243420Y0069600D03*
X0243420Y0069400D03*
X0243420Y0069200D03*
X0243420Y0069000D03*
X0243420Y0068800D03*
D293*
X0264540Y0070440D03*
D294*
X0264700Y0070520D03*
X0222140Y0070640D03*
X0222140Y0070680D03*
X0222100Y0074440D03*
X0222100Y0078640D03*
X0222100Y0078680D03*
X0222100Y0087640D03*
X0222100Y0091840D03*
X0222100Y0091880D03*
X0222100Y0100840D03*
X0222100Y0105040D03*
X0222140Y0108840D03*
X0264700Y0108920D03*
D295*
X0264720Y0108880D03*
X0230320Y0113040D03*
X0222120Y0108760D03*
X0222120Y0108720D03*
X0222120Y0108680D03*
X0222120Y0108640D03*
X0222120Y0108560D03*
X0222120Y0108520D03*
X0222120Y0108480D03*
X0222120Y0108440D03*
X0222120Y0108360D03*
X0222120Y0108320D03*
X0222120Y0108280D03*
X0222120Y0108240D03*
X0222120Y0108160D03*
X0222120Y0108120D03*
X0222120Y0108080D03*
X0222120Y0108040D03*
X0222120Y0107960D03*
X0222120Y0107920D03*
X0222120Y0107880D03*
X0222120Y0107840D03*
X0222120Y0107760D03*
X0222120Y0107720D03*
X0222120Y0107680D03*
X0222120Y0107640D03*
X0222120Y0107560D03*
X0222120Y0107520D03*
X0222120Y0107480D03*
X0222120Y0107440D03*
X0222120Y0107360D03*
X0222120Y0107320D03*
X0222120Y0107280D03*
X0222120Y0107240D03*
X0222120Y0107160D03*
X0222120Y0107120D03*
X0222120Y0107080D03*
X0222120Y0107040D03*
X0222120Y0106960D03*
X0222120Y0106920D03*
X0222120Y0106880D03*
X0222120Y0106840D03*
X0222120Y0106760D03*
X0222120Y0106720D03*
X0222120Y0106680D03*
X0222120Y0106640D03*
X0222120Y0106560D03*
X0222120Y0106520D03*
X0222120Y0106480D03*
X0222120Y0106440D03*
X0222120Y0106360D03*
X0222120Y0106320D03*
X0222120Y0106280D03*
X0222120Y0106240D03*
X0222120Y0106160D03*
X0222120Y0106120D03*
X0222120Y0106080D03*
X0222120Y0106040D03*
X0222120Y0105960D03*
X0222120Y0105920D03*
X0222120Y0105880D03*
X0222120Y0105840D03*
X0222120Y0105760D03*
X0222120Y0105720D03*
X0222120Y0105680D03*
X0222120Y0105640D03*
X0222120Y0105560D03*
X0222120Y0105520D03*
X0222120Y0105480D03*
X0222120Y0105440D03*
X0222120Y0105360D03*
X0222120Y0105160D03*
X0222120Y0105120D03*
X0222120Y0105080D03*
X0222120Y0100760D03*
X0222120Y0100720D03*
X0222120Y0100440D03*
X0222120Y0100360D03*
X0222120Y0100320D03*
X0222120Y0100280D03*
X0222120Y0100240D03*
X0222120Y0100160D03*
X0222120Y0100120D03*
X0222120Y0100080D03*
X0222120Y0100040D03*
X0222120Y0099960D03*
X0222120Y0099920D03*
X0222120Y0099880D03*
X0222120Y0099840D03*
X0222120Y0099760D03*
X0222120Y0099720D03*
X0222120Y0099680D03*
X0222120Y0099640D03*
X0222120Y0099560D03*
X0222120Y0099520D03*
X0222120Y0099480D03*
X0222120Y0099440D03*
X0222120Y0099360D03*
X0222120Y0099320D03*
X0222120Y0099280D03*
X0222120Y0099240D03*
X0222120Y0099160D03*
X0222120Y0099120D03*
X0222120Y0099080D03*
X0222120Y0099040D03*
X0222120Y0098960D03*
X0222120Y0098920D03*
X0222120Y0098880D03*
X0222120Y0098840D03*
X0222120Y0098760D03*
X0222120Y0098720D03*
X0222120Y0098680D03*
X0222120Y0098640D03*
X0222120Y0098560D03*
X0222120Y0098520D03*
X0222120Y0098480D03*
X0222120Y0098440D03*
X0222120Y0098360D03*
X0222120Y0098320D03*
X0222120Y0098280D03*
X0222120Y0098240D03*
X0222120Y0098160D03*
X0222120Y0098120D03*
X0222120Y0098080D03*
X0222120Y0098040D03*
X0222120Y0097960D03*
X0222120Y0097920D03*
X0222120Y0097880D03*
X0222120Y0097840D03*
X0222120Y0097760D03*
X0222120Y0097720D03*
X0222120Y0097680D03*
X0222120Y0097640D03*
X0222120Y0097560D03*
X0222120Y0097520D03*
X0222120Y0097480D03*
X0222120Y0097440D03*
X0222120Y0097360D03*
X0222120Y0097320D03*
X0222120Y0097280D03*
X0222120Y0097240D03*
X0222120Y0097160D03*
X0222120Y0097120D03*
X0222120Y0097080D03*
X0222120Y0097040D03*
X0222120Y0096960D03*
X0222120Y0096920D03*
X0222120Y0096880D03*
X0222120Y0096840D03*
X0222120Y0096760D03*
X0222120Y0096720D03*
X0222120Y0096680D03*
X0222120Y0096640D03*
X0222120Y0096560D03*
X0222120Y0096520D03*
X0222120Y0096480D03*
X0222120Y0096440D03*
X0222120Y0096360D03*
X0222120Y0096320D03*
X0222120Y0096280D03*
X0222120Y0096240D03*
X0222120Y0096160D03*
X0222120Y0096120D03*
X0222120Y0096080D03*
X0222120Y0096040D03*
X0222120Y0095960D03*
X0222120Y0095920D03*
X0222120Y0095880D03*
X0222120Y0095840D03*
X0222120Y0095760D03*
X0222120Y0095720D03*
X0222120Y0095680D03*
X0222120Y0095640D03*
X0222120Y0095560D03*
X0222120Y0095520D03*
X0222120Y0095480D03*
X0222120Y0095440D03*
X0222120Y0095360D03*
X0222120Y0095320D03*
X0222120Y0095280D03*
X0222120Y0095240D03*
X0222120Y0095160D03*
X0222120Y0095120D03*
X0222120Y0095080D03*
X0222120Y0095040D03*
X0222120Y0094960D03*
X0222120Y0094920D03*
X0222120Y0094880D03*
X0222120Y0094840D03*
X0222120Y0094760D03*
X0222120Y0094720D03*
X0222120Y0094680D03*
X0222120Y0094640D03*
X0222120Y0094560D03*
X0222120Y0094520D03*
X0222120Y0094480D03*
X0222120Y0094440D03*
X0222120Y0094360D03*
X0222120Y0094320D03*
X0222120Y0094280D03*
X0222120Y0094240D03*
X0222120Y0094160D03*
X0222120Y0094120D03*
X0222120Y0094080D03*
X0222120Y0094040D03*
X0222120Y0093960D03*
X0222120Y0093920D03*
X0222120Y0093880D03*
X0222120Y0093840D03*
X0222120Y0093760D03*
X0222120Y0093720D03*
X0222120Y0093680D03*
X0222120Y0093640D03*
X0222120Y0093560D03*
X0222120Y0093520D03*
X0222120Y0093480D03*
X0222120Y0093440D03*
X0222120Y0093360D03*
X0222120Y0093320D03*
X0222120Y0093280D03*
X0222120Y0093240D03*
X0222120Y0093160D03*
X0222120Y0093120D03*
X0222120Y0093080D03*
X0222120Y0093040D03*
X0222120Y0092960D03*
X0222120Y0092920D03*
X0222120Y0092880D03*
X0222120Y0092840D03*
X0222120Y0092760D03*
X0222120Y0092720D03*
X0222120Y0092680D03*
X0222120Y0092640D03*
X0222120Y0092560D03*
X0222120Y0092520D03*
X0222120Y0092480D03*
X0222120Y0092440D03*
X0222120Y0092360D03*
X0222120Y0092320D03*
X0222120Y0092280D03*
X0222120Y0092240D03*
X0222120Y0091960D03*
X0222120Y0091920D03*
X0222120Y0087560D03*
X0222120Y0087520D03*
X0222120Y0087280D03*
X0222120Y0087240D03*
X0222120Y0087160D03*
X0222120Y0087120D03*
X0222120Y0087080D03*
X0222120Y0087040D03*
X0222120Y0086960D03*
X0222120Y0086920D03*
X0222120Y0086880D03*
X0222120Y0086840D03*
X0222120Y0086760D03*
X0222120Y0086720D03*
X0222120Y0086680D03*
X0222120Y0086640D03*
X0222120Y0086560D03*
X0222120Y0086520D03*
X0222120Y0086480D03*
X0222120Y0086440D03*
X0222120Y0086360D03*
X0222120Y0086320D03*
X0222120Y0086280D03*
X0222120Y0086240D03*
X0222120Y0086160D03*
X0222120Y0086120D03*
X0222120Y0086080D03*
X0222120Y0086040D03*
X0222120Y0085960D03*
X0222120Y0085920D03*
X0222120Y0085880D03*
X0222120Y0085840D03*
X0222120Y0085760D03*
X0222120Y0085720D03*
X0222120Y0085680D03*
X0222120Y0085640D03*
X0222120Y0085560D03*
X0222120Y0085520D03*
X0222120Y0085480D03*
X0222120Y0085440D03*
X0222120Y0085360D03*
X0222120Y0085320D03*
X0222120Y0085280D03*
X0222120Y0085240D03*
X0222120Y0085160D03*
X0222120Y0085120D03*
X0222120Y0085080D03*
X0222120Y0085040D03*
X0222120Y0084960D03*
X0222120Y0084920D03*
X0222120Y0084880D03*
X0222120Y0084840D03*
X0222120Y0084760D03*
X0222120Y0084720D03*
X0222120Y0084680D03*
X0222120Y0084640D03*
X0222120Y0084560D03*
X0222120Y0084520D03*
X0222120Y0084480D03*
X0222120Y0084440D03*
X0222120Y0084360D03*
X0222120Y0084320D03*
X0222120Y0084280D03*
X0222120Y0084240D03*
X0222120Y0084160D03*
X0222120Y0084120D03*
X0222120Y0084080D03*
X0222120Y0084040D03*
X0222120Y0083960D03*
X0222120Y0083920D03*
X0222120Y0083880D03*
X0222120Y0083840D03*
X0222120Y0083760D03*
X0222120Y0083720D03*
X0222120Y0083680D03*
X0222120Y0083640D03*
X0222120Y0083560D03*
X0222120Y0083520D03*
X0222120Y0083480D03*
X0222120Y0083440D03*
X0222120Y0083360D03*
X0222120Y0083320D03*
X0222120Y0083280D03*
X0222120Y0083240D03*
X0222120Y0083160D03*
X0222120Y0083120D03*
X0222120Y0083080D03*
X0222120Y0083040D03*
X0222120Y0082960D03*
X0222120Y0082920D03*
X0222120Y0082880D03*
X0222120Y0082840D03*
X0222120Y0082760D03*
X0222120Y0082720D03*
X0222120Y0082680D03*
X0222120Y0082640D03*
X0222120Y0082560D03*
X0222120Y0082520D03*
X0222120Y0082480D03*
X0222120Y0082440D03*
X0222120Y0082360D03*
X0222120Y0082320D03*
X0222120Y0082280D03*
X0222120Y0082240D03*
X0222120Y0082160D03*
X0222120Y0082120D03*
X0222120Y0082080D03*
X0222120Y0082040D03*
X0222120Y0081960D03*
X0222120Y0081920D03*
X0222120Y0081880D03*
X0222120Y0081840D03*
X0222120Y0081760D03*
X0222120Y0081720D03*
X0222120Y0081680D03*
X0222120Y0081640D03*
X0222120Y0081560D03*
X0222120Y0081520D03*
X0222120Y0081480D03*
X0222120Y0081440D03*
X0222120Y0081360D03*
X0222120Y0081320D03*
X0222120Y0081280D03*
X0222120Y0081240D03*
X0222120Y0081160D03*
X0222120Y0081120D03*
X0222120Y0081080D03*
X0222120Y0081040D03*
X0222120Y0080960D03*
X0222120Y0080920D03*
X0222120Y0080880D03*
X0222120Y0080840D03*
X0222120Y0080760D03*
X0222120Y0080720D03*
X0222120Y0080680D03*
X0222120Y0080640D03*
X0222120Y0080560D03*
X0222120Y0080520D03*
X0222120Y0080480D03*
X0222120Y0080440D03*
X0222120Y0080360D03*
X0222120Y0080320D03*
X0222120Y0080280D03*
X0222120Y0080240D03*
X0222120Y0080160D03*
X0222120Y0080120D03*
X0222120Y0080080D03*
X0222120Y0080040D03*
X0222120Y0079960D03*
X0222120Y0079920D03*
X0222120Y0079880D03*
X0222120Y0079840D03*
X0222120Y0079760D03*
X0222120Y0079720D03*
X0222120Y0079680D03*
X0222120Y0079640D03*
X0222120Y0079560D03*
X0222120Y0079520D03*
X0222120Y0079480D03*
X0222120Y0079440D03*
X0222120Y0079360D03*
X0222120Y0079320D03*
X0222120Y0079280D03*
X0222120Y0079240D03*
X0222120Y0079160D03*
X0222120Y0079120D03*
X0222120Y0079080D03*
X0222120Y0079040D03*
X0222120Y0078760D03*
X0222120Y0078720D03*
X0222120Y0074360D03*
X0222120Y0074320D03*
X0222120Y0074280D03*
X0222120Y0074080D03*
X0222120Y0074040D03*
X0222120Y0073960D03*
X0222120Y0073920D03*
X0222120Y0073880D03*
X0222120Y0073840D03*
X0222120Y0073760D03*
X0222120Y0073720D03*
X0222120Y0073680D03*
X0222120Y0073640D03*
X0222120Y0073560D03*
X0222120Y0073520D03*
X0222120Y0073480D03*
X0222120Y0073440D03*
X0222120Y0073360D03*
X0222120Y0073320D03*
X0222120Y0073280D03*
X0222120Y0073240D03*
X0222120Y0073160D03*
X0222120Y0073120D03*
X0222120Y0073080D03*
X0222120Y0073040D03*
X0222120Y0072960D03*
X0222120Y0072920D03*
X0222120Y0072880D03*
X0222120Y0072840D03*
X0222120Y0072760D03*
X0222120Y0072720D03*
X0222120Y0072680D03*
X0222120Y0072640D03*
X0222120Y0072560D03*
X0222120Y0072520D03*
X0222120Y0072480D03*
X0222120Y0072440D03*
X0222120Y0072360D03*
X0222120Y0072320D03*
X0222120Y0072280D03*
X0222120Y0072240D03*
X0222120Y0072160D03*
X0222120Y0072120D03*
X0222120Y0072080D03*
X0222120Y0072040D03*
X0222120Y0071960D03*
X0222120Y0071920D03*
X0222120Y0071880D03*
X0222120Y0071840D03*
X0222120Y0071760D03*
X0222120Y0071720D03*
X0222120Y0071680D03*
X0222120Y0071640D03*
X0222120Y0071560D03*
X0222120Y0071520D03*
X0222120Y0071480D03*
X0222120Y0071440D03*
X0222120Y0071360D03*
X0222120Y0071320D03*
X0222120Y0071280D03*
X0222120Y0071240D03*
X0222120Y0071160D03*
X0222120Y0071120D03*
X0222120Y0071080D03*
X0222120Y0071040D03*
X0222120Y0070960D03*
X0222120Y0070920D03*
X0222120Y0070880D03*
X0222120Y0070840D03*
X0222120Y0070760D03*
X0222120Y0070720D03*
X0264720Y0070560D03*
D296*
X0222140Y0070600D03*
X0222100Y0074400D03*
X0222100Y0087600D03*
X0222100Y0100800D03*
X0222140Y0108800D03*
D297*
X0222120Y0108600D03*
X0222120Y0108400D03*
X0222120Y0108200D03*
X0222120Y0108000D03*
X0222120Y0107800D03*
X0222120Y0107600D03*
X0222120Y0107400D03*
X0222120Y0107200D03*
X0222120Y0107000D03*
X0222120Y0106800D03*
X0222120Y0106600D03*
X0222120Y0106400D03*
X0222120Y0106200D03*
X0222120Y0106000D03*
X0222120Y0105800D03*
X0222120Y0105600D03*
X0222120Y0105400D03*
X0222120Y0105200D03*
X0222120Y0100400D03*
X0222120Y0100200D03*
X0222120Y0100000D03*
X0222120Y0099800D03*
X0222120Y0099600D03*
X0222120Y0099400D03*
X0222120Y0099200D03*
X0222120Y0099000D03*
X0222120Y0098800D03*
X0222120Y0098600D03*
X0222120Y0098400D03*
X0222120Y0098200D03*
X0222120Y0098000D03*
X0222120Y0097800D03*
X0222120Y0097600D03*
X0222120Y0097400D03*
X0222120Y0097200D03*
X0222120Y0097000D03*
X0222120Y0096800D03*
X0222120Y0096600D03*
X0222120Y0096400D03*
X0222120Y0096200D03*
X0222120Y0096000D03*
X0222120Y0095800D03*
X0222120Y0095600D03*
X0222120Y0095400D03*
X0222120Y0095200D03*
X0222120Y0095000D03*
X0222120Y0094800D03*
X0222120Y0094600D03*
X0222120Y0094400D03*
X0222120Y0094200D03*
X0222120Y0094000D03*
X0222120Y0093800D03*
X0222120Y0093600D03*
X0222120Y0093400D03*
X0222120Y0093200D03*
X0222120Y0093000D03*
X0222120Y0092800D03*
X0222120Y0092600D03*
X0222120Y0092400D03*
X0222120Y0092200D03*
X0222120Y0092000D03*
X0222120Y0087200D03*
X0222120Y0087000D03*
X0222120Y0086800D03*
X0222120Y0086600D03*
X0222120Y0086400D03*
X0222120Y0086200D03*
X0222120Y0086000D03*
X0222120Y0085800D03*
X0222120Y0085600D03*
X0222120Y0085400D03*
X0222120Y0085200D03*
X0222120Y0085000D03*
X0222120Y0084800D03*
X0222120Y0084600D03*
X0222120Y0084400D03*
X0222120Y0084200D03*
X0222120Y0084000D03*
X0222120Y0083800D03*
X0222120Y0083600D03*
X0222120Y0083400D03*
X0222120Y0083200D03*
X0222120Y0083000D03*
X0222120Y0082800D03*
X0222120Y0082600D03*
X0222120Y0082400D03*
X0222120Y0082200D03*
X0222120Y0082000D03*
X0222120Y0081800D03*
X0222120Y0081600D03*
X0222120Y0081400D03*
X0222120Y0081200D03*
X0222120Y0081000D03*
X0222120Y0080800D03*
X0222120Y0080600D03*
X0222120Y0080400D03*
X0222120Y0080200D03*
X0222120Y0080000D03*
X0222120Y0079800D03*
X0222120Y0079600D03*
X0222120Y0079400D03*
X0222120Y0079200D03*
X0222120Y0079000D03*
X0222120Y0074000D03*
X0222120Y0073800D03*
X0222120Y0073600D03*
X0222120Y0073400D03*
X0222120Y0073200D03*
X0222120Y0073000D03*
X0222120Y0072800D03*
X0222120Y0072600D03*
X0222120Y0072400D03*
X0222120Y0072200D03*
X0222120Y0072000D03*
X0222120Y0071800D03*
X0222120Y0071600D03*
X0222120Y0071400D03*
X0222120Y0071200D03*
X0222120Y0071000D03*
X0222120Y0070800D03*
X0264720Y0070600D03*
D298*
X0264740Y0070800D03*
X0264740Y0071000D03*
X0264740Y0071200D03*
X0264740Y0071400D03*
X0264740Y0071600D03*
X0264740Y0071800D03*
X0264740Y0072000D03*
X0264740Y0072200D03*
X0264740Y0072400D03*
X0264740Y0072600D03*
X0264740Y0072800D03*
X0264740Y0073000D03*
X0264740Y0073200D03*
X0264740Y0073400D03*
X0264740Y0073600D03*
X0264740Y0073800D03*
X0264740Y0074000D03*
X0264740Y0078800D03*
X0264740Y0079000D03*
X0264740Y0079200D03*
X0264740Y0079400D03*
X0264740Y0079600D03*
X0264740Y0079800D03*
X0264740Y0080000D03*
X0264740Y0080200D03*
X0264740Y0080400D03*
X0264740Y0080600D03*
X0264740Y0080800D03*
X0264740Y0081000D03*
X0264740Y0081200D03*
X0264740Y0081400D03*
X0264740Y0081600D03*
X0264740Y0081800D03*
X0264740Y0082000D03*
X0264740Y0082200D03*
X0264740Y0082400D03*
X0264740Y0082600D03*
X0264740Y0082800D03*
X0264740Y0083000D03*
X0264740Y0083200D03*
X0264740Y0083400D03*
X0264740Y0083600D03*
X0264740Y0083800D03*
X0264740Y0084000D03*
X0264740Y0084200D03*
X0264740Y0084400D03*
X0264740Y0084600D03*
X0264740Y0084800D03*
X0264740Y0085000D03*
X0264740Y0085200D03*
X0264740Y0085400D03*
X0264740Y0085600D03*
X0264740Y0085800D03*
X0264740Y0086000D03*
X0264740Y0086200D03*
X0264740Y0086400D03*
X0264740Y0086600D03*
X0264740Y0086800D03*
X0264740Y0087000D03*
X0264740Y0087200D03*
X0264740Y0092200D03*
X0264740Y0092400D03*
X0264740Y0092600D03*
X0264740Y0092800D03*
X0264740Y0093000D03*
X0264740Y0093200D03*
X0264740Y0093400D03*
X0264740Y0093600D03*
X0264740Y0093800D03*
X0264740Y0094000D03*
X0264740Y0094200D03*
X0264740Y0094400D03*
X0264740Y0094600D03*
X0264740Y0094800D03*
X0264740Y0095000D03*
X0264740Y0095200D03*
X0264740Y0095400D03*
X0264740Y0095600D03*
X0264740Y0095800D03*
X0264740Y0096000D03*
X0264740Y0096200D03*
X0264740Y0096400D03*
X0264740Y0096600D03*
X0264740Y0096800D03*
X0264740Y0097000D03*
X0264740Y0097200D03*
X0264740Y0097400D03*
X0264740Y0097600D03*
X0264740Y0097800D03*
X0264740Y0098000D03*
X0264740Y0098200D03*
X0264740Y0098400D03*
X0264740Y0098600D03*
X0264740Y0098800D03*
X0264740Y0099000D03*
X0264740Y0099200D03*
X0264740Y0099400D03*
X0264740Y0099600D03*
X0264740Y0099800D03*
X0264740Y0100000D03*
X0264740Y0100200D03*
X0264740Y0100400D03*
X0264740Y0105200D03*
X0264740Y0105400D03*
X0264740Y0105600D03*
X0264740Y0105800D03*
X0264740Y0106000D03*
X0264740Y0106200D03*
X0264740Y0106400D03*
X0264740Y0106600D03*
X0264740Y0106800D03*
X0264740Y0107000D03*
X0264740Y0107200D03*
X0264740Y0107400D03*
X0264740Y0107600D03*
X0264740Y0107800D03*
X0264740Y0108000D03*
X0264740Y0108200D03*
X0264740Y0108400D03*
X0264740Y0108800D03*
X0222140Y0100600D03*
X0222140Y0087400D03*
X0222140Y0078800D03*
X0222140Y0074200D03*
D299*
X0264760Y0074360D03*
X0264760Y0078680D03*
X0264760Y0078720D03*
X0264760Y0087560D03*
X0264760Y0091880D03*
X0264760Y0091920D03*
X0264760Y0100760D03*
X0264760Y0105080D03*
X0264760Y0105120D03*
X0243440Y0113040D03*
D300*
X0222020Y0104920D03*
X0222020Y0091760D03*
X0222020Y0074520D03*
D301*
X0236340Y0102040D03*
X0264860Y0104920D03*
X0264860Y0074520D03*
D302*
X0264900Y0074560D03*
X0264900Y0100920D03*
D303*
X0219000Y0074600D03*
D304*
X0267880Y0074600D03*
D305*
X0268020Y0074640D03*
X0236500Y0094560D03*
X0236380Y0094920D03*
X0236380Y0094960D03*
X0236380Y0098720D03*
X0236380Y0098760D03*
X0218860Y0091640D03*
X0218860Y0074640D03*
X0268020Y0104760D03*
D306*
X0236380Y0095080D03*
X0236380Y0095040D03*
X0218820Y0074680D03*
D307*
X0268080Y0074680D03*
X0268080Y0104680D03*
D308*
X0236340Y0098520D03*
X0236340Y0095160D03*
X0218780Y0091560D03*
X0218780Y0074720D03*
D309*
X0268100Y0074720D03*
X0268100Y0078440D03*
D310*
X0236360Y0098480D03*
X0218760Y0091520D03*
X0218760Y0074760D03*
D311*
X0218740Y0087880D03*
X0236620Y0094440D03*
X0236660Y0094360D03*
X0236340Y0095240D03*
X0218740Y0104640D03*
X0268140Y0104640D03*
X0268140Y0074760D03*
D312*
X0236320Y0098400D03*
X0218720Y0074800D03*
D313*
X0236800Y0094200D03*
X0268160Y0074800D03*
D314*
X0236740Y0094240D03*
X0236300Y0095320D03*
X0236300Y0095360D03*
X0236300Y0098240D03*
X0236300Y0098280D03*
X0236300Y0098320D03*
X0236300Y0098360D03*
X0218700Y0101080D03*
X0218700Y0091440D03*
X0218700Y0087960D03*
X0218700Y0078320D03*
X0218700Y0078280D03*
X0218700Y0074840D03*
D315*
X0268200Y0074840D03*
X0268200Y0078280D03*
X0268200Y0078320D03*
X0268200Y0101080D03*
X0268200Y0101120D03*
D316*
X0236280Y0098040D03*
X0236280Y0095760D03*
X0236280Y0095720D03*
X0218640Y0101240D03*
X0218640Y0074880D03*
X0268240Y0074880D03*
D317*
X0218600Y0074920D03*
X0218600Y0091360D03*
X0218600Y0101280D03*
D318*
X0268300Y0078160D03*
X0268300Y0074920D03*
D319*
X0236380Y0096560D03*
X0236380Y0096640D03*
X0236380Y0096960D03*
X0236380Y0097040D03*
X0236380Y0097080D03*
X0236380Y0097120D03*
X0218540Y0101320D03*
X0218540Y0104520D03*
X0218540Y0091320D03*
X0218540Y0074960D03*
X0268340Y0101320D03*
X0268340Y0104520D03*
D320*
X0236400Y0096920D03*
X0236400Y0096880D03*
X0236400Y0096840D03*
X0236400Y0096760D03*
X0236400Y0096720D03*
X0236400Y0096680D03*
X0268360Y0078120D03*
X0268360Y0074960D03*
D321*
X0218500Y0075000D03*
X0218500Y0088200D03*
D322*
X0237200Y0094000D03*
X0268400Y0075000D03*
D323*
X0237240Y0093960D03*
X0218480Y0091240D03*
X0218480Y0104440D03*
X0218480Y0075040D03*
D324*
X0218460Y0078040D03*
X0218460Y0088240D03*
X0237260Y0093880D03*
X0237260Y0093920D03*
X0237300Y0093840D03*
X0268420Y0104440D03*
X0268420Y0078040D03*
X0268420Y0075040D03*
D325*
X0268440Y0075080D03*
X0268440Y0104360D03*
X0218440Y0104360D03*
X0218440Y0104320D03*
X0218440Y0104280D03*
X0218440Y0101440D03*
X0218440Y0091160D03*
X0218440Y0088280D03*
X0218440Y0075120D03*
X0218440Y0075080D03*
D326*
X0268460Y0075120D03*
X0268460Y0075160D03*
X0268460Y0077960D03*
X0268460Y0101440D03*
X0268460Y0104280D03*
X0268460Y0104320D03*
D327*
X0218420Y0104240D03*
X0218420Y0101480D03*
X0218420Y0091120D03*
X0218420Y0091080D03*
X0218420Y0088360D03*
X0218420Y0088320D03*
X0218420Y0077960D03*
X0218420Y0077920D03*
X0218420Y0075160D03*
D328*
X0218420Y0075200D03*
D329*
X0268480Y0075200D03*
D330*
X0218400Y0075240D03*
X0218400Y0077880D03*
X0218400Y0091040D03*
X0218400Y0101520D03*
D331*
X0268480Y0101520D03*
X0268480Y0101480D03*
X0268480Y0104240D03*
X0268480Y0077920D03*
X0268480Y0077880D03*
X0268480Y0075240D03*
D332*
X0268520Y0075280D03*
X0237440Y0093760D03*
X0218360Y0075280D03*
D333*
X0218320Y0075320D03*
X0218320Y0075360D03*
X0218320Y0077760D03*
X0218320Y0088520D03*
X0218320Y0090920D03*
X0218320Y0090960D03*
X0218320Y0101680D03*
X0218320Y0104120D03*
D334*
X0268560Y0075320D03*
D335*
X0268580Y0075360D03*
X0268580Y0077760D03*
X0268580Y0101680D03*
X0268580Y0104120D03*
D336*
X0218300Y0075400D03*
D337*
X0268600Y0075400D03*
D338*
X0218280Y0075440D03*
X0218280Y0075480D03*
X0218280Y0077640D03*
X0218280Y0077680D03*
X0218280Y0088640D03*
X0218280Y0090840D03*
X0218280Y0104040D03*
D339*
X0218260Y0103960D03*
X0218260Y0103920D03*
X0218260Y0103880D03*
X0218260Y0101920D03*
X0218260Y0101880D03*
X0218260Y0101840D03*
X0218260Y0090760D03*
X0218260Y0090720D03*
X0218260Y0090680D03*
X0218260Y0088760D03*
X0218260Y0088720D03*
X0218260Y0088680D03*
X0218260Y0077560D03*
X0218260Y0077520D03*
X0218260Y0075560D03*
X0218260Y0075520D03*
X0237540Y0093720D03*
X0268620Y0101840D03*
X0268620Y0104040D03*
X0268620Y0077640D03*
X0268620Y0075480D03*
X0268620Y0075440D03*
D340*
X0268640Y0075520D03*
X0268640Y0075560D03*
X0268640Y0077480D03*
X0268640Y0077520D03*
X0268640Y0077560D03*
X0268640Y0101880D03*
X0268640Y0101920D03*
X0268640Y0101960D03*
X0268640Y0103880D03*
X0268640Y0103920D03*
X0268640Y0103960D03*
X0218240Y0103840D03*
X0218240Y0102040D03*
X0218240Y0101960D03*
X0218240Y0090640D03*
X0218240Y0088840D03*
X0218240Y0077480D03*
X0218240Y0077440D03*
X0218240Y0075680D03*
X0218240Y0075640D03*
D341*
X0218260Y0075600D03*
X0218260Y0077600D03*
X0268620Y0077600D03*
X0268620Y0101800D03*
X0268620Y0104000D03*
D342*
X0268640Y0075600D03*
X0218240Y0088800D03*
X0218240Y0090600D03*
X0218240Y0102000D03*
X0218240Y0103800D03*
D343*
X0268660Y0103840D03*
X0268660Y0103760D03*
X0268660Y0102040D03*
X0268660Y0077440D03*
X0268660Y0075680D03*
X0268660Y0075640D03*
D344*
X0218220Y0075720D03*
X0218220Y0075760D03*
X0218220Y0077360D03*
X0218220Y0088880D03*
X0218220Y0088920D03*
X0218220Y0090520D03*
X0218220Y0090560D03*
X0218220Y0102080D03*
X0218220Y0102120D03*
X0218220Y0103720D03*
X0218220Y0103760D03*
D345*
X0268680Y0103720D03*
X0268680Y0103680D03*
X0268680Y0102160D03*
X0268680Y0102120D03*
X0268680Y0102080D03*
X0268680Y0077360D03*
X0268680Y0077320D03*
X0268680Y0077280D03*
X0268680Y0075760D03*
X0268680Y0075720D03*
D346*
X0218200Y0075800D03*
D347*
X0268680Y0075800D03*
D348*
X0268720Y0075880D03*
X0237840Y0093520D03*
X0237720Y0093640D03*
X0218160Y0089040D03*
X0218160Y0077240D03*
X0218160Y0075840D03*
X0268720Y0102240D03*
X0268720Y0103560D03*
D349*
X0268700Y0103640D03*
X0268700Y0077240D03*
X0268700Y0075840D03*
D350*
X0268740Y0075920D03*
X0268740Y0077160D03*
X0237860Y0093480D03*
X0237820Y0093560D03*
X0218140Y0090360D03*
X0218140Y0089080D03*
X0218140Y0075920D03*
X0218140Y0075880D03*
X0218140Y0102240D03*
X0218140Y0103520D03*
X0218140Y0103560D03*
X0268740Y0103520D03*
X0268740Y0103480D03*
X0268740Y0102280D03*
D351*
X0237920Y0093440D03*
X0218120Y0090320D03*
X0218120Y0090280D03*
X0218120Y0089160D03*
X0218120Y0089120D03*
X0218120Y0077160D03*
X0218120Y0077120D03*
X0218120Y0075960D03*
X0218120Y0102280D03*
X0218120Y0102320D03*
X0218120Y0103440D03*
X0218120Y0103480D03*
D352*
X0268760Y0103440D03*
X0268760Y0102320D03*
X0268760Y0077120D03*
X0268760Y0075960D03*
D353*
X0218120Y0076000D03*
D354*
X0268760Y0076000D03*
D355*
X0218100Y0076040D03*
X0218100Y0076080D03*
X0218100Y0076120D03*
X0218100Y0076160D03*
X0218100Y0076960D03*
X0218100Y0077040D03*
X0218100Y0077080D03*
X0218100Y0089240D03*
X0218100Y0089280D03*
X0218100Y0089320D03*
X0218100Y0090080D03*
X0218100Y0090120D03*
X0218100Y0090160D03*
X0218100Y0090240D03*
X0218100Y0102360D03*
X0218100Y0102440D03*
X0218100Y0102480D03*
X0218100Y0103280D03*
X0218100Y0103320D03*
X0218100Y0103360D03*
D356*
X0268780Y0103360D03*
X0268780Y0103320D03*
X0268780Y0102440D03*
X0268780Y0102360D03*
X0268780Y0077080D03*
X0268780Y0077040D03*
X0268780Y0076080D03*
X0268780Y0076040D03*
D357*
X0268800Y0076120D03*
X0268800Y0076160D03*
X0268800Y0076240D03*
X0268800Y0076280D03*
X0268800Y0076320D03*
X0268800Y0076360D03*
X0268800Y0076840D03*
X0268800Y0076880D03*
X0268800Y0076920D03*
X0268800Y0076960D03*
X0268800Y0102480D03*
X0268800Y0102520D03*
X0268800Y0102560D03*
X0268800Y0103080D03*
X0268800Y0103120D03*
X0268800Y0103160D03*
X0268800Y0103240D03*
X0268800Y0103280D03*
D358*
X0218080Y0103200D03*
X0218080Y0103000D03*
X0218080Y0102800D03*
X0218080Y0102600D03*
X0218080Y0090000D03*
X0218080Y0089800D03*
X0218080Y0089600D03*
X0218080Y0089400D03*
X0218080Y0076800D03*
X0218080Y0076600D03*
X0218080Y0076400D03*
X0218080Y0076200D03*
D359*
X0268800Y0076200D03*
X0268800Y0077000D03*
X0268800Y0102600D03*
X0268800Y0103200D03*
D360*
X0218080Y0103240D03*
X0218080Y0103160D03*
X0218080Y0103120D03*
X0218080Y0103080D03*
X0218080Y0103040D03*
X0218080Y0102960D03*
X0218080Y0102920D03*
X0218080Y0102880D03*
X0218080Y0102840D03*
X0218080Y0102760D03*
X0218080Y0102720D03*
X0218080Y0102680D03*
X0218080Y0102640D03*
X0218080Y0102560D03*
X0218080Y0102520D03*
X0218080Y0090040D03*
X0218080Y0089960D03*
X0218080Y0089920D03*
X0218080Y0089880D03*
X0218080Y0089840D03*
X0218080Y0089760D03*
X0218080Y0089720D03*
X0218080Y0089680D03*
X0218080Y0089640D03*
X0218080Y0089560D03*
X0218080Y0089520D03*
X0218080Y0089480D03*
X0218080Y0089440D03*
X0218080Y0089360D03*
X0218080Y0076920D03*
X0218080Y0076880D03*
X0218080Y0076840D03*
X0218080Y0076760D03*
X0218080Y0076720D03*
X0218080Y0076680D03*
X0218080Y0076640D03*
X0218080Y0076560D03*
X0218080Y0076520D03*
X0218080Y0076480D03*
X0218080Y0076440D03*
X0218080Y0076360D03*
X0218080Y0076320D03*
X0218080Y0076280D03*
X0218080Y0076240D03*
D361*
X0238020Y0093400D03*
X0268820Y0102800D03*
X0268820Y0103000D03*
X0268820Y0076800D03*
X0268820Y0076600D03*
X0268820Y0076400D03*
D362*
X0268820Y0076440D03*
X0268820Y0076480D03*
X0268820Y0076520D03*
X0268820Y0076560D03*
X0268820Y0076640D03*
X0268820Y0076680D03*
X0268820Y0076720D03*
X0268820Y0076760D03*
X0268820Y0102640D03*
X0268820Y0102680D03*
X0268820Y0102720D03*
X0268820Y0102760D03*
X0268820Y0102840D03*
X0268820Y0102880D03*
X0268820Y0102920D03*
X0268820Y0102960D03*
X0268820Y0103040D03*
D363*
X0218100Y0103400D03*
X0218100Y0102400D03*
X0218100Y0090200D03*
X0218100Y0089200D03*
X0218100Y0077000D03*
D364*
X0218140Y0077200D03*
X0218140Y0090400D03*
X0237780Y0093600D03*
X0268740Y0077200D03*
D365*
X0218200Y0077280D03*
X0218200Y0077320D03*
X0218200Y0088960D03*
X0218200Y0090480D03*
X0218200Y0102160D03*
X0218200Y0103680D03*
D366*
X0218220Y0077400D03*
D367*
X0268660Y0077400D03*
X0268660Y0102000D03*
X0268660Y0103800D03*
D368*
X0268600Y0104080D03*
X0268600Y0101760D03*
X0268600Y0101720D03*
X0268600Y0077720D03*
X0268600Y0077680D03*
D369*
X0218300Y0077720D03*
X0218300Y0088560D03*
X0218300Y0090880D03*
X0218300Y0101720D03*
X0218300Y0101760D03*
X0218300Y0104080D03*
D370*
X0218340Y0077800D03*
X0268540Y0077800D03*
D371*
X0218380Y0077840D03*
X0218380Y0088440D03*
X0218380Y0101560D03*
D372*
X0268500Y0101560D03*
X0268500Y0077840D03*
D373*
X0268440Y0104400D03*
X0218440Y0091200D03*
X0218440Y0078000D03*
D374*
X0237340Y0093800D03*
X0268460Y0078000D03*
D375*
X0218500Y0078080D03*
X0218500Y0091280D03*
X0218500Y0101360D03*
X0218500Y0104480D03*
D376*
X0268400Y0104480D03*
X0268400Y0078080D03*
D377*
X0218520Y0078120D03*
X0218520Y0088160D03*
D378*
X0218580Y0088120D03*
X0218580Y0078160D03*
X0236340Y0096280D03*
X0236340Y0096320D03*
X0236340Y0096360D03*
X0236340Y0097320D03*
X0236340Y0097360D03*
D379*
X0218620Y0078200D03*
D380*
X0236300Y0095800D03*
X0236300Y0096000D03*
X0236300Y0097800D03*
X0268260Y0078200D03*
D381*
X0268220Y0078240D03*
X0236300Y0095640D03*
X0236300Y0095680D03*
X0236300Y0098080D03*
X0236300Y0098120D03*
X0236300Y0098160D03*
X0218660Y0088040D03*
X0218660Y0078240D03*
X0268220Y0101160D03*
D382*
X0236320Y0098440D03*
X0236320Y0095280D03*
X0236680Y0094320D03*
X0236680Y0094280D03*
X0218720Y0091480D03*
X0218720Y0087920D03*
X0218720Y0078360D03*
X0218720Y0101040D03*
D383*
X0268180Y0101040D03*
X0268180Y0078360D03*
D384*
X0268140Y0078400D03*
X0236660Y0094400D03*
X0218740Y0078400D03*
D385*
X0218800Y0078440D03*
X0218800Y0087840D03*
X0236560Y0094480D03*
X0236360Y0095120D03*
X0236360Y0098560D03*
X0218800Y0104680D03*
D386*
X0218880Y0104760D03*
X0218880Y0078480D03*
D387*
X0236400Y0098840D03*
X0268000Y0078480D03*
D388*
X0219040Y0078520D03*
X0219040Y0087760D03*
D389*
X0236300Y0099080D03*
X0236300Y0099120D03*
X0236300Y0099160D03*
X0267860Y0078520D03*
D390*
X0264800Y0087680D03*
X0222000Y0087720D03*
X0222000Y0078560D03*
X0222000Y0100920D03*
D391*
X0264880Y0078560D03*
D392*
X0264840Y0078600D03*
X0222040Y0078600D03*
D393*
X0264800Y0078640D03*
X0264800Y0100840D03*
D394*
X0264840Y0100880D03*
X0264840Y0104960D03*
X0236360Y0091720D03*
X0222040Y0087680D03*
X0222040Y0100880D03*
D395*
X0264800Y0087720D03*
D396*
X0264400Y0087760D03*
D397*
X0236440Y0094600D03*
X0218880Y0087800D03*
D398*
X0263620Y0087800D03*
D399*
X0263140Y0087840D03*
D400*
X0263040Y0087880D03*
D401*
X0263000Y0087920D03*
D402*
X0262940Y0087960D03*
D403*
X0236300Y0095400D03*
X0218700Y0088000D03*
D404*
X0262840Y0088000D03*
D405*
X0262740Y0088040D03*
D406*
X0237020Y0094120D03*
X0218620Y0088080D03*
X0218620Y0104560D03*
D407*
X0262520Y0088080D03*
D408*
X0262280Y0088120D03*
D409*
X0261800Y0088160D03*
D410*
X0261680Y0088200D03*
D411*
X0261600Y0088240D03*
D412*
X0261580Y0088280D03*
D413*
X0261540Y0088320D03*
D414*
X0261520Y0088360D03*
D415*
X0218400Y0088400D03*
X0218400Y0104200D03*
D416*
X0261480Y0088400D03*
D417*
X0261440Y0088440D03*
D418*
X0268540Y0101640D03*
X0268540Y0104160D03*
X0218340Y0104160D03*
X0218340Y0101640D03*
X0218340Y0088480D03*
D419*
X0261380Y0088480D03*
D420*
X0261240Y0088520D03*
D421*
X0260980Y0088560D03*
D422*
X0218280Y0088600D03*
X0218280Y0090800D03*
X0218280Y0101800D03*
X0218280Y0104000D03*
D423*
X0260820Y0088600D03*
D424*
X0260720Y0088640D03*
D425*
X0260660Y0088680D03*
D426*
X0260640Y0088720D03*
D427*
X0260620Y0088760D03*
D428*
X0260560Y0088800D03*
D429*
X0260520Y0088840D03*
D430*
X0260420Y0088880D03*
D431*
X0260300Y0088920D03*
D432*
X0259940Y0088960D03*
D433*
X0218180Y0089000D03*
X0218180Y0102200D03*
D434*
X0259840Y0089000D03*
D435*
X0259780Y0089040D03*
D436*
X0259760Y0089080D03*
D437*
X0259740Y0089120D03*
D438*
X0259740Y0089160D03*
D439*
X0259740Y0089200D03*
D440*
X0259700Y0089240D03*
D441*
X0259640Y0089280D03*
D442*
X0259580Y0089320D03*
D443*
X0259460Y0089360D03*
D444*
X0259340Y0089400D03*
D445*
X0259260Y0089440D03*
D446*
X0259260Y0089480D03*
D447*
X0259240Y0089520D03*
D448*
X0259220Y0089560D03*
D449*
X0259200Y0089600D03*
D450*
X0259160Y0089640D03*
D451*
X0259080Y0089680D03*
D452*
X0259000Y0089720D03*
D453*
X0258880Y0089760D03*
D454*
X0258800Y0089800D03*
D455*
X0258700Y0089840D03*
D456*
X0258680Y0089880D03*
D457*
X0258660Y0089920D03*
D458*
X0258620Y0089960D03*
D459*
X0258600Y0090000D03*
D460*
X0258580Y0090040D03*
D461*
X0258480Y0090080D03*
D462*
X0258380Y0090120D03*
D463*
X0258240Y0090160D03*
D464*
X0258160Y0090200D03*
D465*
X0258100Y0090240D03*
D466*
X0258040Y0090280D03*
X0258000Y0090320D03*
X0258000Y0090360D03*
D467*
X0257960Y0090400D03*
D468*
X0237660Y0093680D03*
X0218180Y0090440D03*
X0218180Y0103640D03*
D469*
X0257920Y0090440D03*
D470*
X0257860Y0090480D03*
D471*
X0257800Y0090520D03*
D472*
X0257720Y0090560D03*
D473*
X0257640Y0090600D03*
D474*
X0257580Y0090640D03*
D475*
X0257520Y0090680D03*
D476*
X0257500Y0090720D03*
X0257500Y0090760D03*
D477*
X0257460Y0090800D03*
D478*
X0257440Y0090840D03*
D479*
X0257380Y0090880D03*
D480*
X0257320Y0090920D03*
X0255920Y0091680D03*
D481*
X0257240Y0090960D03*
D482*
X0218360Y0091000D03*
X0218360Y0101600D03*
D483*
X0257140Y0091000D03*
D484*
X0257060Y0091040D03*
D485*
X0257040Y0091080D03*
X0256120Y0091640D03*
D486*
X0256260Y0091560D03*
X0256980Y0091120D03*
D487*
X0256960Y0091160D03*
D488*
X0256920Y0091200D03*
D489*
X0256880Y0091240D03*
X0256320Y0091520D03*
D490*
X0256400Y0091440D03*
X0256800Y0091280D03*
D491*
X0256720Y0091320D03*
D492*
X0256580Y0091360D03*
D493*
X0236280Y0098000D03*
X0218640Y0091400D03*
D494*
X0236300Y0091400D03*
D495*
X0256480Y0091400D03*
D496*
X0236340Y0091480D03*
D497*
X0256340Y0091480D03*
D498*
X0236380Y0098600D03*
X0218820Y0091600D03*
D499*
X0236320Y0091600D03*
D500*
X0256220Y0091600D03*
D501*
X0236300Y0091640D03*
X0236300Y0102120D03*
D502*
X0219000Y0104840D03*
X0219000Y0091680D03*
D503*
X0247460Y0091720D03*
D504*
X0236340Y0101880D03*
X0256540Y0112960D03*
X0264780Y0091720D03*
D505*
X0243820Y0091760D03*
D506*
X0222060Y0091800D03*
D507*
X0243240Y0091800D03*
D508*
X0264800Y0091800D03*
D509*
X0242740Y0091840D03*
D510*
X0242480Y0091880D03*
D511*
X0242360Y0091920D03*
D512*
X0242320Y0091960D03*
D513*
X0242240Y0092000D03*
D514*
X0242140Y0092040D03*
D515*
X0241980Y0092080D03*
D516*
X0241780Y0092120D03*
D517*
X0241340Y0092160D03*
D518*
X0241120Y0092200D03*
D519*
X0240980Y0092240D03*
D520*
X0240880Y0092280D03*
D521*
X0240820Y0092320D03*
D522*
X0240780Y0092360D03*
D523*
X0240720Y0092400D03*
D524*
X0240600Y0092440D03*
D525*
X0240440Y0092480D03*
D526*
X0240260Y0092520D03*
D527*
X0239860Y0092560D03*
D528*
X0239680Y0092600D03*
D529*
X0239560Y0092640D03*
X0239480Y0092680D03*
X0239480Y0092720D03*
D530*
X0239420Y0092760D03*
D531*
X0239400Y0092800D03*
D532*
X0239340Y0092840D03*
D533*
X0239260Y0092880D03*
D534*
X0239160Y0092920D03*
D535*
X0238920Y0092960D03*
D536*
X0238820Y0093000D03*
D537*
X0238700Y0093040D03*
D538*
X0238640Y0093080D03*
D539*
X0238620Y0093120D03*
D540*
X0238560Y0093160D03*
D541*
X0238540Y0093200D03*
D542*
X0238500Y0093240D03*
D543*
X0238420Y0093280D03*
D544*
X0238280Y0093320D03*
D545*
X0238100Y0093360D03*
D546*
X0237180Y0094040D03*
X0268380Y0101360D03*
D547*
X0237100Y0094080D03*
D548*
X0236920Y0094160D03*
X0236280Y0095440D03*
X0236280Y0095480D03*
X0236280Y0095520D03*
X0236280Y0095560D03*
X0218680Y0101120D03*
X0218680Y0101160D03*
D549*
X0218840Y0104720D03*
X0236520Y0094520D03*
X0268040Y0104720D03*
D550*
X0267980Y0100960D03*
X0236380Y0098880D03*
X0236380Y0094880D03*
X0236380Y0094840D03*
X0236380Y0094760D03*
X0236420Y0094640D03*
D551*
X0236400Y0094680D03*
X0236400Y0094720D03*
X0236360Y0098920D03*
D552*
X0236380Y0094800D03*
X0267980Y0104800D03*
D553*
X0236400Y0095000D03*
D554*
X0236360Y0095200D03*
D555*
X0236300Y0095600D03*
X0236300Y0098200D03*
X0218660Y0101200D03*
X0268220Y0101200D03*
X0268220Y0104600D03*
D556*
X0268260Y0101240D03*
X0236300Y0097960D03*
X0236300Y0097920D03*
X0236300Y0097880D03*
X0236300Y0097840D03*
X0236300Y0097760D03*
X0236300Y0097720D03*
X0236300Y0097680D03*
X0236300Y0096040D03*
X0236300Y0095960D03*
X0236300Y0095920D03*
X0236300Y0095880D03*
X0236300Y0095840D03*
D557*
X0236320Y0096080D03*
X0236320Y0096120D03*
X0236320Y0096160D03*
X0236320Y0096240D03*
X0236320Y0097440D03*
X0236320Y0097480D03*
X0236320Y0097520D03*
X0236320Y0097560D03*
X0236320Y0097640D03*
X0268280Y0101280D03*
X0268280Y0104560D03*
D558*
X0236320Y0097600D03*
X0236320Y0096200D03*
D559*
X0236340Y0096400D03*
X0236340Y0097400D03*
D560*
X0236360Y0097280D03*
X0236360Y0097240D03*
X0236360Y0097160D03*
X0236360Y0096520D03*
X0236360Y0096480D03*
X0236360Y0096440D03*
D561*
X0236380Y0096600D03*
X0236380Y0097000D03*
D562*
X0236400Y0096800D03*
D563*
X0236360Y0097200D03*
D564*
X0236400Y0098640D03*
X0236400Y0098680D03*
D565*
X0236380Y0098800D03*
D566*
X0236340Y0098960D03*
D567*
X0236320Y0099000D03*
D568*
X0236320Y0099040D03*
D569*
X0236300Y0099200D03*
D570*
X0236300Y0099240D03*
X0236300Y0099280D03*
D571*
X0236320Y0099320D03*
D572*
X0236300Y0099360D03*
D573*
X0236320Y0099400D03*
D574*
X0236360Y0099440D03*
D575*
X0236380Y0099480D03*
X0236380Y0099520D03*
D576*
X0236400Y0099560D03*
D577*
X0236380Y0099600D03*
D578*
X0236380Y0099640D03*
D579*
X0236380Y0099680D03*
D580*
X0236340Y0099720D03*
D581*
X0236320Y0099760D03*
D582*
X0236320Y0099800D03*
D583*
X0236300Y0099840D03*
D584*
X0236280Y0099880D03*
D585*
X0236300Y0099920D03*
D586*
X0236280Y0099960D03*
D587*
X0236280Y0100000D03*
D588*
X0236300Y0100040D03*
D589*
X0236300Y0100080D03*
D590*
X0236320Y0100120D03*
D591*
X0236360Y0100160D03*
D592*
X0236340Y0100200D03*
D593*
X0236340Y0100240D03*
D594*
X0236300Y0100280D03*
D595*
X0236320Y0100320D03*
D596*
X0236300Y0100360D03*
D597*
X0236320Y0100400D03*
D598*
X0236300Y0100440D03*
D599*
X0236300Y0100480D03*
D600*
X0236320Y0100520D03*
D601*
X0236340Y0100560D03*
D602*
X0236360Y0100600D03*
D603*
X0236380Y0100640D03*
D604*
X0236380Y0100680D03*
D605*
X0236360Y0100720D03*
D606*
X0236360Y0100760D03*
D607*
X0236340Y0100800D03*
D608*
X0236340Y0100840D03*
D609*
X0236320Y0100880D03*
D610*
X0236340Y0100920D03*
D611*
X0218900Y0100960D03*
D612*
X0236360Y0100960D03*
D613*
X0218800Y0101000D03*
D614*
X0236360Y0101000D03*
D615*
X0268100Y0101000D03*
D616*
X0236340Y0101040D03*
D617*
X0236300Y0101080D03*
D618*
X0236320Y0101120D03*
D619*
X0236300Y0101160D03*
D620*
X0236320Y0101200D03*
D621*
X0236320Y0101240D03*
D622*
X0236300Y0101280D03*
D623*
X0236320Y0101320D03*
D624*
X0236320Y0101360D03*
D625*
X0218460Y0101400D03*
X0218460Y0104400D03*
X0268420Y0101400D03*
D626*
X0236300Y0101400D03*
D627*
X0236320Y0101440D03*
D628*
X0236320Y0101480D03*
D629*
X0236320Y0101520D03*
D630*
X0236340Y0101560D03*
D631*
X0236340Y0101600D03*
D632*
X0268500Y0101600D03*
X0268500Y0104200D03*
D633*
X0236360Y0101640D03*
D634*
X0236380Y0101680D03*
D635*
X0236380Y0101720D03*
D636*
X0236400Y0101760D03*
D637*
X0236360Y0101800D03*
D638*
X0236340Y0101840D03*
D639*
X0236320Y0101920D03*
D640*
X0236320Y0101960D03*
D641*
X0236320Y0102000D03*
D642*
X0236360Y0102200D03*
D643*
X0268700Y0102200D03*
X0268700Y0103600D03*
D644*
X0236360Y0102280D03*
D645*
X0236340Y0102320D03*
D646*
X0236340Y0102360D03*
D647*
X0236320Y0102400D03*
D648*
X0268780Y0102400D03*
X0268780Y0103400D03*
D649*
X0218160Y0103600D03*
D650*
X0218680Y0104600D03*
D651*
X0218900Y0104800D03*
D652*
X0267900Y0104840D03*
D653*
X0222080Y0105000D03*
D654*
X0264800Y0105000D03*
D655*
X0222240Y0109000D03*
D656*
X0264580Y0109000D03*
D657*
X0243440Y0111200D03*
D658*
X0243460Y0111400D03*
D659*
X0243460Y0112000D03*
D660*
X0243460Y0112040D03*
D661*
X0243440Y0112080D03*
D662*
X0243460Y0112160D03*
D663*
X0243440Y0112200D03*
D664*
X0243440Y0112240D03*
D665*
X0243440Y0112400D03*
D666*
X0243460Y0112480D03*
D667*
X0243460Y0112560D03*
D668*
X0243460Y0112600D03*
D669*
X0243460Y0112640D03*
D670*
X0243440Y0112800D03*
D671*
X0243460Y0112840D03*
D672*
X0243440Y0112880D03*
D673*
X0243440Y0112920D03*
D674*
X0230320Y0112960D03*
D675*
X0243440Y0112960D03*
D676*
X0230340Y0113000D03*
X0256540Y0113000D03*
D677*
X0243420Y0113000D03*
D678*
X0243460Y0119400D03*
D679*
X0230280Y0120000D03*
D680*
X0243460Y0120000D03*
D681*
X0256640Y0120000D03*
D682*
X0256620Y0120040D03*
D683*
X0243440Y0120080D03*
X0230280Y0120080D03*
D684*
X0230300Y0120120D03*
D685*
X0256600Y0120120D03*
D686*
X0243440Y0120160D03*
D687*
X0256600Y0120160D03*
D688*
X0243440Y0120200D03*
X0230280Y0120200D03*
D689*
X0256620Y0120200D03*
D690*
X0256640Y0120280D03*
X0243440Y0120240D03*
D691*
X0243440Y0120400D03*
X0230280Y0120400D03*
D692*
X0256620Y0120400D03*
D693*
X0243460Y0120440D03*
X0230260Y0120440D03*
D694*
X0230260Y0120480D03*
X0243460Y0120480D03*
D695*
X0256640Y0120480D03*
D696*
X0230280Y0120520D03*
D697*
X0243440Y0120520D03*
X0256640Y0120520D03*
D698*
X0243440Y0120560D03*
X0230280Y0120560D03*
D699*
X0256620Y0120560D03*
D700*
X0243440Y0120600D03*
X0230280Y0120600D03*
D701*
X0256620Y0120600D03*
D702*
X0256640Y0120640D03*
X0243440Y0120640D03*
D703*
X0243440Y0120760D03*
X0230280Y0120760D03*
D704*
X0230260Y0120800D03*
X0243460Y0120800D03*
D705*
X0256620Y0120800D03*
D706*
X0230280Y0120840D03*
D707*
X0243460Y0120840D03*
X0256620Y0120840D03*
D708*
X0230280Y0120880D03*
D709*
X0243440Y0120880D03*
X0256600Y0120880D03*
D710*
X0256560Y0120920D03*
X0243440Y0120920D03*
X0230320Y0120920D03*
D711*
X0230260Y0120960D03*
X0243460Y0120960D03*
X0256660Y0120960D03*
D712*
X0077177Y0081179D02*
X0077177Y0077821D01*
X0072731Y0077369D01*
X0072439Y0076364D01*
X0072039Y0075397D01*
X0071534Y0074480D01*
X0074358Y0071017D01*
X0071983Y0068642D01*
X0068520Y0071466D01*
X0067838Y0071078D01*
X0067126Y0070748D01*
X0065148Y0075522D01*
X0065862Y0075899D01*
X0066493Y0076404D01*
X0067018Y0077017D01*
X0067420Y0077717D01*
X0067684Y0078481D01*
X0067800Y0079280D01*
X0067766Y0080087D01*
X0067581Y0080873D01*
X0067253Y0081611D01*
X0066793Y0082274D01*
X0066217Y0082840D01*
X0065546Y0083289D01*
X0064803Y0083604D01*
X0064013Y0083776D01*
X0063206Y0083796D01*
X0062409Y0083666D01*
X0061650Y0083389D01*
X0060957Y0082975D01*
X0060353Y0082439D01*
X0059859Y0081800D01*
X0059494Y0081080D01*
X0059269Y0080304D01*
X0059194Y0079500D01*
X0059255Y0078779D01*
X0059435Y0078078D01*
X0059731Y0077417D01*
X0060133Y0076815D01*
X0060630Y0076289D01*
X0061209Y0075854D01*
X0061852Y0075522D01*
X0059874Y0070748D01*
X0059162Y0071078D01*
X0058480Y0071466D01*
X0055017Y0068642D01*
X0052642Y0071017D01*
X0055466Y0074480D01*
X0054961Y0075397D01*
X0054561Y0076364D01*
X0054269Y0077369D01*
X0049823Y0077821D01*
X0049823Y0081179D01*
X0054269Y0081631D01*
X0054561Y0082636D01*
X0054961Y0083603D01*
X0055466Y0084520D01*
X0052642Y0087983D01*
X0055017Y0090358D01*
X0058480Y0087534D01*
X0059397Y0088039D01*
X0060364Y0088439D01*
X0061369Y0088731D01*
X0061821Y0093177D01*
X0065179Y0093177D01*
X0065631Y0088731D01*
X0066636Y0088439D01*
X0067603Y0088039D01*
X0068520Y0087534D01*
X0071983Y0090358D01*
X0074358Y0087983D01*
X0071534Y0084520D01*
X0072039Y0083603D01*
X0072439Y0082636D01*
X0072731Y0081631D01*
X0077177Y0081179D01*
X0077177Y0081113D02*
X0067475Y0081113D01*
X0067663Y0080523D02*
X0077177Y0080523D01*
X0077177Y0079934D02*
X0067773Y0079934D01*
X0067798Y0079345D02*
X0077177Y0079345D01*
X0077177Y0078756D02*
X0067724Y0078756D01*
X0067575Y0078167D02*
X0077177Y0078167D01*
X0074789Y0077578D02*
X0067340Y0077578D01*
X0066994Y0076989D02*
X0072621Y0076989D01*
X0072450Y0076400D02*
X0066488Y0076400D01*
X0065695Y0075811D02*
X0072210Y0075811D01*
X0071943Y0075222D02*
X0065272Y0075222D01*
X0065516Y0074633D02*
X0071618Y0074633D01*
X0071890Y0074044D02*
X0065760Y0074044D01*
X0066004Y0073455D02*
X0072370Y0073455D01*
X0072851Y0072866D02*
X0066248Y0072866D01*
X0066492Y0072277D02*
X0073331Y0072277D01*
X0073811Y0071688D02*
X0066736Y0071688D01*
X0066980Y0071098D02*
X0067874Y0071098D01*
X0068971Y0071098D02*
X0074291Y0071098D01*
X0073851Y0070509D02*
X0069693Y0070509D01*
X0070415Y0069920D02*
X0073262Y0069920D01*
X0072673Y0069331D02*
X0071138Y0069331D01*
X0071860Y0068742D02*
X0072084Y0068742D01*
X0060996Y0073455D02*
X0054630Y0073455D01*
X0055110Y0074044D02*
X0061240Y0074044D01*
X0061484Y0074633D02*
X0055382Y0074633D01*
X0055057Y0075222D02*
X0061728Y0075222D01*
X0061292Y0075811D02*
X0054790Y0075811D01*
X0054550Y0076400D02*
X0060526Y0076400D01*
X0060017Y0076989D02*
X0054379Y0076989D01*
X0052211Y0077578D02*
X0059659Y0077578D01*
X0059412Y0078167D02*
X0049823Y0078167D01*
X0049823Y0078756D02*
X0059260Y0078756D01*
X0059207Y0079345D02*
X0049823Y0079345D01*
X0049823Y0079934D02*
X0059235Y0079934D01*
X0059333Y0080523D02*
X0049823Y0080523D01*
X0049823Y0081113D02*
X0059511Y0081113D01*
X0059809Y0081702D02*
X0054290Y0081702D01*
X0054460Y0082291D02*
X0060238Y0082291D01*
X0060849Y0082880D02*
X0054661Y0082880D01*
X0054905Y0083469D02*
X0061869Y0083469D01*
X0065122Y0083469D02*
X0072095Y0083469D01*
X0072339Y0082880D02*
X0066159Y0082880D01*
X0066777Y0082291D02*
X0072540Y0082291D01*
X0072710Y0081702D02*
X0067190Y0081702D01*
X0071789Y0084058D02*
X0055211Y0084058D01*
X0055362Y0084647D02*
X0071638Y0084647D01*
X0072118Y0085236D02*
X0054882Y0085236D01*
X0054402Y0085825D02*
X0072598Y0085825D01*
X0073079Y0086414D02*
X0053921Y0086414D01*
X0053441Y0087003D02*
X0073559Y0087003D01*
X0074039Y0087592D02*
X0068591Y0087592D01*
X0068415Y0087592D02*
X0058585Y0087592D01*
X0058409Y0087592D02*
X0052961Y0087592D01*
X0052840Y0088181D02*
X0057686Y0088181D01*
X0056964Y0088770D02*
X0053429Y0088770D01*
X0054018Y0089359D02*
X0056242Y0089359D01*
X0055519Y0089948D02*
X0054607Y0089948D01*
X0059740Y0088181D02*
X0067260Y0088181D01*
X0065627Y0088770D02*
X0061373Y0088770D01*
X0061433Y0089359D02*
X0065567Y0089359D01*
X0065507Y0089948D02*
X0061493Y0089948D01*
X0061553Y0090537D02*
X0065447Y0090537D01*
X0065388Y0091127D02*
X0061612Y0091127D01*
X0061672Y0091716D02*
X0065328Y0091716D01*
X0065268Y0092305D02*
X0061732Y0092305D01*
X0061792Y0092894D02*
X0065208Y0092894D01*
X0071481Y0089948D02*
X0072393Y0089948D01*
X0072982Y0089359D02*
X0070758Y0089359D01*
X0070036Y0088770D02*
X0073571Y0088770D01*
X0074160Y0088181D02*
X0069314Y0088181D01*
X0060752Y0072866D02*
X0054149Y0072866D01*
X0053669Y0072277D02*
X0060508Y0072277D01*
X0060264Y0071688D02*
X0053189Y0071688D01*
X0052709Y0071098D02*
X0058029Y0071098D01*
X0057307Y0070509D02*
X0053149Y0070509D01*
X0053738Y0069920D02*
X0056585Y0069920D01*
X0055862Y0069331D02*
X0054327Y0069331D01*
X0054916Y0068742D02*
X0055140Y0068742D01*
X0059126Y0071098D02*
X0060020Y0071098D01*
M02*
